<svg xmlns="http://www.w3.org/2000/svg" width="41" height="41" viewBox="0 0 41 41" fill="none">
  <rect width="41" height="41" rx="10" fill="#04477B"/>
  <path d="M26.1852 26.185C25.6864 26.6838 25.2399 27.0437 24.7411 26.5449L20.7734 22.5772L16.8057 26.5449C16.3079 27.0428 15.8605 26.6838 15.3617 26.185C14.8629 25.6862 14.504 25.2389 15.0018 24.741L18.9695 20.7733L15.0018 16.8056C14.504 16.3077 14.8629 15.8603 15.3617 15.3616C15.8605 14.8628 16.3079 14.5038 16.8057 15.0017L20.7734 18.9694L24.7411 15.0017C25.2399 14.5029 25.6864 14.8628 26.1852 15.3616C26.6839 15.8603 27.0438 16.3068 26.545 16.8056L22.5773 20.7733L26.545 24.741C27.0438 25.2398 26.6839 25.6862 26.1852 26.185Z" fill="white"/>
</svg>