<svg width="36" height="36" viewBox="0 0 36 36" fill="none" xmlns="http://www.w3.org/2000/svg">
<rect x="0.5" y="0.5" width="35" height="35" rx="5.5" fill="white"/>
<g opacity="0.8">
<path d="M20.2833 15.4999L19.995 22.9999M16.005 22.9999L15.7167 15.4999M24.0233 12.8249C24.3083 12.8683 24.5917 12.9141 24.875 12.9633M24.0233 12.8249L23.1333 24.3941C23.097 24.8651 22.8842 25.3051 22.5375 25.626C22.1908 25.9469 21.7358 26.1251 21.2633 26.1249H14.7367C14.2642 26.1251 13.8092 25.9469 13.4625 25.626C13.1158 25.3051 12.903 24.8651 12.8667 24.3941L11.9767 12.8249M24.0233 12.8249C23.0616 12.6795 22.0948 12.5692 21.125 12.4941M11.9767 12.8249C11.6917 12.8674 11.4083 12.9133 11.125 12.9624M11.9767 12.8249C12.9384 12.6795 13.9052 12.5692 14.875 12.4941M21.125 12.4941V11.7308C21.125 10.7474 20.3667 9.92745 19.3833 9.89661C18.4613 9.86714 17.5387 9.86714 16.6167 9.89661C15.6333 9.92745 14.875 10.7483 14.875 11.7308V12.4941M21.125 12.4941C19.0448 12.3333 16.9552 12.3333 14.875 12.4941" stroke="black" stroke-width="1.5" stroke-linecap="round" stroke-linejoin="round"/>
</g>
<rect x="0.5" y="0.5" width="35" height="35" rx="5.5" stroke="#D8D8D8"/>
</svg>
