<svg width="36" height="36" viewBox="0 0 36 36" fill="none" xmlns="http://www.w3.org/2000/svg">
<rect x="0.5" y="0.5" width="35" height="35" rx="5.5" fill="white"/>
<g opacity="0.8">
<path d="M22.0517 11.7391L23.4575 10.3325C23.7506 10.0394 24.148 9.87476 24.5625 9.87476C24.977 9.87476 25.3744 10.0394 25.6675 10.3325C25.9606 10.6255 26.1252 11.023 26.1252 11.4375C26.1252 11.8519 25.9606 12.2494 25.6675 12.5425L16.8183 21.3916C16.3778 21.8319 15.8345 22.1556 15.2375 22.3333L13 23L13.6667 20.7625C13.8444 20.1655 14.168 19.6222 14.6083 19.1816L22.0517 11.7391ZM22.0517 11.7391L24.25 13.9375M23 19.6666V23.625C23 24.1222 22.8025 24.5992 22.4508 24.9508C22.0992 25.3024 21.6223 25.5 21.125 25.5H12.375C11.8777 25.5 11.4008 25.3024 11.0492 24.9508C10.6975 24.5992 10.5 24.1222 10.5 23.625V14.875C10.5 14.3777 10.6975 13.9008 11.0492 13.5491C11.4008 13.1975 11.8777 13 12.375 13H16.3333" stroke="black" stroke-width="1.5" stroke-linecap="round" stroke-linejoin="round"/>
</g>
<rect x="0.5" y="0.5" width="35" height="35" rx="5.5" stroke="#D8D8D8"/>
</svg>
