<svg xmlns="http://www.w3.org/2000/svg" width="18" height="18" viewBox="0 0 18 18" fill="none">
  <path d="M1.66667 17.1042C1.20833 17.1042 0.815835 16.9411 0.489168 16.615C0.162501 16.2889 -0.000554141 15.8964 1.41483e-06 15.4375V3.77083C1.41483e-06 3.3125 0.163335 2.92 0.490002 2.59333C0.816668 2.26667 1.20889 2.10361 1.66667 2.10417H9.10417L7.4375 3.77083H1.66667V15.4375H13.3333V9.64583L15 7.97917V15.4375C15 15.8958 14.8367 16.2883 14.51 16.615C14.1833 16.9417 13.7911 17.1047 13.3333 17.1042H1.66667ZM10.9792 2.58333L12.1667 3.75L6.66667 9.25V10.4375H7.83334L13.3542 4.91667L14.5417 6.08333L8.54167 12.1042H5V8.5625L10.9792 2.58333ZM14.5417 6.08333L10.9792 2.58333L13.0625 0.5C13.3958 0.166667 13.7953 0 14.2608 0C14.7264 0 15.1186 0.166667 15.4375 0.5L16.6042 1.6875C16.9236 2.00694 17.0833 2.39583 17.0833 2.85417C17.0833 3.3125 16.9236 3.70139 16.6042 4.02083L14.5417 6.08333Z" fill="#4E4F50"/>
</svg>