<svg width="36" height="36" viewBox="0 0 36 36" fill="none" xmlns="http://www.w3.org/2000/svg">
<rect x="0.5" y="0.5" width="35" height="35" rx="5.5" fill="white"/>
<g opacity="0.8">
<path d="M22.0517 11.7394L23.4575 10.3327C23.7506 10.0396 24.148 9.875 24.5625 9.875C24.977 9.875 25.3744 10.0396 25.6675 10.3327C25.9606 10.6258 26.1252 11.0233 26.1252 11.4377C26.1252 11.8522 25.9606 12.2496 25.6675 12.5427L16.8183 21.3919C16.3778 21.8322 15.8345 22.1558 15.2375 22.3335L13 23.0002L13.6667 20.7627C13.8444 20.1657 14.168 19.6224 14.6083 19.1819L22.0517 11.7394ZM22.0517 11.7394L24.25 13.9377M23 19.6669V23.6252C23 24.1225 22.8025 24.5994 22.4508 24.951C22.0992 25.3027 21.6223 25.5002 21.125 25.5002H12.375C11.8777 25.5002 11.4008 25.3027 11.0492 24.951C10.6975 24.5994 10.5 24.1225 10.5 23.6252V14.8752C10.5 14.3779 10.6975 13.901 11.0492 13.5494C11.4008 13.1978 11.8777 13.0002 12.375 13.0002H16.3333" stroke="black" stroke-width="1.5" stroke-linecap="round" stroke-linejoin="round"/>
</g>
<rect x="0.5" y="0.5" width="35" height="35" rx="5.5" stroke="#D8D8D8"/>
</svg>
