<svg width="36" height="36" viewBox="0 0 36 36" fill="none" xmlns="http://www.w3.org/2000/svg">
<g id="Group 427321253">
<circle id="Ellipse 60" opacity="0.2" cx="18" cy="18" r="18" fill="#0C8AC1"/>
<g id="Group 427321254">
<path id="Union" d="M14.4454 22.2845L14.5484 21.5416L14.4454 22.2845ZM21.6201 22.2845L21.7231 23.0274L21.6201 22.2845ZM14.4981 15.2438C14.4981 13.2902 16.0818 11.7065 18.0354 11.7065V10.2065C15.2534 10.2065 12.9981 12.4618 12.9981 15.2438H14.4981ZM14.4981 16.1854V15.2438H12.9981V16.1854H14.4981ZM13.2705 20.0318C13.2705 19.8608 13.2973 19.6976 13.3463 19.5451L11.9182 19.0861C11.8221 19.3851 11.7705 19.7032 11.7705 20.0318H13.2705ZM14.5484 21.5416C13.8182 21.4404 13.2705 20.804 13.2705 20.0318H11.7705C11.7705 21.5176 12.836 22.8185 14.3424 23.0274L14.5484 21.5416ZM18.0328 21.8434C16.998 21.8434 15.6529 21.6948 14.5484 21.5416L14.3424 23.0274C15.459 23.1822 16.8892 23.3434 18.0328 23.3434V21.8434ZM21.5171 21.5416C20.4126 21.6948 19.0675 21.8434 18.0328 21.8434V23.3434C19.1763 23.3434 20.6065 23.1822 21.7231 23.0274L21.5171 21.5416ZM22.795 20.0318C22.795 20.804 22.2473 21.4404 21.5171 21.5416L21.7231 23.0274C23.2295 22.8185 24.295 21.5176 24.295 20.0318H22.795ZM22.7194 19.5456C22.7683 19.6979 22.795 19.861 22.795 20.0318H24.295C24.295 19.7035 24.2435 19.3858 24.1476 19.0871L22.7194 19.5456ZM21.5727 15.2438V16.1936H23.0727V15.2438H21.5727ZM18.0354 11.7065C19.989 11.7065 21.5727 13.2902 21.5727 15.2438H23.0727C23.0727 12.4618 20.8174 10.2065 18.0354 10.2065V11.7065ZM24.1476 19.0871C23.9614 18.507 23.6381 17.9061 23.4336 17.4613C23.2067 16.9681 23.0727 16.5727 23.0727 16.1936H21.5727C21.5727 16.9134 21.8262 17.5563 22.0708 18.0881C22.3377 18.6684 22.5698 19.0795 22.7194 19.5456L24.1476 19.0871ZM12.9981 16.1854C12.9981 16.5655 12.8635 16.9618 12.6355 17.4563C12.4299 17.9022 12.1052 18.5044 11.9182 19.0861L13.3463 19.5451C13.4964 19.078 13.7296 18.6659 13.9977 18.0843C14.2434 17.5514 14.4981 16.907 14.4981 16.1854H12.9981Z" fill="#065A93"/>
<path id="Ellipse 33" d="M19.5645 24.2217C19.2353 24.7168 18.6724 25.0431 18.0333 25.0431C17.3942 25.0431 16.8313 24.7168 16.5021 24.2217" stroke="#065A93" stroke-width="1.5" stroke-linecap="round"/>
</g>
</g>
</svg>
