<svg width="34" height="34" viewBox="0 0 34 34" fill="none" xmlns="http://www.w3.org/2000/svg">
<g id="Safepal" clip-path="url(#clip0_48_27243)">
<path id="Vector" d="M17 34C26.3888 34 34 26.3888 34 17C34 7.61116 26.3888 0 17 0C7.61116 0 0 7.61116 0 17C0 26.3888 7.61116 34 17 34Z" fill="#4A21EF"/>
<path id="Vector_2" d="M15.827 7.47998C15.5401 7.47997 15.2559 7.53647 14.9909 7.64626C14.7258 7.75605 14.4849 7.91698 14.282 8.11986L7.84565 14.5564C7.72953 14.6722 7.63744 14.8099 7.57468 14.9614C7.51193 15.1129 7.47975 15.2754 7.47998 15.4394C7.47998 15.759 7.60187 16.0784 7.84565 16.3222L12.0637 20.5402V13.0728C12.0637 12.5156 12.5118 12.0637 13.0691 12.0637H21.9361L26.5198 7.47998H15.827ZM12.0639 21.9363H20.9273C21.1949 21.9362 21.4516 21.8299 21.6408 21.6406C21.83 21.4514 21.9363 21.1948 21.9363 20.9272V13.4597L26.1543 17.6778C26.2704 17.7936 26.3625 17.9312 26.4252 18.0827C26.488 18.2342 26.5202 18.3966 26.52 18.5606C26.5202 18.7246 26.488 18.887 26.4253 19.0385C26.3625 19.19 26.2704 19.3276 26.1543 19.4434L19.7179 25.8801C19.3081 26.2898 18.7524 26.5199 18.173 26.52H7.48015L12.0639 21.9363Z" fill="white"/>
</g>
<defs>
<clipPath id="clip0_48_27243">
<rect width="34" height="34" fill="white"/>
</clipPath>
</defs>
</svg>
