<svg width="191" height="44" viewBox="0 0 191 44" fill="none" xmlns="http://www.w3.org/2000/svg">
<g id="Group 2">
<g id="Group">
<path id="Vector" d="M35.6948 34.2828C35.6803 34.3166 35.661 34.3504 35.6465 34.3794V34.2828H35.6948Z" fill="white"/>
<path id="Vector_2" d="M36.1324 18.0503V29.5789C36.1324 29.7507 36.0538 29.9079 35.9163 30.011L27.6332 36.173L18.5695 42.9094C18.378 43.0518 18.1177 43.0518 17.9262 42.9094L0.216038 29.7409C0.0785593 29.6378 0 29.4807 0 29.3088V22.6166C0 22.3171 0.240588 22.0765 0.540095 22.0765H2.33223C2.63174 22.0765 2.87232 22.3171 2.87232 22.6166V27.8653C2.87232 28.0372 2.95088 28.1992 3.08836 28.2974L17.9262 39.3301C18.1177 39.4725 18.378 39.4725 18.5695 39.3301L33.0391 28.5723C33.1766 28.4692 33.2551 28.3121 33.2551 28.1403V20.196C33.2551 19.8965 33.0145 19.6559 32.715 19.6559H26.5923C26.2634 19.6559 25.9933 19.3858 25.9982 19.0569C26.0277 18.7819 26.0424 18.502 26.0424 18.2222C26.0424 17.9423 26.0277 17.6575 25.9982 17.3826V17.3482C25.8657 16.1403 25.4483 14.9619 24.7855 13.9309C24.3878 13.3024 23.9017 12.7377 23.3468 12.2467C22.0997 11.1469 20.5776 10.4693 18.9328 10.2926L18.8297 10.2778C18.378 10.214 17.9213 10.2091 17.4696 10.2631L17.1996 10.2926C15.5597 10.4742 14.0376 11.1469 12.7953 12.2467C12.2405 12.7377 11.7544 13.3024 11.3518 13.9309L11.1898 14.1764H8.83301C8.43039 14.1764 8.17017 13.7541 8.34693 13.3957C8.6808 12.7279 9.08342 12.0945 9.54496 11.5053C11.0916 9.55117 13.2716 8.17148 15.6873 7.63138C16.0801 7.543 16.4729 7.47917 16.851 7.43498C16.9295 7.42516 17.0228 7.41534 17.1112 7.41043C17.1947 7.40061 17.2732 7.3957 17.3518 7.39079C17.7888 7.36133 18.3289 7.35642 18.7855 7.39079C18.8542 7.39079 18.9328 7.40061 19.0163 7.40552C19.1046 7.41043 19.193 7.42025 19.2863 7.43007C19.6546 7.46935 20.0474 7.53809 20.4401 7.62647C22.8558 8.16657 25.0359 9.54626 26.5825 11.5004C27.044 12.0896 27.4516 12.723 27.7805 13.3908C28.2421 14.3187 28.5661 15.3007 28.7478 16.322C28.792 16.5822 29.0129 16.7786 29.2781 16.7786H34.8558C35.5579 16.7786 36.1324 17.3482 36.1324 18.0552V18.0503Z" fill="white"/>
<path id="Vector_3" d="M36.1324 9.89497V11.8246C36.1324 12.1241 35.8869 12.3696 35.5874 12.3696H33.751C33.481 12.3696 33.26 12.1486 33.26 11.8786V9.89497C33.26 9.34506 33.1962 8.80496 33.0636 8.27469C32.9262 7.69531 32.7101 7.13558 32.4204 6.6053C31.2126 4.39091 28.8951 3.01121 26.3812 3.01121H9.75117C7.23237 3.01121 4.91978 4.39091 3.70702 6.6053C3.41733 7.13067 3.2062 7.6904 3.06381 8.26978C2.93615 8.80005 2.86741 9.34015 2.86741 9.89006V16.2779C2.86741 16.548 3.08836 16.7689 3.35841 16.7689H9.58914C9.90829 16.7689 10.1587 17.0439 10.1243 17.363C10.0949 17.6478 10.0801 17.9277 10.0801 18.2075C10.0801 18.4874 10.0949 18.7673 10.1243 19.0471V19.0766C10.2569 20.2403 10.6251 21.3303 11.2291 22.327C11.6071 22.9505 12.0638 23.5152 12.594 24.0111C13.8804 25.2239 15.4762 25.9554 17.2143 26.142C17.7691 26.2009 18.3534 26.2009 18.8935 26.142C20.6365 25.9604 22.2372 25.2239 23.5187 24.016C24.049 23.5201 24.5056 22.9555 24.8837 22.3319L25.0408 22.0717H27.4565C27.8149 22.0717 28.0555 22.4448 27.9033 22.7738L27.8689 22.8425C27.5596 23.5054 27.1717 24.1388 26.7249 24.7329C25.3403 26.5741 23.3616 27.9489 21.1668 28.6068C20.4696 28.8179 19.738 28.9554 19.0015 29.0242C18.6971 29.0487 18.378 29.0634 18.0588 29.0634C17.7397 29.0634 17.4156 29.0487 17.1112 29.0242C16.3747 28.9603 15.648 28.8229 14.9459 28.6068C12.7512 27.9489 10.7823 26.5741 9.39275 24.7329C8.94594 24.1388 8.56296 23.5005 8.24873 22.8425C7.82647 21.9587 7.53187 21.0258 7.36493 20.0635C7.32565 19.8278 7.12435 19.6461 6.88376 19.6461H1.15384C0.515545 19.6461 0 19.1306 0 18.4923V9.89497C0 9.28123 0.0589195 8.65766 0.171848 8.04883C0.299507 7.39089 0.490996 6.7526 0.751223 6.14377C1.04582 5.42691 1.43371 4.74443 1.90015 4.11595C3.06381 2.53986 4.67428 1.34183 6.59407 0.654434C7.58588 0.296007 8.63661 0.143799 9.69225 0.143799H26.445C27.5105 0.143799 28.5759 0.296007 29.5727 0.659344C31.4875 1.35656 33.0882 2.56441 34.2273 4.11595C34.6888 4.74443 35.0767 5.42691 35.3811 6.14377C35.6365 6.7526 35.828 7.3958 35.9556 8.04392C36.0685 8.65275 36.1275 9.27632 36.1275 9.89006L36.1324 9.89497Z" fill="white"/>
<path id="Vector_4" d="M20.5042 16.4351C22.2865 19.3566 19.2129 22.4302 16.2915 20.6479C16.0214 20.4859 15.7906 20.2551 15.6286 19.985C13.8463 17.0636 16.9199 13.99 19.8414 15.7723C20.1114 15.9343 20.3422 16.1651 20.5042 16.4351Z" fill="#5CEAD2"/>
</g>
<g id="Group_2">
<path id="Vector_5" d="M54.6283 14.2944C53.6561 13.9851 52.7969 13.828 52.0555 13.828C51.2306 13.828 50.5727 13.9851 50.0915 14.2944C49.6103 14.6037 49.3698 15.0358 49.3698 15.5857C49.3698 16.0866 49.5367 16.5039 49.8755 16.8378C50.2143 17.1717 50.6365 17.4515 51.1423 17.6676C51.6529 17.8836 52.3452 18.1193 53.2241 18.3795C54.4467 18.7428 55.4532 19.1013 56.2388 19.4646C57.0244 19.8279 57.6921 20.3631 58.242 21.0702C58.792 21.7772 59.0718 22.7101 59.0718 23.8639C59.0718 25.0178 58.7723 25.931 58.1782 26.7461C57.5841 27.566 56.7641 28.1896 55.7232 28.6217C54.6823 29.0537 53.4843 29.2698 52.1439 29.2698C50.7298 29.2698 49.3501 29.0046 48.0048 28.4793C46.6595 27.9539 45.486 27.2518 44.4893 26.3729L45.9377 23.4269C46.8509 24.2715 47.8771 24.9343 49.0162 25.4204C50.1553 25.9016 51.2159 26.1421 52.1979 26.1421C53.1799 26.1421 53.9213 25.9556 54.4712 25.5873C55.0211 25.2191 55.301 24.7133 55.301 24.0751C55.301 23.5595 55.134 23.1323 54.7953 22.7936C54.4614 22.4597 54.0342 22.1847 53.5138 21.9785C52.9982 21.7723 52.2912 21.5366 51.3927 21.2813C50.1701 20.918 49.1684 20.5644 48.3927 20.2207C47.6169 19.877 46.9541 19.3566 46.3992 18.6545C45.8493 17.9572 45.5694 17.0391 45.5694 15.9C45.5694 14.8492 45.8493 13.9311 46.409 13.1455C46.9688 12.3599 47.7642 11.7511 48.7904 11.3239C49.8166 10.8918 50.9999 10.6758 52.3452 10.6758C53.5187 10.6758 54.6774 10.8476 55.8214 11.1913C56.9655 11.535 57.9867 12.0015 58.8853 12.5858L57.4908 15.6103C56.5579 15.0407 55.6054 14.6037 54.6332 14.2895L54.6283 14.2944Z" fill="white"/>
<path id="Vector_6" d="M75.6139 29.0636L74.0083 25.2387H65.1655L63.5599 29.0636H59.9658L67.9052 10.9606H71.4993L79.3356 29.0636H75.6139ZM66.4077 22.2633H72.771L69.6139 14.6627L66.4077 22.2633Z" fill="white"/>
<path id="Vector_7" d="M81.5352 10.9606H94.0261L94.0015 13.9851H85.0016V18.8705H93.2012V21.895H85.0016V29.0587H81.5352V10.9606Z" fill="white"/>
<path id="Vector_8" d="M96.6133 10.9606H109.88V13.9851H100.08V18.4581H108.873V21.4826H100.08V26.0341H110.189V29.0587H96.6133V10.9606Z" fill="white"/>
<path id="Vector_9" d="M113.705 10.9606H117.172V18.6938H126.196V10.9606H129.662V29.0636H126.196V21.7183H117.172V29.0636H113.705V10.9606Z" fill="white"/>
<path id="Vector_10" d="M134.136 10.9606H147.402V13.9851H137.602V18.4581H146.396V21.4826H137.602V26.0341H147.712V29.0587H134.136V10.9606Z" fill="white"/>
<path id="Vector_11" d="M162.554 29.0636L159.426 23.7117C159.289 23.7314 159.073 23.7363 158.778 23.7363H154.693V29.0636H151.227V10.9606H158.778C161.12 10.9606 162.932 11.5056 164.208 12.5907C165.485 13.6758 166.123 15.2126 166.123 17.1913C166.123 18.6054 165.819 19.8132 165.205 20.8099C164.591 21.8116 163.703 22.5579 162.529 23.0587L166.511 29.0587H162.554V29.0636ZM154.693 20.6872H158.778C160.089 20.6872 161.091 20.4024 161.778 19.8329C162.465 19.2633 162.814 18.4188 162.814 17.2993C162.814 16.1799 162.47 15.3697 161.778 14.8149C161.091 14.265 160.089 13.9851 158.778 13.9851H154.693V20.6823V20.6872Z" fill="white"/>
<path id="Vector_12" d="M169.919 10.9606H173.385V29.0636H169.919V10.9606Z" fill="white"/>
<path id="Vector_13" d="M175.815 10.9606H190.58V14.0391H184.943V29.0636H181.452V14.0391H175.815V10.9606Z" fill="white"/>
</g>
</g>
</svg>
