<svg width="81" height="19" viewBox="0 0 81 19" fill="none" xmlns="http://www.w3.org/2000/svg">
<g id="Group 427321058">
<path id="Vector" d="M48.5531 2.8953C47.9216 3.16731 47.2577 3.35672 46.5779 3.45885C46.8957 3.40432 47.3634 2.83167 47.5496 2.59989C47.8324 2.25027 48.048 1.85114 48.1853 1.42279C48.1853 1.39098 48.2171 1.34553 48.1853 1.32281C48.1693 1.31405 48.1513 1.30947 48.1331 1.30947C48.1148 1.30947 48.0969 1.31405 48.0809 1.32281C47.3426 1.72294 46.5569 2.02833 45.7424 2.23176C45.714 2.24044 45.6838 2.24122 45.655 2.23402C45.6262 2.22681 45.5999 2.21189 45.5789 2.19086C45.5155 2.11529 45.4472 2.04394 45.3746 1.97725C45.0423 1.67932 44.6654 1.43547 44.2575 1.25463C43.707 1.02857 43.1123 0.930661 42.5184 0.968313C41.9422 1.00474 41.3796 1.15944 40.8656 1.42279C40.3595 1.70044 39.9147 2.07764 39.5579 2.53172C39.1826 2.99908 38.9116 3.54147 38.7632 4.12239C38.6409 4.67497 38.627 5.24608 38.7224 5.80396C38.7224 5.8994 38.7224 5.91304 38.6406 5.8994C35.4031 5.4222 32.7468 4.27237 30.5763 1.80455C30.4809 1.69548 30.431 1.69548 30.3538 1.80455C29.4093 3.2407 29.8679 5.5131 31.0485 6.63566C31.2074 6.78563 31.3709 6.93107 31.5435 7.06741C31.0022 7.02895 30.4741 6.88213 29.9905 6.63566C29.8997 6.57657 29.8498 6.60839 29.8452 6.71746C29.8323 6.86868 29.8323 7.02072 29.8452 7.17194C29.94 7.89665 30.2253 8.58317 30.6721 9.1613C31.1189 9.73943 31.711 10.1884 32.388 10.4624C32.5531 10.5331 32.725 10.5864 32.9011 10.6214C32.4 10.7202 31.8861 10.7355 31.38 10.6669C31.271 10.6442 31.2301 10.7032 31.271 10.8078C31.9385 12.6257 33.387 13.1801 34.4495 13.4892C34.5948 13.5119 34.7401 13.5119 34.9036 13.5483C34.9036 13.5483 34.9036 13.5483 34.8764 13.5755C34.5631 14.1482 33.2962 14.5345 32.715 14.7345C31.6541 15.1159 30.523 15.2616 29.4002 15.1617C29.2231 15.1344 29.1823 15.1389 29.1369 15.1617C29.0915 15.1844 29.1369 15.2344 29.1868 15.2798C29.4138 15.4298 29.6409 15.5616 29.877 15.6889C30.5799 16.0726 31.3231 16.3774 32.0929 16.5978C36.0797 17.6977 40.5659 16.8887 43.5583 13.9119C45.9104 11.5758 46.7368 8.35358 46.7368 5.12679C46.7368 5.00408 46.8866 4.93136 46.9729 4.86774C47.568 4.40367 48.0926 3.85561 48.5304 3.2407C48.6062 3.14904 48.6451 3.03234 48.6394 2.91348C48.6394 2.84531 48.6394 2.85894 48.5531 2.8953Z" fill="#858992"/>
<path id="Vector_2" d="M68.6416 9.00488C68.6416 7.34719 69.9847 6.00301 71.6419 6.00301C73.2991 6.00301 74.6429 7.34719 74.6429 9.00488C74.6429 10.6626 73.2991 12.0067 71.6419 12.0067C69.9847 12.0067 68.6416 10.6626 68.6416 9.00488ZM67.0194 9.00488C67.0194 11.5587 69.0889 13.6288 71.6419 13.6288C74.195 13.6288 76.2645 11.5587 76.2645 9.00488C76.2645 6.45109 74.195 4.38098 71.6419 4.38098C69.0889 4.38098 67.0194 6.45109 67.0194 9.00488ZM75.3672 4.19764C75.3671 4.41136 75.4304 4.62031 75.549 4.79806C75.6677 4.9758 75.8363 5.11437 76.0337 5.19624C76.231 5.27811 76.4482 5.29959 76.6578 5.25798C76.8674 5.21637 77.0599 5.11353 77.211 4.96247C77.3622 4.81141 77.4651 4.61891 77.5069 4.40931C77.5487 4.19971 77.5274 3.98243 77.4457 3.78495C77.364 3.58747 77.2256 3.41865 77.048 3.29984C76.8704 3.18103 76.6616 3.11757 76.4479 3.11749C76.1615 3.11762 75.8865 3.23145 75.6839 3.43398C75.4814 3.63651 75.3675 3.91117 75.3672 4.19764ZM68.005 16.3346C67.1273 16.2947 66.6503 16.1484 66.3332 16.0249C65.9129 15.8612 65.6131 15.6663 65.2978 15.3513C64.9825 15.0363 64.7873 14.7367 64.6244 14.3162C64.5008 13.9993 64.3546 13.5219 64.3147 12.644C64.2711 11.6948 64.2624 11.4097 64.2624 9.00495C64.2624 6.60022 64.2718 6.31588 64.3147 5.3659C64.3547 4.48796 64.502 4.01157 64.6244 3.69366C64.788 3.27324 64.9829 2.97327 65.2978 2.65788C65.6126 2.34249 65.9122 2.14727 66.3332 1.98432C66.6501 1.8607 67.1273 1.71446 68.005 1.67455C68.9539 1.63089 69.239 1.62217 71.6419 1.62217C74.0449 1.62217 74.3302 1.63161 75.2799 1.67455C76.1576 1.71453 76.6339 1.86185 76.9517 1.98432C77.372 2.14727 77.6719 2.34293 77.9872 2.65788C78.3025 2.97283 78.4969 3.27324 78.6605 3.69366C78.7841 4.01063 78.9303 4.48796 78.9702 5.3659C79.0139 6.31588 79.0226 6.60022 79.0226 9.00495C79.0226 11.4097 79.0139 11.694 78.9702 12.644C78.9302 13.5219 78.7833 13.9991 78.6605 14.3162C78.4969 14.7367 78.302 15.0366 77.9872 15.3513C77.6723 15.666 77.372 15.8612 76.9517 16.0249C76.6348 16.1485 76.1576 16.2947 75.2799 16.3346C74.331 16.3783 74.046 16.387 71.6419 16.387C69.2379 16.387 68.9536 16.3783 68.005 16.3346ZM67.9305 0.0545335C66.9721 0.0981892 66.3173 0.250192 65.7454 0.472792C65.1531 0.702669 64.6517 1.01107 64.1507 1.51145C63.6496 2.01183 63.3421 2.51416 63.1123 3.10661C62.8898 3.67903 62.7378 4.33372 62.6942 5.29235C62.6498 6.25248 62.6396 6.55944 62.6396 9.00488C62.6396 11.4503 62.6498 11.7573 62.6942 12.7174C62.7378 13.6761 62.8898 14.3307 63.1123 14.9031C63.3421 15.4952 63.6497 15.9981 64.1507 16.4983C64.6516 16.9985 65.1531 17.3064 65.7454 17.537C66.3183 17.7596 66.9721 17.9116 67.9305 17.9552C68.8908 17.9989 69.1972 18.0098 71.6419 18.0098C74.0867 18.0098 74.3935 17.9996 75.3534 17.9552C76.3118 17.9116 76.9662 17.7596 77.5385 17.537C78.1304 17.3064 78.6322 16.9987 79.1332 16.4983C79.6342 15.9979 79.9411 15.4952 80.1715 14.9031C80.3941 14.3307 80.5468 13.676 80.5897 12.7174C80.6333 11.7566 80.6435 11.4503 80.6435 9.00488C80.6435 6.55944 80.6333 6.25248 80.5897 5.29235C80.546 4.33365 80.3941 3.67867 80.1715 3.10661C79.9411 2.51452 79.6334 2.01263 79.1332 1.51145C78.6329 1.01028 78.1304 0.702669 77.5392 0.472792C76.9662 0.250192 76.3117 0.0974688 75.3541 0.0545335C74.3942 0.0108779 74.0874 0 71.6426 0C69.1979 0 68.8908 0.0101575 67.9305 0.0545335Z" fill="#858992"/>
<path id="Vector_3" d="M9.08082 10.1303L9.59357 6.8725H6.43502V4.7549C6.43502 3.86408 6.87599 2.99363 8.28605 2.99363H9.74227V0.219375C8.89424 0.0841442 8.03735 0.010985 7.17851 0.000488281C4.57887 0.000488281 2.88166 1.56323 2.88166 4.38839V6.8725H0V10.1303H2.88166V18.0102H6.43502V10.1303H9.08082Z" fill="#858992"/>
</g>
</svg>
