<svg width="441" height="86" viewBox="0 0 441 86" fill="none" xmlns="http://www.w3.org/2000/svg">
<path d="M389 33.5C390.381 33.5 391.5 32.3807 391.5 31C391.5 29.6193 390.381 28.5 389 28.5V33.5ZM29 33.5H389V28.5H29V33.5Z" fill="#E0E0E0"/>
<g filter="url(#filter0_d_210_2)">
<circle cx="35" cy="30" r="28" fill="#04477B"/>
</g>
<path d="M36.8638 22.2V39H33.7438V24.816H30.1918V22.2H36.8638Z" fill="white"/>
<path d="M23.4546 83.14C22.6893 83.14 21.9566 83.0327 21.2566 82.818C20.5566 82.594 20.0013 82.3093 19.5906 81.964L20.2206 80.55C20.6126 80.858 21.0979 81.1147 21.6766 81.32C22.2553 81.5253 22.8479 81.628 23.4546 81.628C23.9679 81.628 24.3833 81.572 24.7006 81.46C25.0179 81.348 25.2513 81.1987 25.4006 81.012C25.5499 80.816 25.6246 80.5967 25.6246 80.354C25.6246 80.0553 25.5173 79.8173 25.3026 79.64C25.0879 79.4533 24.8079 79.3087 24.4626 79.206C24.1266 79.094 23.7486 78.9913 23.3286 78.898C22.9179 78.8047 22.5026 78.6973 22.0826 78.576C21.6719 78.4453 21.2939 78.282 20.9486 78.086C20.6126 77.8807 20.3373 77.61 20.1226 77.274C19.9079 76.938 19.8006 76.5087 19.8006 75.986C19.8006 75.454 19.9406 74.9687 20.2206 74.53C20.5099 74.082 20.9439 73.7273 21.5226 73.466C22.1106 73.1953 22.8526 73.06 23.7486 73.06C24.3366 73.06 24.9199 73.1347 25.4986 73.284C26.0773 73.4333 26.5813 73.648 27.0106 73.928L26.4366 75.342C25.9979 75.0807 25.5453 74.8893 25.0786 74.768C24.6119 74.6373 24.1639 74.572 23.7346 74.572C23.2306 74.572 22.8199 74.6327 22.5026 74.754C22.1946 74.8753 21.9659 75.034 21.8166 75.23C21.6766 75.426 21.6066 75.65 21.6066 75.902C21.6066 76.2007 21.7093 76.4433 21.9146 76.63C22.1293 76.8073 22.4046 76.9473 22.7406 77.05C23.0859 77.1527 23.4686 77.2553 23.8886 77.358C24.3086 77.4513 24.7239 77.5587 25.1346 77.68C25.5546 77.8013 25.9326 77.96 26.2686 78.156C26.6139 78.352 26.8893 78.618 27.0946 78.954C27.3093 79.29 27.4166 79.7147 27.4166 80.228C27.4166 80.7507 27.2719 81.236 26.9826 81.684C26.7026 82.1227 26.2686 82.4773 25.6806 82.748C25.0926 83.0093 24.3506 83.14 23.4546 83.14ZM31.8673 83.098C31.0459 83.098 30.4113 82.888 29.9633 82.468C29.5153 82.0387 29.2913 81.4087 29.2913 80.578V73.872H31.0413V80.536C31.0413 80.8907 31.1299 81.166 31.3073 81.362C31.4939 81.558 31.7506 81.656 32.0773 81.656C32.4693 81.656 32.7959 81.5533 33.0573 81.348L33.5473 82.594C33.3419 82.762 33.0899 82.888 32.7913 82.972C32.4926 83.056 32.1846 83.098 31.8673 83.098ZM28.0593 76.98V75.58H33.0433V76.98H28.0593ZM38.2548 83.098C37.4241 83.098 36.6961 82.9347 36.0708 82.608C35.4548 82.272 34.9741 81.8147 34.6288 81.236C34.2928 80.6573 34.1248 79.9993 34.1248 79.262C34.1248 78.5153 34.2881 77.8573 34.6148 77.288C34.9508 76.7093 35.4081 76.2567 35.9868 75.93C36.5748 75.6033 37.2421 75.44 37.9888 75.44C38.7168 75.44 39.3654 75.5987 39.9348 75.916C40.5041 76.2333 40.9521 76.6813 41.2788 77.26C41.6054 77.8387 41.7688 78.52 41.7688 79.304C41.7688 79.3787 41.7641 79.4627 41.7548 79.556C41.7548 79.6493 41.7501 79.738 41.7408 79.822H35.5108V78.66H40.8168L40.1308 79.024C40.1401 78.5947 40.0514 78.2167 39.8648 77.89C39.6781 77.5633 39.4214 77.3067 39.0948 77.12C38.7774 76.9333 38.4088 76.84 37.9888 76.84C37.5594 76.84 37.1814 76.9333 36.8548 77.12C36.5374 77.3067 36.2854 77.568 36.0988 77.904C35.9214 78.2307 35.8328 78.618 35.8328 79.066V79.346C35.8328 79.794 35.9354 80.1907 36.1408 80.536C36.3461 80.8813 36.6354 81.1473 37.0088 81.334C37.3821 81.5207 37.8114 81.614 38.2968 81.614C38.7168 81.614 39.0948 81.5487 39.4308 81.418C39.7668 81.2873 40.0654 81.082 40.3268 80.802L41.2648 81.88C40.9288 82.272 40.5041 82.5753 39.9908 82.79C39.4868 82.9953 38.9081 83.098 38.2548 83.098ZM47.5938 83.098C46.9871 83.098 46.4318 82.958 45.9278 82.678C45.4331 82.398 45.0364 81.978 44.7378 81.418C44.4484 80.8487 44.3038 80.13 44.3038 79.262C44.3038 78.3847 44.4438 77.666 44.7238 77.106C45.0131 76.546 45.4051 76.1307 45.8998 75.86C46.3944 75.58 46.9591 75.44 47.5938 75.44C48.3311 75.44 48.9798 75.5987 49.5398 75.916C50.1091 76.2333 50.5571 76.6767 50.8838 77.246C51.2198 77.8153 51.3878 78.4873 51.3878 79.262C51.3878 80.0367 51.2198 80.7133 50.8838 81.292C50.5571 81.8613 50.1091 82.3047 49.5398 82.622C48.9798 82.9393 48.3311 83.098 47.5938 83.098ZM43.4498 85.716V75.524H45.1158V77.288L45.0598 79.276L45.1998 81.264V85.716H43.4498ZM47.3978 81.6C47.8178 81.6 48.1911 81.5067 48.5178 81.32C48.8538 81.1333 49.1198 80.8627 49.3158 80.508C49.5118 80.1533 49.6098 79.738 49.6098 79.262C49.6098 78.7767 49.5118 78.3613 49.3158 78.016C49.1198 77.6613 48.8538 77.3907 48.5178 77.204C48.1911 77.0173 47.8178 76.924 47.3978 76.924C46.9778 76.924 46.5998 77.0173 46.2638 77.204C45.9278 77.3907 45.6618 77.6613 45.4658 78.016C45.2698 78.3613 45.1718 78.7767 45.1718 79.262C45.1718 79.738 45.2698 80.1533 45.4658 80.508C45.6618 80.8627 45.9278 81.1333 46.2638 81.32C46.5998 81.5067 46.9778 81.6 47.3978 81.6Z" fill="#04477B"/>
<circle cx="287" cy="30" r="28" fill="#E2E2E2"/>
<path d="M286.288 39.192C285.104 39.192 283.952 39.008 282.832 38.64C281.728 38.272 280.824 37.776 280.12 37.152L281.224 35.256C281.784 35.784 282.512 36.216 283.408 36.552C284.304 36.888 285.264 37.056 286.288 37.056C287.536 37.056 288.504 36.792 289.192 36.264C289.896 35.72 290.248 34.992 290.248 34.08C290.248 33.2 289.912 32.496 289.24 31.968C288.584 31.424 287.536 31.152 286.096 31.152H284.752V29.472L289.744 23.328L290.08 24.288H280.888V22.2H291.976V23.832L287.008 29.952L285.76 29.208H286.552C288.584 29.208 290.104 29.664 291.112 30.576C292.136 31.488 292.648 32.648 292.648 34.056C292.648 35 292.416 35.864 291.952 36.648C291.488 37.432 290.784 38.056 289.84 38.52C288.912 38.968 287.728 39.192 286.288 39.192Z" fill="#9E9E9E"/>
<path d="M275.455 83.14C274.689 83.14 273.957 83.0327 273.257 82.818C272.557 82.594 272.001 82.3093 271.591 81.964L272.221 80.55C272.613 80.858 273.098 81.1147 273.677 81.32C274.255 81.5253 274.848 81.628 275.455 81.628C275.968 81.628 276.383 81.572 276.701 81.46C277.018 81.348 277.251 81.1987 277.401 81.012C277.55 80.816 277.625 80.5967 277.625 80.354C277.625 80.0553 277.517 79.8173 277.303 79.64C277.088 79.4533 276.808 79.3087 276.463 79.206C276.127 79.094 275.749 78.9913 275.329 78.898C274.918 78.8047 274.503 78.6973 274.083 78.576C273.672 78.4453 273.294 78.282 272.949 78.086C272.613 77.8807 272.337 77.61 272.123 77.274C271.908 76.938 271.801 76.5087 271.801 75.986C271.801 75.454 271.941 74.9687 272.221 74.53C272.51 74.082 272.944 73.7273 273.523 73.466C274.111 73.1953 274.853 73.06 275.749 73.06C276.337 73.06 276.92 73.1347 277.499 73.284C278.077 73.4333 278.581 73.648 279.011 73.928L278.437 75.342C277.998 75.0807 277.545 74.8893 277.079 74.768C276.612 74.6373 276.164 74.572 275.735 74.572C275.231 74.572 274.82 74.6327 274.503 74.754C274.195 74.8753 273.966 75.034 273.817 75.23C273.677 75.426 273.607 75.65 273.607 75.902C273.607 76.2007 273.709 76.4433 273.915 76.63C274.129 76.8073 274.405 76.9473 274.741 77.05C275.086 77.1527 275.469 77.2553 275.889 77.358C276.309 77.4513 276.724 77.5587 277.135 77.68C277.555 77.8013 277.933 77.96 278.269 78.156C278.614 78.352 278.889 78.618 279.095 78.954C279.309 79.29 279.417 79.7147 279.417 80.228C279.417 80.7507 279.272 81.236 278.983 81.684C278.703 82.1227 278.269 82.4773 277.681 82.748C277.093 83.0093 276.351 83.14 275.455 83.14ZM283.867 83.098C283.046 83.098 282.411 82.888 281.963 82.468C281.515 82.0387 281.291 81.4087 281.291 80.578V73.872H283.041V80.536C283.041 80.8907 283.13 81.166 283.307 81.362C283.494 81.558 283.751 81.656 284.077 81.656C284.469 81.656 284.796 81.5533 285.057 81.348L285.547 82.594C285.342 82.762 285.09 82.888 284.791 82.972C284.493 83.056 284.185 83.098 283.867 83.098ZM280.059 76.98V75.58H285.043V76.98H280.059ZM290.255 83.098C289.424 83.098 288.696 82.9347 288.071 82.608C287.455 82.272 286.974 81.8147 286.629 81.236C286.293 80.6573 286.125 79.9993 286.125 79.262C286.125 78.5153 286.288 77.8573 286.615 77.288C286.951 76.7093 287.408 76.2567 287.987 75.93C288.575 75.6033 289.242 75.44 289.989 75.44C290.717 75.44 291.365 75.5987 291.935 75.916C292.504 76.2333 292.952 76.6813 293.279 77.26C293.605 77.8387 293.769 78.52 293.769 79.304C293.769 79.3787 293.764 79.4627 293.755 79.556C293.755 79.6493 293.75 79.738 293.741 79.822H287.511V78.66H292.817L292.131 79.024C292.14 78.5947 292.051 78.2167 291.865 77.89C291.678 77.5633 291.421 77.3067 291.095 77.12C290.777 76.9333 290.409 76.84 289.989 76.84C289.559 76.84 289.181 76.9333 288.855 77.12C288.537 77.3067 288.285 77.568 288.099 77.904C287.921 78.2307 287.833 78.618 287.833 79.066V79.346C287.833 79.794 287.935 80.1907 288.141 80.536C288.346 80.8813 288.635 81.1473 289.009 81.334C289.382 81.5207 289.811 81.614 290.297 81.614C290.717 81.614 291.095 81.5487 291.431 81.418C291.767 81.2873 292.065 81.082 292.327 80.802L293.265 81.88C292.929 82.272 292.504 82.5753 291.991 82.79C291.487 82.9953 290.908 83.098 290.255 83.098ZM299.594 83.098C298.987 83.098 298.432 82.958 297.928 82.678C297.433 82.398 297.036 81.978 296.738 81.418C296.448 80.8487 296.304 80.13 296.304 79.262C296.304 78.3847 296.444 77.666 296.724 77.106C297.013 76.546 297.405 76.1307 297.9 75.86C298.394 75.58 298.959 75.44 299.594 75.44C300.331 75.44 300.98 75.5987 301.54 75.916C302.109 76.2333 302.557 76.6767 302.884 77.246C303.22 77.8153 303.388 78.4873 303.388 79.262C303.388 80.0367 303.22 80.7133 302.884 81.292C302.557 81.8613 302.109 82.3047 301.54 82.622C300.98 82.9393 300.331 83.098 299.594 83.098ZM295.45 85.716V75.524H297.116V77.288L297.06 79.276L297.2 81.264V85.716H295.45ZM299.398 81.6C299.818 81.6 300.191 81.5067 300.518 81.32C300.854 81.1333 301.12 80.8627 301.316 80.508C301.512 80.1533 301.61 79.738 301.61 79.262C301.61 78.7767 301.512 78.3613 301.316 78.016C301.12 77.6613 300.854 77.3907 300.518 77.204C300.191 77.0173 299.818 76.924 299.398 76.924C298.978 76.924 298.6 77.0173 298.264 77.204C297.928 77.3907 297.662 77.6613 297.466 78.016C297.27 78.3613 297.172 78.7767 297.172 79.262C297.172 79.738 297.27 80.1533 297.466 80.508C297.662 80.8627 297.928 81.1333 298.264 81.32C298.6 81.5067 298.978 81.6 299.398 81.6Z" fill="#9C9C9C"/>
<circle cx="413" cy="30" r="28" fill="#E2E2E2"/>
<path d="M406.912 34.872V33.192L415.504 22.2H418.096L409.576 33.192L408.352 32.808H421.768V34.872H406.912ZM416.248 39V34.872L416.32 32.808V29.16H418.576V39H416.248Z" fill="#9E9E9E"/>
<path d="M401.455 83.14C400.699 83.14 399.966 83.0327 399.257 82.818C398.557 82.6033 398.001 82.3187 397.591 81.964L398.221 80.55C398.622 80.8673 399.112 81.1287 399.691 81.334C400.279 81.53 400.867 81.628 401.455 81.628C402.183 81.628 402.724 81.5113 403.079 81.278C403.443 81.0447 403.625 80.7367 403.625 80.354C403.625 80.074 403.522 79.8453 403.317 79.668C403.121 79.4813 402.869 79.3367 402.561 79.234C402.253 79.1313 401.833 79.0147 401.301 78.884C400.554 78.7067 399.947 78.5293 399.481 78.352C399.023 78.1747 398.627 77.8993 398.291 77.526C397.964 77.1433 397.801 76.63 397.801 75.986C397.801 75.4447 397.945 74.9547 398.235 74.516C398.533 74.068 398.977 73.7133 399.565 73.452C400.162 73.1907 400.89 73.06 401.749 73.06C402.346 73.06 402.934 73.1347 403.513 73.284C404.091 73.4333 404.591 73.648 405.011 73.928L404.437 75.342C404.007 75.09 403.559 74.8987 403.093 74.768C402.626 74.6373 402.173 74.572 401.735 74.572C401.016 74.572 400.479 74.6933 400.125 74.936C399.779 75.1787 399.607 75.5007 399.607 75.902C399.607 76.182 399.705 76.4107 399.901 76.588C400.106 76.7653 400.363 76.9053 400.671 77.008C400.979 77.1107 401.399 77.2273 401.931 77.358C402.659 77.526 403.256 77.7033 403.723 77.89C404.189 78.0673 404.586 78.3427 404.913 78.716C405.249 79.0893 405.417 79.5933 405.417 80.228C405.417 80.7693 405.267 81.2593 404.969 81.698C404.679 82.1367 404.236 82.4867 403.639 82.748C403.041 83.0093 402.313 83.14 401.455 83.14ZM411.547 82.594C411.342 82.762 411.09 82.888 410.791 82.972C410.502 83.056 410.194 83.098 409.867 83.098C409.046 83.098 408.411 82.8833 407.963 82.454C407.515 82.0247 407.291 81.3993 407.291 80.578V76.98H406.059V75.58H407.291V73.872H409.041V75.58H411.043V76.98H409.041V80.536C409.041 80.9 409.13 81.18 409.307 81.376C409.485 81.5627 409.741 81.656 410.077 81.656C410.469 81.656 410.796 81.5533 411.057 81.348L411.547 82.594ZM419.769 79.304C419.769 79.4253 419.759 79.598 419.741 79.822H413.875C413.977 80.3727 414.243 80.8113 414.673 81.138C415.111 81.4553 415.653 81.614 416.297 81.614C417.118 81.614 417.795 81.3433 418.327 80.802L419.265 81.88C418.929 82.2813 418.504 82.5847 417.991 82.79C417.477 82.9953 416.899 83.098 416.255 83.098C415.433 83.098 414.71 82.9347 414.085 82.608C413.459 82.2813 412.974 81.8287 412.629 81.25C412.293 80.662 412.125 79.9993 412.125 79.262C412.125 78.534 412.288 77.8807 412.615 77.302C412.951 76.714 413.413 76.2567 414.001 75.93C414.589 75.6033 415.251 75.44 415.989 75.44C416.717 75.44 417.365 75.6033 417.935 75.93C418.513 76.2473 418.961 76.7 419.279 77.288C419.605 77.8667 419.769 78.5387 419.769 79.304ZM415.989 76.84C415.429 76.84 414.953 77.008 414.561 77.344C414.178 77.6707 413.945 78.1093 413.861 78.66H418.103C418.028 78.1187 417.799 77.68 417.417 77.344C417.034 77.008 416.558 76.84 415.989 76.84ZM425.594 75.44C426.322 75.44 426.97 75.5987 427.54 75.916C428.118 76.2333 428.571 76.6813 428.898 77.26C429.224 77.8387 429.388 78.506 429.388 79.262C429.388 80.018 429.224 80.69 428.898 81.278C428.571 81.8567 428.118 82.3047 427.54 82.622C426.97 82.9393 426.322 83.098 425.594 83.098C424.586 83.098 423.788 82.762 423.2 82.09V85.716H421.45V75.524H423.116V76.504C423.405 76.1493 423.76 75.8833 424.18 75.706C424.609 75.5287 425.08 75.44 425.594 75.44ZM425.398 81.6C426.042 81.6 426.569 81.3853 426.98 80.956C427.4 80.5267 427.61 79.962 427.61 79.262C427.61 78.562 427.4 77.9973 426.98 77.568C426.569 77.1387 426.042 76.924 425.398 76.924C424.978 76.924 424.6 77.022 424.264 77.218C423.928 77.4047 423.662 77.6753 423.466 78.03C423.27 78.3847 423.172 78.7953 423.172 79.262C423.172 79.7287 423.27 80.1393 423.466 80.494C423.662 80.8487 423.928 81.124 424.264 81.32C424.6 81.5067 424.978 81.6 425.398 81.6Z" fill="#9C9C9C"/>
<circle cx="161" cy="30" r="28" fill="#E2E2E2"/>
<path d="M154.888 39V37.368L161.728 30.768C162.336 30.192 162.784 29.688 163.072 29.256C163.376 28.808 163.576 28.4 163.672 28.032C163.784 27.648 163.84 27.28 163.84 26.928C163.84 26.064 163.536 25.384 162.928 24.888C162.32 24.392 161.432 24.144 160.264 24.144C159.368 24.144 158.56 24.296 157.84 24.6C157.12 24.888 156.496 25.344 155.968 25.968L154.336 24.552C154.976 23.736 155.832 23.112 156.904 22.68C157.992 22.232 159.184 22.008 160.48 22.008C161.648 22.008 162.664 22.2 163.528 22.584C164.392 22.952 165.056 23.488 165.52 24.192C166 24.896 166.24 25.728 166.24 26.688C166.24 27.232 166.168 27.768 166.024 28.296C165.88 28.824 165.608 29.384 165.208 29.976C164.808 30.568 164.232 31.232 163.48 31.968L157.384 37.848L156.808 36.912H166.96V39H154.888Z" fill="#9E9E9E"/>
<path d="M149.455 83.14C148.689 83.14 147.957 83.0327 147.257 82.818C146.557 82.594 146.001 82.3093 145.591 81.964L146.221 80.55C146.613 80.858 147.098 81.1147 147.677 81.32C148.255 81.5253 148.848 81.628 149.455 81.628C149.968 81.628 150.383 81.572 150.701 81.46C151.018 81.348 151.251 81.1987 151.401 81.012C151.55 80.816 151.625 80.5967 151.625 80.354C151.625 80.0553 151.517 79.8173 151.303 79.64C151.088 79.4533 150.808 79.3087 150.463 79.206C150.127 79.094 149.749 78.9913 149.329 78.898C148.918 78.8047 148.503 78.6973 148.083 78.576C147.672 78.4453 147.294 78.282 146.949 78.086C146.613 77.8807 146.337 77.61 146.123 77.274C145.908 76.938 145.801 76.5087 145.801 75.986C145.801 75.454 145.941 74.9687 146.221 74.53C146.51 74.082 146.944 73.7273 147.523 73.466C148.111 73.1953 148.853 73.06 149.749 73.06C150.337 73.06 150.92 73.1347 151.499 73.284C152.077 73.4333 152.581 73.648 153.011 73.928L152.437 75.342C151.998 75.0807 151.545 74.8893 151.079 74.768C150.612 74.6373 150.164 74.572 149.735 74.572C149.231 74.572 148.82 74.6327 148.503 74.754C148.195 74.8753 147.966 75.034 147.817 75.23C147.677 75.426 147.607 75.65 147.607 75.902C147.607 76.2007 147.709 76.4433 147.915 76.63C148.129 76.8073 148.405 76.9473 148.741 77.05C149.086 77.1527 149.469 77.2553 149.889 77.358C150.309 77.4513 150.724 77.5587 151.135 77.68C151.555 77.8013 151.933 77.96 152.269 78.156C152.614 78.352 152.889 78.618 153.095 78.954C153.309 79.29 153.417 79.7147 153.417 80.228C153.417 80.7507 153.272 81.236 152.983 81.684C152.703 82.1227 152.269 82.4773 151.681 82.748C151.093 83.0093 150.351 83.14 149.455 83.14ZM157.867 83.098C157.046 83.098 156.411 82.888 155.963 82.468C155.515 82.0387 155.291 81.4087 155.291 80.578V73.872H157.041V80.536C157.041 80.8907 157.13 81.166 157.307 81.362C157.494 81.558 157.751 81.656 158.077 81.656C158.469 81.656 158.796 81.5533 159.057 81.348L159.547 82.594C159.342 82.762 159.09 82.888 158.791 82.972C158.493 83.056 158.185 83.098 157.867 83.098ZM154.059 76.98V75.58H159.043V76.98H154.059ZM164.255 83.098C163.424 83.098 162.696 82.9347 162.071 82.608C161.455 82.272 160.974 81.8147 160.629 81.236C160.293 80.6573 160.125 79.9993 160.125 79.262C160.125 78.5153 160.288 77.8573 160.615 77.288C160.951 76.7093 161.408 76.2567 161.987 75.93C162.575 75.6033 163.242 75.44 163.989 75.44C164.717 75.44 165.365 75.5987 165.935 75.916C166.504 76.2333 166.952 76.6813 167.279 77.26C167.605 77.8387 167.769 78.52 167.769 79.304C167.769 79.3787 167.764 79.4627 167.755 79.556C167.755 79.6493 167.75 79.738 167.741 79.822H161.511V78.66H166.817L166.131 79.024C166.14 78.5947 166.051 78.2167 165.865 77.89C165.678 77.5633 165.421 77.3067 165.095 77.12C164.777 76.9333 164.409 76.84 163.989 76.84C163.559 76.84 163.181 76.9333 162.855 77.12C162.537 77.3067 162.285 77.568 162.099 77.904C161.921 78.2307 161.833 78.618 161.833 79.066V79.346C161.833 79.794 161.935 80.1907 162.141 80.536C162.346 80.8813 162.635 81.1473 163.009 81.334C163.382 81.5207 163.811 81.614 164.297 81.614C164.717 81.614 165.095 81.5487 165.431 81.418C165.767 81.2873 166.065 81.082 166.327 80.802L167.265 81.88C166.929 82.272 166.504 82.5753 165.991 82.79C165.487 82.9953 164.908 83.098 164.255 83.098ZM173.594 83.098C172.987 83.098 172.432 82.958 171.928 82.678C171.433 82.398 171.036 81.978 170.738 81.418C170.448 80.8487 170.304 80.13 170.304 79.262C170.304 78.3847 170.444 77.666 170.724 77.106C171.013 76.546 171.405 76.1307 171.9 75.86C172.394 75.58 172.959 75.44 173.594 75.44C174.331 75.44 174.98 75.5987 175.54 75.916C176.109 76.2333 176.557 76.6767 176.884 77.246C177.22 77.8153 177.388 78.4873 177.388 79.262C177.388 80.0367 177.22 80.7133 176.884 81.292C176.557 81.8613 176.109 82.3047 175.54 82.622C174.98 82.9393 174.331 83.098 173.594 83.098ZM169.45 85.716V75.524H171.116V77.288L171.06 79.276L171.2 81.264V85.716H169.45ZM173.398 81.6C173.818 81.6 174.191 81.5067 174.518 81.32C174.854 81.1333 175.12 80.8627 175.316 80.508C175.512 80.1533 175.61 79.738 175.61 79.262C175.61 78.7767 175.512 78.3613 175.316 78.016C175.12 77.6613 174.854 77.3907 174.518 77.204C174.191 77.0173 173.818 76.924 173.398 76.924C172.978 76.924 172.6 77.0173 172.264 77.204C171.928 77.3907 171.662 77.6613 171.466 78.016C171.27 78.3613 171.172 78.7767 171.172 79.262C171.172 79.738 171.27 80.1533 171.466 80.508C171.662 80.8627 171.928 81.1333 172.264 81.32C172.6 81.5067 172.978 81.6 173.398 81.6Z" fill="#9C9C9C"/>
<defs>
<filter id="filter0_d_210_2" x="0" y="0" width="70" height="70" filterUnits="userSpaceOnUse" color-interpolation-filters="sRGB">
<feFlood flood-opacity="0" result="BackgroundImageFix"/>
<feColorMatrix in="SourceAlpha" type="matrix" values="0 0 0 0 0 0 0 0 0 0 0 0 0 0 0 0 0 0 127 0" result="hardAlpha"/>
<feOffset dy="5"/>
<feGaussianBlur stdDeviation="3.5"/>
<feComposite in2="hardAlpha" operator="out"/>
<feColorMatrix type="matrix" values="0 0 0 0 0 0 0 0 0 0 0 0 0 0 0 0 0 0 0.11 0"/>
<feBlend mode="normal" in2="BackgroundImageFix" result="effect1_dropShadow_210_2"/>
<feBlend mode="normal" in="SourceGraphic" in2="effect1_dropShadow_210_2" result="shape"/>
</filter>
</defs>
</svg>
