<svg width="82" height="82" viewBox="0 0 82 82" fill="none" xmlns="http://www.w3.org/2000/svg">
<g id="Group 427321200">
<rect id="Rectangle 16" x="1" y="1" width="80" height="80" rx="16" fill="#F5FAFD" stroke="#CDD2D5"/>
<path id="Vector" opacity="0.6" d="M43.2004 33.2999C43.2004 35.9255 42.1574 38.4436 40.3007 40.3003C38.4441 42.1569 35.926 43.1999 33.3004 43.1999C30.6747 43.1999 28.1566 42.1569 26.3 40.3003C24.4434 38.4436 23.4004 35.9255 23.4004 33.2999C23.4004 30.6743 24.4434 28.1562 26.3 26.2995C28.1566 24.4429 30.6747 23.3999 33.3004 23.3999C35.926 23.3999 38.4441 24.4429 40.3007 26.2995C42.1574 28.1562 43.2004 30.6743 43.2004 33.2999ZM34.4004 28.8999C34.4004 28.6082 34.2845 28.3284 34.0782 28.1221C33.8719 27.9158 33.5921 27.7999 33.3004 27.7999C33.0087 27.7999 32.7289 27.9158 32.5226 28.1221C32.3163 28.3284 32.2004 28.6082 32.2004 28.8999V32.1999H28.9004C28.6087 32.1999 28.3289 32.3158 28.1226 32.5221C27.9163 32.7284 27.8004 33.0082 27.8004 33.2999C27.8004 33.5916 27.9163 33.8714 28.1226 34.0777C28.3289 34.284 28.6087 34.3999 28.9004 34.3999H32.2004V37.6999C32.2004 37.9916 32.3163 38.2714 32.5226 38.4777C32.7289 38.684 33.0087 38.7999 33.3004 38.7999C33.5921 38.7999 33.8719 38.684 34.0782 38.4777C34.2845 38.2714 34.4004 37.9916 34.4004 37.6999V34.3999H37.7004C37.9921 34.3999 38.2719 34.284 38.4782 34.0777C38.6845 33.8714 38.8004 33.5916 38.8004 33.2999C38.8004 33.0082 38.6845 32.7284 38.4782 32.5221C38.2719 32.3158 37.9921 32.1999 37.7004 32.1999H34.4004V28.8999ZM33.3004 45.3999C35.3715 45.4003 37.4081 44.869 39.2151 43.857C41.0222 42.845 42.5392 41.386 43.621 39.6199C44.7027 37.8537 45.3131 35.8394 45.3935 33.7699C45.4739 31.7003 45.0218 29.6447 44.0804 27.7999H52.0004C53.7508 27.7999 55.4296 28.4953 56.6673 29.733C57.905 30.9707 58.6004 32.6495 58.6004 34.3999V51.9999C58.6004 53.4299 58.1472 54.7499 57.375 55.8323L45.517 44.1547C44.8996 43.5467 44.0679 43.206 43.2015 43.206C42.335 43.206 41.5033 43.5467 40.886 44.1547L29.028 55.8323C28.228 54.7147 27.7986 53.3743 27.8004 51.9999V44.0799C29.4504 44.9247 31.3204 45.3999 33.3004 45.3999ZM48.7004 38.7999C48.9921 38.7999 49.2719 38.684 49.4782 38.4777C49.6845 38.2714 49.8004 37.9916 49.8004 37.6999C49.8004 37.4082 49.6845 37.1284 49.4782 36.9221C49.2719 36.7158 48.9921 36.5999 48.7004 36.5999C48.4087 36.5999 48.1289 36.7158 47.9226 36.9221C47.7163 37.1284 47.6004 37.4082 47.6004 37.6999C47.6004 37.9916 47.7163 38.2714 47.9226 38.4777C48.1289 38.684 48.4087 38.7999 48.7004 38.7999ZM48.7004 40.9999C49.5756 40.9999 50.415 40.6522 51.0338 40.0334C51.6527 39.4145 52.0004 38.5751 52.0004 37.6999C52.0004 36.8247 51.6527 35.9853 51.0338 35.3664C50.415 34.7476 49.5756 34.3999 48.7004 34.3999C47.8252 34.3999 46.9858 34.7476 46.3669 35.3664C45.7481 35.9853 45.4004 36.8247 45.4004 37.6999C45.4004 38.5751 45.7481 39.4145 46.3669 40.0334C46.9858 40.6522 47.8252 40.9999 48.7004 40.9999ZM30.5834 57.3855C31.6614 58.1511 32.9792 58.5999 34.4004 58.5999H52.0004C53.4216 58.5999 54.7394 58.1511 55.8174 57.3855L43.9726 45.7255C43.7668 45.5226 43.4894 45.4089 43.2004 45.4089C42.9114 45.4089 42.634 45.5226 42.4282 45.7255L30.5834 57.3855Z" fill="#0971AA"/>
</g>
</svg>
