<svg width="61" height="56" viewBox="0 0 61 56" fill="none" xmlns="http://www.w3.org/2000/svg">
<g id="Group 427321387">
<path id="Vector" d="M44.6802 29.6071C43.379 29.6071 42.314 28.5356 42.314 27.2253C42.314 25.9155 43.3785 24.8435 44.6802 24.8435C48.5394 24.8435 51.6596 21.6883 51.6452 17.8182C51.6303 13.9481 48.5106 10.7929 44.6658 10.8073C44.0742 10.8073 43.4827 10.8816 42.921 11.0306C41.6492 11.3581 40.363 10.5992 40.0375 9.31899C39.7121 8.03882 40.4661 6.74411 41.7379 6.41652C47.9928 4.77922 54.3956 8.545 56.0221 14.856C57.6487 21.152 53.9075 27.597 47.6378 29.2341C46.6615 29.4729 45.6708 29.6069 44.6801 29.6069L44.6802 29.6071Z" fill="#0971AA" stroke="#E7F4F9" stroke-width="0.5"/>
<path id="Vector_2" d="M22.6175 29.6074C14.7653 29.6074 8.40723 23.2071 8.40723 15.3037C8.40723 7.40032 14.7657 1 22.6175 1C30.4696 1 36.8277 7.40032 36.8277 15.3037C36.8127 23.2075 30.4543 29.6074 22.6175 29.6074ZM22.6175 5.7617C17.3828 5.7617 13.1387 10.0337 13.1387 15.3028C13.1387 20.5719 17.3828 24.8439 22.6175 24.8439C27.8521 24.8439 32.0962 20.5719 32.0962 15.3028C32.0962 10.0337 27.8521 5.7617 22.6175 5.7617Z" fill="#0971AA" stroke="#E7F4F9" stroke-width="0.5"/>
<path id="Vector_3" d="M41.8716 55C40.5704 55 39.5053 53.9285 39.5053 52.6182V48.7184C39.5053 43.1814 35.0396 38.7013 29.5537 38.7013H15.6841C10.1832 38.7013 5.73243 43.1964 5.73243 48.7184V52.6182C5.73243 53.9279 4.66795 55 3.36621 55C2.06501 55 1 53.9285 1 52.6182V48.7184C1.01496 40.5619 7.5803 33.939 15.6829 33.939H29.5525C37.6558 33.954 44.2354 40.5626 44.2354 48.7184V52.6182C44.2359 53.9285 43.1714 55 41.8702 55H41.8716Z" fill="#0971AA" stroke="#E7F4F9" stroke-width="0.5"/>
<path id="Vector_4" d="M57.6353 54.9997C56.3341 54.9997 55.269 53.9282 55.269 52.6179V48.7182C55.269 43.1812 50.8033 38.7011 45.3174 38.7011C44.0162 38.7011 42.9512 37.6296 42.9512 36.3193C42.9512 35.0095 44.0157 33.9375 45.3174 33.9375C53.4206 33.9526 60.0003 40.5611 60.0003 48.717V52.6167C60.0008 53.9275 58.9358 54.999 57.6346 54.999L57.6353 54.9997Z" fill="#0971AA" stroke="#E7F4F9" stroke-width="0.5"/>
</g>
</svg>
