<svg width="20" height="20" viewBox="0 0 20 20" fill="none" xmlns="http://www.w3.org/2000/svg">
<path d="M9.16662 14.167H10.8333V9.16699H9.16662V14.167ZM9.99996 7.50032C10.2361 7.50032 10.4341 7.42032 10.5941 7.26032C10.7541 7.10032 10.8338 6.90255 10.8333 6.66699C10.8333 6.43088 10.7533 6.23282 10.5933 6.07282C10.4333 5.91283 10.2355 5.8331 9.99996 5.83366C9.76385 5.83366 9.56579 5.91366 9.40579 6.07366C9.24579 6.23366 9.16607 6.43144 9.16662 6.66699C9.16662 6.9031 9.24662 7.10116 9.40662 7.26116C9.56662 7.42116 9.7644 7.50088 9.99996 7.50032ZM9.99996 18.3337C8.84718 18.3337 7.76385 18.1148 6.74996 17.677C5.73607 17.2392 4.85413 16.6456 4.10413 15.8962C3.35413 15.1462 2.76051 14.2642 2.32329 13.2503C1.88607 12.2364 1.66718 11.1531 1.66663 10.0003C1.66663 8.84755 1.88551 7.76421 2.32329 6.75033C2.76107 5.73644 3.35468 4.85449 4.10413 4.10449C4.85413 3.35449 5.73607 2.76088 6.74996 2.32366C7.76385 1.88644 8.84718 1.66755 9.99996 1.66699C11.1527 1.66699 12.2361 1.88588 13.25 2.32366C14.2638 2.76144 15.1458 3.35505 15.8958 4.10449C16.6458 4.85449 17.2397 5.73644 17.6775 6.75033C18.1152 7.76421 18.3338 8.84755 18.3333 10.0003C18.3333 11.1531 18.1144 12.2364 17.6766 13.2503C17.2388 14.2642 16.6452 15.1462 15.8958 15.8962C15.1458 16.6462 14.2638 17.24 13.25 17.6778C12.2361 18.1156 11.1527 18.3342 9.99996 18.3337ZM9.99996 16.667C11.8611 16.667 13.4375 16.0212 14.7291 14.7295C16.0208 13.4378 16.6666 11.8614 16.6666 10.0003C16.6666 8.13921 16.0208 6.56282 14.7291 5.27116C13.4375 3.97949 11.8611 3.33366 9.99996 3.33366C8.13885 3.33366 6.56246 3.97949 5.27079 5.27116C3.97913 6.56282 3.33329 8.13921 3.33329 10.0003C3.33329 11.8614 3.97913 13.4378 5.27079 14.7295C6.56246 16.0212 8.13885 16.667 9.99996 16.667Z" fill="#D84646"/>
</svg>
