<svg xmlns="http://www.w3.org/2000/svg" width="41" height="41" viewBox="0 0 41 41" fill="none">
  <rect width="41" height="41" rx="8.74667" fill="#04477B"/>
  <path d="M28.4268 20.7733C28.4268 21.4787 28.3656 22.0489 27.6602 22.0489H22.049V27.6601C22.049 28.3642 21.4788 28.4267 20.7734 28.4267C20.0681 28.4267 19.4979 28.3642 19.4979 27.6601V22.0489H13.8867C13.1826 22.0489 13.1201 21.4787 13.1201 20.7733C13.1201 20.0679 13.1826 19.4978 13.8867 19.4978H19.4979V13.8866C19.4979 13.1812 20.0681 13.12 20.7734 13.12C21.4788 13.12 22.049 13.1812 22.049 13.8866V19.4978H27.6602C28.3656 19.4978 28.4268 20.0679 28.4268 20.7733Z" fill="white"/>
</svg>