<svg width="24" height="24" viewBox="0 0 24 24" fill="none" xmlns="http://www.w3.org/2000/svg">
<path opacity="0.4" d="M22 12C22 17.515 17.514 22 12 22C6.486 22 2 17.515 2 12C2 6.486 6.486 2 12 2C17.514 2 22 6.486 22 12Z" fill="#0C8AC1"/>
<path d="M16.2206 10.5575C16.2206 10.7485 16.1476 10.9405 16.0016 11.0865L12.5316 14.5735C12.3906 14.7145 12.1996 14.7935 11.9996 14.7935C11.8006 14.7935 11.6096 14.7145 11.4686 14.5735L7.99658 11.0865C7.70458 10.7935 7.70458 10.3195 7.99858 10.0265C8.29258 9.73448 8.76758 9.73548 9.05958 10.0285L11.9996 12.9815L14.9396 10.0285C15.2316 9.73548 15.7056 9.73448 15.9996 10.0265C16.1476 10.1725 16.2206 10.3655 16.2206 10.5575Z" fill="#0C8AC1"/>
</svg>
