<svg width="20" height="20" viewBox="0 0 20 20" fill="none" xmlns="http://www.w3.org/2000/svg">
<g id="Arrow - Down Circle">
<path id="Fill 1" opacity="0.4" d="M20 10C20 15.515 15.514 20 10 20C4.486 20 0 15.515 0 10C0 4.486 4.486 0 10 0C15.514 0 20 4.486 20 10Z" fill="#0C8AC1"/>
<path id="Fill 4" d="M14.2206 8.55748C14.2206 8.74848 14.1476 8.94048 14.0016 9.08648L10.5316 12.5735C10.3906 12.7145 10.1996 12.7935 9.99958 12.7935C9.80058 12.7935 9.60958 12.7145 9.46858 12.5735L5.99658 9.08648C5.70458 8.79348 5.70458 8.31948 5.99858 8.02648C6.29258 7.73448 6.76758 7.73548 7.05958 8.02848L9.99958 10.9815L12.9396 8.02848C13.2316 7.73548 13.7056 7.73448 13.9996 8.02648C14.1476 8.17248 14.2206 8.36548 14.2206 8.55748Z" fill="#0C8AC1"/>
</g>
</svg>
