<svg width="25" height="22" viewBox="0 0 25 22" fill="none" xmlns="http://www.w3.org/2000/svg">
<g id="Group 427321055">
<path id="Vector" d="M12.6529 21.13C12.5827 21.13 12.5156 21.0988 12.4708 21.0445L1.05466 7.30485C0.974687 7.20875 0.983439 7.06682 1.07456 6.98136L7.37308 1.06418C7.41701 1.02282 7.47518 1 7.53525 1H17.7709C17.831 1 17.8892 1.02282 17.9331 1.06418L24.2316 6.98136C24.3226 7.06682 24.3315 7.20875 24.2515 7.30485L12.8354 21.0445C12.7906 21.0989 12.7235 21.13 12.6533 21.13H12.6529ZM1.56095 7.17372L12.6529 20.5233L23.7448 7.17328L17.6769 1.47268H7.62882L1.56095 7.17372Z" fill="white" stroke="white"/>
<path id="Vector_2" d="M12.6527 21.1301C12.5543 21.1301 12.4665 21.0693 12.4313 20.9777L7.20868 7.23799C7.18551 7.17707 7.18877 7.10911 7.21743 7.05042L10.0986 1.13324C10.1379 1.05189 10.2206 1.00024 10.311 1.00024H14.9942C15.0848 1.00024 15.1675 1.05173 15.2066 1.13324L18.0883 7.05042C18.1169 7.10911 18.1202 7.17707 18.097 7.23799L12.874 20.9777C12.8388 21.0693 12.7509 21.1301 12.6526 21.1301H12.6527ZM7.6875 7.16501L12.6527 20.2277L17.6187 7.16501L14.8465 1.47276H10.4592L7.6875 7.16501Z" fill="white" stroke="white"/>
<path id="Vector_3" d="M24.0687 7.38995H1.23648C1.10571 7.38995 1 7.28406 1 7.15347C1 7.0227 1.10588 6.91699 1.23648 6.91699H24.0687C24.1995 6.91699 24.3052 7.02288 24.3052 7.15347C24.3054 7.28424 24.1995 7.38995 24.0687 7.38995Z" fill="white" stroke="white"/>
</g>
</svg>
