<svg width="29" height="28" viewBox="0 0 29 28" fill="none" xmlns="http://www.w3.org/2000/svg">
<path d="M28.417 23.537H25.4418V11.5752C25.4418 11.3323 25.2597 11.1501 25.0168 11.1501H21.4039C21.161 11.1501 20.9788 11.3323 20.9788 11.5752V23.537H16.6373V11.5752C16.6373 11.3323 16.4551 11.1501 16.2122 11.1501H12.5993C12.3564 11.1501 12.1743 11.3323 12.1743 11.5752V23.537H7.8632V11.5752C7.8632 11.3323 7.68107 11.1501 7.43817 11.1501H3.82528C3.58237 11.1501 3.40025 11.3323 3.40025 11.5752V23.537H0.425029C0.182122 23.537 0 23.7191 0 23.962V27.5749C0 27.8178 0.182128 27.9999 0.425029 27.9999H28.4169C28.6598 27.9999 28.8419 27.8178 28.8419 27.5749V23.962C28.8419 23.7191 28.6598 23.537 28.4169 23.537H28.417Z" fill="#0971AA"/>
<path d="M28.5705 4.926L14.7871 0.0682977C14.5744 -0.0227659 14.3318 -0.0227659 14.0888 0.0682977L0.305417 4.926C0.12329 4.98678 0.0322266 5.13862 0.0322266 5.32074V9.05497C0.0322266 9.29787 0.214354 9.47999 0.457255 9.47999H28.4491C28.692 9.47999 28.8742 9.29787 28.8742 9.05497L28.8737 5.32074C28.8435 5.13862 28.7221 4.98677 28.5703 4.926H28.5705Z" fill="#0971AA"/>
</svg>
