<svg width="100px" height="100px" viewBox="0 0 38 38" fill="none" xmlns="http://www.w3.org/2000/svg">
<rect width="38" height="38" rx="19" fill="#E7F4F9"/>
<path d="M27.2384 24.4498H25.5383V17.6145C25.5383 17.4757 25.4342 17.3716 25.2954 17.3716H23.2309C23.0921 17.3716 22.988 17.4757 22.988 17.6145V24.4498H20.5071V17.6145C20.5071 17.4757 20.403 17.3716 20.2642 17.3716H18.1997C18.0609 17.3716 17.9568 17.4757 17.9568 17.6145V24.4498H15.4933V17.6145C15.4933 17.4757 15.3892 17.3716 15.2504 17.3716H13.1859C13.0471 17.3716 12.943 17.4757 12.943 17.6145V24.4498H11.2429C11.1041 24.4498 11 24.5539 11 24.6927V26.7572C11 26.896 11.1041 27.0001 11.2429 27.0001H27.2383C27.3771 27.0001 27.4812 26.896 27.4812 26.7572V24.6927C27.4812 24.5539 27.3771 24.4498 27.2383 24.4498H27.2384Z" fill="#0971AA"/>
<path d="M27.3262 13.8149L19.4499 11.039C19.3284 10.987 19.1898 10.987 19.051 11.039L11.1747 13.8149C11.0706 13.8496 11.0186 13.9364 11.0186 14.0404V16.1743C11.0186 16.3131 11.1226 16.4172 11.2614 16.4172H27.2569C27.3957 16.4172 27.4998 16.3131 27.4998 16.1743L27.4995 14.0404C27.4822 13.9364 27.4129 13.8496 27.3261 13.8149H27.3262Z" fill="#0971AA"/>
</svg>
