<svg width="25" height="22" viewBox="0 0 25 22" fill="none" xmlns="http://www.w3.org/2000/svg">
<g id="Group 427321047">
<path id="Vector" d="M17.9134 11.6546C17.3798 11.6546 16.9431 11.2181 16.9431 10.6843C16.9431 10.1507 17.3796 9.71394 17.9134 9.71394C19.496 9.71394 20.7756 8.42848 20.7697 6.85179C20.7635 5.2751 19.4842 3.98964 17.9075 3.99554C17.6649 3.99554 17.4223 4.02578 17.192 4.08648C16.6705 4.21993 16.143 3.91073 16.0095 3.38918C15.8761 2.86763 16.1853 2.34016 16.7068 2.2067C19.2719 1.53966 21.8976 3.07385 22.5646 5.64498C23.2316 8.21 21.6974 10.8357 19.1263 11.5027C18.7259 11.6 18.3196 11.6546 17.9134 11.6546L17.9134 11.6546Z" fill="white"/>
<path id="Vector_2" d="M8.86548 11.6548C5.64544 11.6548 3.03809 9.04727 3.03809 5.8274C3.03809 2.60752 5.64561 0 8.86548 0C12.0855 0 14.6929 2.60752 14.6929 5.8274C14.6867 9.04743 12.0792 11.6548 8.86548 11.6548ZM8.86548 1.93994C6.71882 1.93994 4.9784 3.68036 4.9784 5.82702C4.9784 7.97367 6.71882 9.7141 8.86548 9.7141C11.0121 9.7141 12.7526 7.97367 12.7526 5.82702C12.7526 3.68036 11.0121 1.93994 8.86548 1.93994Z" fill="white"/>
<path id="Vector_3" d="M16.7608 22C16.2272 22 15.7904 21.5635 15.7904 21.0297V19.4409C15.7904 17.1851 13.9591 15.3599 11.7094 15.3599H6.02171C3.76591 15.3599 1.9407 17.1912 1.9407 19.4409V21.0297C1.9407 21.5633 1.50417 22 0.970348 22C0.436743 22 0 21.5635 0 21.0297V19.4409C0.0061333 16.1179 2.69848 13.4197 6.02123 13.4197H11.7089C15.032 13.4258 17.7302 16.1182 17.7302 19.4409V21.0297C17.7304 21.5635 17.2938 22 16.7602 22H16.7608Z" fill="white"/>
<path id="Vector_4" d="M23.2248 21.9999C22.6912 21.9999 22.2545 21.5634 22.2545 21.0296V19.4408C22.2545 17.185 20.4232 15.3598 18.1735 15.3598C17.6399 15.3598 17.2031 14.9232 17.2031 14.3894C17.2031 13.8558 17.6397 13.4191 18.1735 13.4191C21.4965 13.4252 24.1947 16.1175 24.1947 19.4403V21.0291C24.1949 21.5631 23.7582 21.9996 23.2246 21.9996L23.2248 21.9999Z" fill="white"/>
</g>
</svg>
