<svg width="45" height="46" viewBox="0 0 45 46" fill="none" xmlns="http://www.w3.org/2000/svg">
<ellipse cx="22.5" cy="22.6822" rx="22.5" ry="22.6822" fill="#0971AA"/>
<g clip-path="url(#clip0_164_19808)">
<path d="M27.8317 34.3841C28.4689 33.8642 28.6282 32.9227 28.3424 31.9391C28.1925 31.4145 27.9161 30.8806 27.5178 30.3934C27.4382 30.2951 27.3585 30.2061 27.2742 30.1171C26.5293 29.3302 25.6063 28.8993 24.8004 28.8993C24.3741 28.8993 23.9852 29.0211 23.6713 29.274L23.5308 29.3864C24.6224 29.5363 26.3465 30.9602 27.1524 32.4122L27.1618 32.4262C27.5975 33.2178 27.738 33.9532 27.5787 34.5855L27.8317 34.3841Z" fill="white"/>
<path d="M26.393 35.541L26.3887 35.5451L26.393 35.541Z" fill="#616E7D"/>
<path d="M16.5074 20.4684C17.4163 19.7283 17.3554 18.1265 16.4137 16.7681C16.3434 16.6651 16.2684 16.5667 16.1888 16.4684C15.5516 15.6862 14.7411 15.1897 13.9774 15.0304C13.8041 14.993 13.6307 14.9695 13.462 14.9695C13.1247 14.9695 12.8108 15.0492 12.5391 15.2084C12.8764 15.2693 13.2231 15.4473 13.5604 15.6909C14.221 16.1733 14.8488 16.9227 15.2939 17.6019C15.5938 18.0609 16.4605 19.5035 16.3387 20.5995L16.5074 20.4684Z" fill="white"/>
<path d="M26.3933 35.5363C26.4636 35.4942 26.5339 35.4426 26.6042 35.3817C26.6557 35.3396 26.7026 35.2974 26.7494 35.2553L26.7541 35.2459C26.8103 35.2084 26.8712 35.1663 26.9228 35.1241C26.9696 35.0867 27.0118 35.0492 27.054 35.007C27.5178 34.2764 27.3304 33.3677 26.8431 32.5105C25.9951 31.0258 24.2288 29.6909 23.348 29.6909C23.2121 29.6909 23.095 29.7237 23.006 29.7892L22.7108 30.0281L22.5375 30.1686L22.3266 30.3419C22.1392 30.4965 21.9237 30.5714 21.7316 30.5714C21.5723 30.5714 21.4365 30.5199 21.3474 30.4075L20.8368 29.7799C20.4385 28.9274 19.553 27.5972 18.4098 26.192C17.2667 24.7869 16.1422 23.6487 15.3926 23.0867L14.896 22.4731C14.6992 22.2295 14.8163 21.808 15.163 21.5269L15.2239 21.4754L15.3739 21.3536L15.6456 21.1335L15.8986 20.9274L15.9314 20.8993C16.4327 19.7611 14.8679 17.0398 13.4014 15.9532C13.0125 15.6675 12.633 15.4895 12.2957 15.4895C12.2207 15.4895 12.1505 15.4988 12.0802 15.5176L11.8272 15.7237L11.7288 15.8033L11.4196 16.0562L11.3774 16.0937L11.2088 16.2295L11.101 16.3185L10.8667 16.5105L10.8761 16.5246C8.84743 18.6276 10.4404 24.2342 14.5774 29.3209C17.9273 33.4379 21.9471 35.9906 24.6692 35.9906C25.3158 35.9906 25.8874 35.8454 26.3606 35.5457L26.3933 35.5363Z" fill="white"/>
<path d="M22.008 19.5972C21.905 19.7658 21.7691 19.9531 21.5864 20.1592C21.4037 20.3653 21.1694 20.5902 20.8742 20.8384L19.3984 22.1218C19.3094 22.1967 19.2391 22.267 19.1829 22.3279C19.1267 22.3887 19.0845 22.4543 19.047 22.5199C19.0095 22.5855 18.9861 22.6604 18.9767 22.7447C18.9627 22.829 18.958 22.9274 18.958 23.0445C18.958 23.1709 18.9674 23.2693 18.9861 23.3489C19.0049 23.4286 19.0377 23.4848 19.0798 23.5269C19.122 23.5691 19.1829 23.5972 19.2532 23.6112C19.3235 23.6253 19.4078 23.6346 19.5015 23.6346H24.4022C24.4443 23.6346 24.4865 23.6253 24.5193 23.6065C24.5568 23.5878 24.5849 23.555 24.6036 23.5082C24.627 23.4613 24.6411 23.4005 24.6552 23.3302C24.6645 23.2553 24.6739 23.1709 24.6739 23.0679C24.6739 22.9695 24.6692 22.8805 24.6552 22.8103C24.6411 22.7354 24.6224 22.6791 24.5943 22.6323C24.5661 22.5855 24.538 22.5527 24.5005 22.5339C24.4631 22.5152 24.4209 22.5012 24.3787 22.5012H21.0195L22.0127 21.6721C22.514 21.2693 22.917 20.918 23.2168 20.6136C23.5214 20.3091 23.7556 20.0328 23.9196 19.7798C24.0883 19.5269 24.196 19.2927 24.2476 19.0773C24.2991 18.8618 24.3272 18.6417 24.3272 18.4168C24.3272 18.1592 24.271 17.9204 24.1679 17.7002C24.0601 17.4754 23.8962 17.2834 23.676 17.1241C23.4558 16.9602 23.1793 16.8337 22.8467 16.7447C22.514 16.6557 22.1299 16.6089 21.6848 16.6089C21.4037 16.6089 21.1319 16.6323 20.8742 16.6745C20.6166 16.7166 20.3776 16.7681 20.1621 16.8337C19.9466 16.8946 19.7639 16.9602 19.6186 17.0257C19.4734 17.0913 19.3703 17.1475 19.3141 17.1897C19.2579 17.2318 19.2204 17.2693 19.197 17.2974C19.1735 17.3255 19.1595 17.363 19.1454 17.4051C19.1314 17.4473 19.122 17.4941 19.1173 17.5503C19.1126 17.6065 19.1079 17.6721 19.1079 17.7564C19.1079 17.8782 19.1126 17.9813 19.1267 18.0656C19.136 18.1499 19.1548 18.2154 19.1688 18.267C19.1876 18.3185 19.211 18.3513 19.2391 18.3747C19.2672 18.3981 19.3 18.4075 19.3422 18.4075C19.3984 18.4075 19.4781 18.3794 19.5811 18.3232C19.6842 18.267 19.8107 18.2061 19.9606 18.1405C20.1106 18.0749 20.2886 18.014 20.4854 17.9625C20.6868 17.911 20.9164 17.8829 21.1741 17.8829C21.3615 17.8829 21.5208 17.9063 21.6567 17.9485C21.7925 17.9906 21.905 18.0562 21.9987 18.1311C22.0877 18.2108 22.158 18.2998 22.2001 18.4075C22.247 18.5105 22.2704 18.6229 22.2704 18.74C22.2704 18.8665 22.2517 19.0023 22.2142 19.1475C22.1814 19.274 22.1111 19.4286 22.008 19.5972Z" fill="white"/>
<path d="M29.1292 23.5457C29.1526 23.5738 29.1995 23.5925 29.2604 23.6112C29.326 23.63 29.4103 23.644 29.5181 23.6534C29.6258 23.6628 29.757 23.6674 29.9163 23.6674C30.085 23.6674 30.2209 23.6628 30.3239 23.6534C30.4317 23.644 30.516 23.63 30.5816 23.6112C30.6472 23.5925 30.6941 23.5691 30.7175 23.5457L30.7597 23.452V22.2014H31.5186C31.5983 22.2014 31.6592 22.1546 31.7061 22.0609C31.7529 21.9672 31.7763 21.8267 31.7763 21.6487C31.7763 21.4473 31.7529 21.3021 31.7014 21.2131C31.6498 21.1241 31.5889 21.082 31.5186 21.082H30.7597V16.9227C30.7597 16.8852 30.7362 16.8478 30.6941 16.8197C30.6519 16.7916 30.5816 16.7681 30.4879 16.7494C30.3942 16.7307 30.2677 16.7166 30.1084 16.7073C29.9491 16.6979 29.7617 16.6932 29.5368 16.6932C29.3307 16.6932 29.1573 16.6979 29.0121 16.7026C28.8668 16.7119 28.7497 16.7213 28.6513 16.7354C28.5576 16.7541 28.4827 16.7728 28.4311 16.7963C28.3796 16.8197 28.3421 16.8478 28.3187 16.8806L25.6716 20.6651C25.6294 20.7307 25.5919 20.7963 25.5638 20.8571C25.5357 20.918 25.5123 20.9836 25.4982 21.0492C25.4842 21.1148 25.4701 21.1944 25.4654 21.274C25.4607 21.3583 25.4561 21.4567 25.4561 21.5691C25.4561 21.7096 25.4654 21.8173 25.4795 21.9016C25.4935 21.9859 25.517 22.0515 25.5544 22.0937C25.5872 22.1405 25.6294 22.1686 25.6763 22.178C25.7231 22.192 25.7793 22.1967 25.8402 22.1967H29.1011V23.4473L29.1292 23.5457ZM26.8335 21.082L29.0777 17.9063H29.0917V21.082H26.8335Z" fill="white"/>
</g>
<defs>
<clipPath id="clip0_164_19808">
<rect width="25" height="26" fill="white" transform="translate(10 10)"/>
</clipPath>
</defs>
</svg>
