<svg xmlns="http://www.w3.org/2000/svg" width="14" height="14" viewBox="0 0 14 14" fill="none">
  <path opacity="0.4" d="M13.6668 6.99992C13.6668 10.6766 10.6762 13.6666 7.00016 13.6666C3.32416 13.6666 0.333496 10.6766 0.333496 6.99992C0.333496 3.32392 3.32416 0.333252 7.00016 0.333252C10.6762 0.333252 13.6668 3.32392 13.6668 6.99992Z" fill="#130F26"/>
  <path d="M9.81405 6.03828C9.81405 6.16561 9.76538 6.29361 9.66805 6.39095L7.35471 8.71561C7.26071 8.80961 7.13338 8.86228 7.00005 8.86228C6.86738 8.86228 6.74005 8.80961 6.64605 8.71561L4.33138 6.39095C4.13671 6.19561 4.13671 5.87961 4.33271 5.68428C4.52871 5.48961 4.84538 5.49028 5.04005 5.68561L7.00005 7.65428L8.96005 5.68561C9.15471 5.49028 9.47071 5.48961 9.66671 5.68428C9.76538 5.78161 9.81405 5.91028 9.81405 6.03828Z" fill="#130F26"/>
</svg>