<svg width="51" height="34" viewBox="0 0 51 34" fill="none" xmlns="http://www.w3.org/2000/svg">
<g id="Payment Method/Mastercard">
<rect x="0.2875" y="0.2875" width="50.425" height="33.425" rx="4.3125" fill="white"/>
<g id="Vector">
<path d="M42.5 16.8814C42.5 22.6892 37.8013 27.3879 31.9936 27.3879C29.5421 27.3879 27.2949 26.5415 25.5146 25.1407C27.9661 23.2145 29.5129 20.2377 29.5129 16.8814C29.5129 13.5252 27.9369 10.5484 25.5146 8.62221C27.2949 7.22136 29.5421 6.375 31.9936 6.375C37.8013 6.375 42.5 11.1029 42.5 16.8814Z" fill="#F79E1B"/>
<path d="M25.5146 8.62221C25.5146 8.62222 25.5146 8.62221 25.5146 8.62221C27.9369 10.5484 29.5129 13.5252 29.5129 16.8814C29.5129 20.2377 27.9661 23.2145 25.5146 25.1407L25.4853 25.1407C23.063 23.2437 21.4871 20.2377 21.4871 16.8815C21.4871 13.5253 23.0631 10.5485 25.4854 8.62227C25.4854 8.62225 25.4854 8.6223 25.4854 8.62227L25.5146 8.62221Z" fill="#FF5F00"/>
<path d="M21.4871 16.8815C21.4871 13.5253 23.0631 10.5485 25.4854 8.62227C23.7051 7.22142 21.4579 6.37505 19.0064 6.37505C13.1987 6.37505 8.5 11.0738 8.5 16.8815C8.5 22.6892 13.1987 27.3879 19.0064 27.3879C21.4579 27.3879 23.7051 26.5415 25.4853 25.1407C23.063 23.2437 21.4871 20.2377 21.4871 16.8815Z" fill="#EB001B"/>
</g>
<rect x="0.2875" y="0.2875" width="50.425" height="33.425" rx="4.3125" stroke="#CCCCCC" stroke-width="0.575"/>
</g>
</svg>
