<svg width="22" height="22" viewBox="0 0 22 22" fill="none" xmlns="http://www.w3.org/2000/svg">
<g id="Category">
<path id="Stroke 1" fill-rule="evenodd" clip-rule="evenodd" d="M1.25 5.04167C1.25 2.19769 1.28045 1.25 5.04167 1.25C8.80288 1.25 8.83333 2.19769 8.83333 5.04167C8.83333 7.88565 8.84533 8.83333 5.04167 8.83333C1.238 8.83333 1.25 7.88565 1.25 5.04167Z" stroke="white" stroke-width="1.5" stroke-linecap="round" stroke-linejoin="round"/>
<path id="Stroke 3" fill-rule="evenodd" clip-rule="evenodd" d="M13.167 5.04167C13.167 2.19769 13.1974 1.25 16.9587 1.25C20.7199 1.25 20.7503 2.19769 20.7503 5.04167C20.7503 7.88565 20.7623 8.83333 16.9587 8.83333C13.155 8.83333 13.167 7.88565 13.167 5.04167Z" stroke="white" stroke-width="1.5" stroke-linecap="round" stroke-linejoin="round"/>
<path id="Stroke 5" fill-rule="evenodd" clip-rule="evenodd" d="M1.25 16.9583C1.25 14.1143 1.28045 13.1666 5.04167 13.1666C8.80288 13.1666 8.83333 14.1143 8.83333 16.9583C8.83333 19.8023 8.84533 20.75 5.04167 20.75C1.238 20.75 1.25 19.8023 1.25 16.9583Z" stroke="white" stroke-width="1.5" stroke-linecap="round" stroke-linejoin="round"/>
<path id="Stroke 7" fill-rule="evenodd" clip-rule="evenodd" d="M13.167 16.9583C13.167 14.1143 13.1974 13.1666 16.9587 13.1666C20.7199 13.1666 20.7503 14.1143 20.7503 16.9583C20.7503 19.8023 20.7623 20.75 16.9587 20.75C13.155 20.75 13.167 19.8023 13.167 16.9583Z" stroke="white" stroke-width="1.5" stroke-linecap="round" stroke-linejoin="round"/>
</g>
</svg>
