<svg width="64" height="60" viewBox="0 0 64 60" fill="none" xmlns="http://www.w3.org/2000/svg">
<g id="Group 427321388">
<path id="Vector" d="M32.2235 57.9996C32.0414 57.9996 31.8674 57.9128 31.7512 57.7619L2.14176 19.5395C1.93435 19.2721 1.95705 18.8773 2.19339 18.6396L18.5295 2.17854C18.6435 2.06349 18.7944 2 18.9501 2H45.4979C45.6537 2 45.8046 2.06349 45.9186 2.17854L62.2547 18.6396C62.4906 18.8773 62.5137 19.2721 62.3063 19.5395L32.6969 57.7619C32.5807 57.9132 32.4067 57.9996 32.2246 57.9996H32.2235ZM3.45491 19.1747L32.2235 56.3119L60.992 19.1735L45.2541 3.31496H19.1928L3.45491 19.1747Z" fill="#0971AA" stroke="#0971AA" stroke-width="3"/>
<path id="Vector_2" d="M32.224 58C31.969 58 31.7411 57.831 31.6498 57.5761L18.1042 19.3536C18.0441 19.1842 18.0526 18.9951 18.1269 18.8318L25.5996 2.37083C25.7015 2.14454 25.916 2.00085 26.1506 2.00085H38.297C38.532 2.00085 38.7465 2.14408 38.848 2.37083L46.3221 18.8318C46.3964 18.9951 46.4049 19.1842 46.3448 19.3536L32.798 57.5761C32.7067 57.831 32.4788 58 32.2238 58H32.224ZM19.3461 19.1506L32.224 55.4897L45.1042 19.1506L37.9141 3.31534H26.5349L19.3461 19.1506Z" fill="#0971AA" stroke="#0971AA" stroke-width="3"/>
<path id="Vector_3" d="M61.8323 19.7758H2.61334C2.27417 19.7758 2 19.4812 2 19.1179C2 18.7542 2.27463 18.4601 2.61334 18.4601H61.8323C62.1714 18.4601 62.4456 18.7546 62.4456 19.1179C62.4461 19.4817 62.1714 19.7758 61.8323 19.7758Z" fill="#0971AA" stroke="#0971AA" stroke-width="3"/>
</g>
</svg>
