<svg width="28" height="28" viewBox="0 0 28 28" fill="none" xmlns="http://www.w3.org/2000/svg">
<path id="Vector" fill-rule="evenodd" clip-rule="evenodd" d="M14 28C21.7322 28 28 21.7322 28 14C28 6.2678 21.7322 0 14 0C6.2678 0 0 6.2678 0 14C0 21.7322 6.2678 28 14 28ZM15.05 5.6C15.05 5.32152 14.9394 5.05445 14.7425 4.85754C14.5455 4.66062 14.2785 4.55 14 4.55C13.7215 4.55 13.4545 4.66062 13.2575 4.85754C13.0606 5.05445 12.95 5.32152 12.95 5.6V6.0438C10.668 6.4526 8.75 8.1676 8.75 10.5C8.75 13.1838 11.2882 15.05 14 15.05C15.9278 15.05 17.15 16.3184 17.15 17.5C17.15 18.6816 15.9278 19.95 14 19.95C12.0722 19.95 10.85 18.6816 10.85 17.5C10.85 17.2215 10.7394 16.9545 10.5425 16.7575C10.3455 16.5606 10.0785 16.45 9.8 16.45C9.52152 16.45 9.25445 16.5606 9.05754 16.7575C8.86063 16.9545 8.75 17.2215 8.75 17.5C8.75 19.8324 10.668 21.5474 12.95 21.9562V22.4C12.95 22.6785 13.0606 22.9455 13.2575 23.1425C13.4545 23.3394 13.7215 23.45 14 23.45C14.2785 23.45 14.5455 23.3394 14.7425 23.1425C14.9394 22.9455 15.05 22.6785 15.05 22.4V21.9562C17.332 21.5474 19.25 19.8324 19.25 17.5C19.25 14.8162 16.7118 12.95 14 12.95C12.0722 12.95 10.85 11.6816 10.85 10.5C10.85 9.3184 12.0722 8.05 14 8.05C15.9278 8.05 17.15 9.3184 17.15 10.5C17.15 10.7785 17.2606 11.0455 17.4575 11.2425C17.6545 11.4394 17.9215 11.55 18.2 11.55C18.4785 11.55 18.7455 11.4394 18.9425 11.2425C19.1394 11.0455 19.25 10.7785 19.25 10.5C19.25 8.1676 17.332 6.4526 15.05 6.0438V5.6Z" fill="#0971AA"/>
</svg>
