<svg width="28" height="24" viewBox="0 0 28 24" fill="none" xmlns="http://www.w3.org/2000/svg">
<g id="Group 427321113">
<rect id="Rectangle 100" width="28" height="24" rx="6" fill="#F2F2F2"/>
<path id="Vector" d="M8 10C6.9 10 6 10.9 6 12C6 13.1 6.9 14 8 14C9.1 14 10 13.1 10 12C10 10.9 9.1 10 8 10ZM20 10C18.9 10 18 10.9 18 12C18 13.1 18.9 14 20 14C21.1 14 22 13.1 22 12C22 10.9 21.1 10 20 10ZM14 10C12.9 10 12 10.9 12 12C12 13.1 12.9 14 14 14C15.1 14 16 13.1 16 12C16 10.9 15.1 10 14 10Z" fill="#04477B"/>
</g>
</svg>
