<svg xmlns="http://www.w3.org/2000/svg" width="45" height="46" viewBox="0 0 45 46" fill="none">
  <ellipse cx="22.5" cy="22.6822" rx="22.5" ry="22.6822" fill="#0971AA"/>
  <path d="M30.5143 15H14.0571C12.9257 15 12.0103 15.9 12.0103 17L12 29C12 30.1 12.9257 31 14.0571 31H30.5143C31.6457 31 32.5714 30.1 32.5714 29V17C32.5714 15.9 31.6457 15 30.5143 15ZM30.1029 19.25L22.8309 23.67C22.5017 23.87 22.0697 23.87 21.7406 23.67L14.4686 19.25C14.3654 19.1937 14.2751 19.1177 14.2031 19.0265C14.1311 18.9352 14.0788 18.8308 14.0495 18.7194C14.0202 18.608 14.0145 18.4919 14.0326 18.3783C14.0508 18.2647 14.0925 18.1558 14.1551 18.0583C14.2178 17.9608 14.3002 17.8767 14.3973 17.811C14.4944 17.7453 14.6042 17.6995 14.7201 17.6763C14.8359 17.6531 14.9554 17.653 15.0713 17.6759C15.1872 17.6989 15.297 17.7445 15.3943 17.81L22.2857 22L29.1771 17.81C29.2744 17.7445 29.3843 17.6989 29.5002 17.6759C29.6161 17.653 29.7355 17.6531 29.8514 17.6763C29.9672 17.6995 30.077 17.7453 30.1741 17.811C30.2712 17.8767 30.3536 17.9608 30.4163 18.0583C30.479 18.1558 30.5207 18.2647 30.5388 18.3783C30.557 18.4919 30.5512 18.608 30.5219 18.7194C30.4926 18.8308 30.4404 18.9352 30.3683 19.0265C30.2963 19.1177 30.206 19.1937 30.1029 19.25Z" fill="white"/>
</svg>