<svg width="52" height="57" viewBox="0 0 52 57" fill="none" xmlns="http://www.w3.org/2000/svg">
<g id="Group 427321386">
<path id="Vector" d="M42.1974 42.1957V46.0132C42.1974 50.974 38.1072 54.9955 33.0616 54.9955H11.1358C6.0902 54.9955 2 50.974 2 46.0132V10.9823C2 6.02148 6.0902 2 11.1358 2H33.0616C38.1072 2 42.1974 6.02148 42.1974 10.9823V11.1062" stroke="#0971AA" stroke-width="4" stroke-miterlimit="10" stroke-linecap="round" stroke-linejoin="round"/>
<path id="Vector_2" d="M11.1367 15.0243L14.5626 18.3926L20.2725 12.7787M11.1367 28.4977L14.5626 31.866L20.2725 26.2521M11.1367 41.9711L14.5626 45.3395L20.2725 39.7255" stroke="#0971AA" stroke-width="4" stroke-miterlimit="10" stroke-linecap="round" stroke-linejoin="round"/>
<path id="Vector_3" d="M40.94 35.4967C45.9437 35.4967 50 31.5086 50 26.5889C50 21.6692 45.9437 17.681 40.94 17.681C35.9362 17.681 31.8799 21.6692 31.8799 26.5889C31.8799 31.5086 35.9362 35.4967 40.94 35.4967Z" stroke="#0971AA" stroke-width="4" stroke-miterlimit="10" stroke-linecap="round" stroke-linejoin="round"/>
</g>
</svg>
