<svg width="439" height="312" viewBox="0 0 439 312" fill="none" xmlns="http://www.w3.org/2000/svg">
<path d="M414.228 95.8512C379.871 46.4762 285.067 49.9415 269.204 50.3099C253.341 50.6801 239.855 46.2902 229.13 20.7702C218.404 -4.74804 191.775 -2.90049 156.333 5.97756C120.891 14.8539 4.9992 79.5777 0.191713 181.538C0.142585 182.558 0.10223 183.57 0.0688936 184.576C-0.741711 208.834 5.63786 231.601 17.253 250.893C22.1079 258.96 27.8804 266.42 34.4249 273.126C35.3021 274.026 36.1952 274.914 37.1023 275.788C42.4818 280.971 48.3385 285.663 54.6005 289.789C63.3663 295.571 72.9303 300.245 83.0892 303.613C90.5163 306.077 98.2609 307.842 106.246 308.83C111.61 309.495 113.924 311.395 119.482 311.335H293.503L305.102 307.788C309.28 307.723 313.389 307.477 317.428 307.061C320.7 306.724 323.927 306.273 327.102 305.715C333.092 304.664 338.905 303.231 344.525 301.447C354.719 298.209 364.28 293.818 373.105 288.461C379.248 284.733 385.036 280.536 390.433 275.937C392.149 274.472 393.826 272.968 395.463 271.426C401.559 265.68 407.093 259.395 412.011 252.677C443.538 209.604 449.677 148.723 415.618 97.8865C415.158 97.2004 414.695 96.5214 414.228 95.8512Z" fill="#FAFAFA"/>
<g style="mix-blend-mode:multiply">
<path d="M25.1678 151.655L7.25378 177.341L17.2758 177.345L17.253 250.892C22.1079 258.96 27.8803 266.42 34.4248 273.126L33.044 177.349L43.066 177.352L25.1678 151.655Z" fill="#F9F9F9"/>
</g>
<g style="mix-blend-mode:multiply">
<path d="M77.8484 68.9258L54.9847 101.706L67.7755 101.711L67.7105 302.466C75.1376 304.929 82.8822 306.694 90.8672 307.682L87.8985 101.717L100.689 101.72L77.8484 68.9258Z" fill="#F9F9F9"/>
</g>
<g style="mix-blend-mode:multiply">
<path d="M308.892 235.677L290.978 261.363L301 261.367L300.984 307.831L305.102 307.787C309.28 307.722 313.389 307.477 317.428 307.061L316.768 261.37L326.79 261.374L308.892 235.677Z" fill="#F9F9F9"/>
</g>
<g style="mix-blend-mode:multiply">
<path d="M400.543 121.695L377.681 154.476L390.472 154.479L390.433 275.937C392.149 274.472 393.826 272.968 395.463 271.426C401.559 265.679 407.093 259.395 412.011 252.676L410.595 154.486L423.385 154.49L400.543 121.695Z" fill="#F9F9F9"/>
</g>
<path d="M273.401 99.6005C272.613 99.5338 271.823 99.4812 271.032 99.4443C271.474 101.116 271.709 102.873 271.709 104.683V198.624H276.447V104.683C276.447 103.045 276.29 101.441 275.992 99.8882C275.134 99.7707 274.271 99.6742 273.401 99.6005Z" fill="#0C8AC1"/>
<path d="M184.408 102.548C169.412 97.1301 152.399 98.6776 138.302 105.991C89.3793 132.658 122.495 193.768 150.65 223.7C152.213 225.532 153.794 227.351 155.387 229.159C174.412 250.673 195.135 270.587 216.66 289.586V134.769C208.919 121.706 199.578 107.463 184.408 102.548Z" fill="#0C8AC1"/>
<g style="mix-blend-mode:multiply">
<path d="M307.341 68.9258H300.91V74.1333H295.69V80.548H300.91V85.7555H307.341V80.548H312.56V74.1333H307.341V68.9258ZM311.699 74.993V79.6847H306.479V84.8922H301.775V79.6847H296.555V74.993H301.775V69.7855H306.479V74.993H311.699Z" fill="#EBEBEB"/>
</g>
<g style="mix-blend-mode:multiply">
<path d="M179.223 64.5059H172.793V69.7134H167.573V76.128H172.793V81.3356H179.223V76.128H184.443V69.7134H179.223V64.5059ZM183.581 70.5731V75.2648H178.362V80.4723H173.658V75.2648H168.438V70.5731H173.658V65.3656H178.362V70.5731H183.581Z" fill="#EBEBEB"/>
</g>
<g style="mix-blend-mode:multiply">
<path d="M47.1366 130.591H40.7061V135.799H35.4863V142.213H40.7061V147.421H47.1366V142.213H52.3564V135.799H47.1366V130.591ZM51.4949 136.659V141.35H46.2751V146.558H41.5711V141.35H36.3513V136.659H41.5711V131.451H46.2751V136.659H51.4949Z" fill="#EBEBEB"/>
</g>
<g style="mix-blend-mode:multiply">
<path d="M341.105 98.832H332.799V105.557H326.057V113.842H332.799V120.567H341.105V113.842H347.848V105.557H341.105V98.832ZM346.734 106.67V112.73H339.991V119.455H333.914V112.73H327.171V106.67H333.914V99.9444H339.991V106.67H346.734Z" fill="#EBEBEB"/>
</g>
<g style="mix-blend-mode:multiply">
<path d="M379.264 90.2607H376.098V92.8241H373.528V95.9823H376.098V98.5458H379.264V95.9823H381.834V92.8241H379.264V90.2607ZM381.409 93.2487V95.5595H378.839V98.1229H376.523V95.5595H373.952V93.2487H376.523V90.6853H378.839V93.2487H381.409Z" fill="#EBEBEB"/>
</g>
<g style="mix-blend-mode:multiply">
<path d="M194.553 10.6865H189.545V14.7413H185.48V19.7365H189.545V23.7913H194.553V19.7365H198.618V14.7413H194.553V10.6865ZM197.946 15.4115V19.0663H193.881V23.1211H190.217V19.0663H186.152V15.4115H190.217V11.3568H193.881V15.4115H197.946Z" fill="#EBEBEB"/>
</g>
<g style="mix-blend-mode:multiply">
<path d="M56.5972 108.254H53.432V110.817H50.8616V113.976H53.432V116.539H56.5972V113.976H59.1676V110.817H56.5972V108.254ZM58.743 111.242V113.553H56.1726V116.116H53.8566V113.553H51.2862V111.242H53.8566V108.679H56.1726V111.242H58.743Z" fill="#EBEBEB"/>
</g>
<path d="M275.992 99.8883C276.291 101.441 276.447 103.045 276.447 104.684V198.624H271.709V104.684C271.709 102.873 271.474 101.117 271.032 99.4444C252.813 98.3127 239.994 104.757 229.795 115.893C228.416 117.425 227.107 119.013 225.858 120.648V120.58C222.561 124.836 219.534 129.605 216.66 134.769V285.248C218.631 284.996 220.49 284.699 222.243 284.361C231.514 275.74 241.722 266.462 251.946 256.614C252.007 256.554 252.071 256.495 252.132 256.435C252.181 256.388 252.23 256.34 252.279 256.293C253.727 254.898 255.173 253.493 256.617 252.075C256.699 251.994 256.782 251.914 256.862 251.833C256.882 251.814 256.901 251.794 256.92 251.777C286.328 222.874 314.643 189.364 319.904 153.369C323.406 126.077 302.737 102.868 275.992 99.8883Z" fill="#0C8AC1"/>
<path d="M216.66 289.585C218.318 288.022 220.017 286.434 221.748 284.822C221.903 284.678 222.059 284.534 222.215 284.388C222.224 284.38 222.233 284.371 222.243 284.36C220.49 284.699 218.631 284.996 216.66 285.248V289.585Z" fill="#0C8AC1"/>
<path d="M225.857 120.648C227.107 119.013 228.416 117.425 229.795 115.893C228.438 117.374 227.128 118.939 225.857 120.579V120.648Z" fill="#0C8AC1"/>
<path d="M238.976 157.869L229.398 192.722L228.077 183.282H208.622L205.019 205.4L196.486 156.939L189.366 185.867H150.806V188.251H191.235L196.098 168.49L205.11 219.668L210.651 185.667H226.001L228.637 204.488L239.406 165.298L249.47 190.19H264.605V187.806H251.077L238.976 157.869Z" fill="white"/>
<path d="M176.051 303.139C167.462 288.808 155.554 300.111 155.554 300.111C155.554 300.111 155.237 270.401 129.037 272.698C106.195 274.702 107.874 304.941 107.874 304.941C102.996 305.284 100.096 306.759 98.3959 308.57C97.6169 309.4 97.2414 310.37 97.187 311.333H198.616C198.597 311.024 198.521 310.71 198.378 310.403C190.891 294.56 176.049 303.138 176.049 303.138L176.051 303.139Z" fill="#5CEAD2"/>
<path d="M336.581 304.943C336.581 304.943 338.26 274.701 315.417 272.699C289.218 270.403 288.9 300.113 288.9 300.113C288.9 300.113 276.992 288.808 268.404 303.141C268.404 303.141 253.562 294.563 246.075 310.407C245.93 310.714 245.854 311.028 245.837 311.336H347.266C347.211 310.373 346.836 309.405 346.057 308.573C344.357 306.762 341.456 305.285 336.579 304.945L336.581 304.943Z" fill="#5CEAD2"/>
<path d="M281.791 177.55H264.605V177.901H281.791V177.55Z" fill="#1D1D1B"/>
<path d="M403.083 310.842H9.10132V311.831H403.083V310.842Z" fill="#49263E" fill-opacity="0.1"/>
</svg>
