<svg width="38" height="38" viewBox="0 0 38 38" fill="none" xmlns="http://www.w3.org/2000/svg">
<rect width="38" height="38" rx="19" fill="#E7F4F9"/>
<path fill-rule="evenodd" clip-rule="evenodd" d="M22 10C22.5304 10 23.0391 10.2107 23.4142 10.5858C23.7893 10.9609 24 11.4696 24 12V16H26C26.5304 16 27.0391 16.2107 27.4142 16.5858C27.7893 16.9609 28 17.4696 28 18V26C28.2652 26 28.5196 26.1054 28.7071 26.2929C28.8946 26.4804 29 26.7348 29 27C29 27.2652 28.8946 27.5196 28.7071 27.7071C28.5196 27.8946 28.2652 28 28 28H10C9.73478 28 9.48043 27.8946 9.29289 27.7071C9.10536 27.5196 9 27.2652 9 27C9 26.7348 9.10536 26.4804 9.29289 26.2929C9.48043 26.1054 9.73478 26 10 26V16C10 15.4696 10.2107 14.9609 10.5858 14.5858C10.9609 14.2107 11.4696 14 12 14H14V12C14 11.4696 14.2107 10.9609 14.5858 10.5858C14.9609 10.2107 15.4696 10 16 10H22ZM14 16H12V26H14V16ZM26 18H24V26H26V18ZM20 22H18V24H20V22ZM20 18H18V20H20V18ZM20 14H18V16H20V14Z" fill="#0971AA"/>
</svg>
