<svg width="23" height="25" viewBox="0 0 23 25" fill="none" xmlns="http://www.w3.org/2000/svg">
<g id="Setting">
<path id="Path_33946" fill-rule="evenodd" clip-rule="evenodd" d="M21.5901 7.65061L20.8844 6.426C20.2874 5.3898 18.9643 5.03233 17.9267 5.6269V5.6269C17.4328 5.91786 16.8434 6.00041 16.2885 5.85634C15.7337 5.71228 15.2589 5.35342 14.969 4.85892C14.7824 4.54461 14.6822 4.1866 14.6784 3.82112V3.82112C14.6952 3.23515 14.4741 2.66732 14.0655 2.24699C13.6569 1.82665 13.0956 1.5896 12.5094 1.58984H11.0876C10.5133 1.58984 9.96263 1.81869 9.55751 2.22576C9.15239 2.63283 8.92618 3.18455 8.92894 3.75885V3.75885C8.91192 4.94458 7.94579 5.89685 6.75994 5.89672C6.39445 5.89293 6.03645 5.79269 5.72214 5.60614V5.60614C4.68451 5.01158 3.36143 5.36904 2.7644 6.40525L2.0068 7.65061C1.4105 8.68552 1.7631 10.0078 2.79553 10.6083V10.6083C3.46663 10.9958 3.88005 11.7119 3.88005 12.4868C3.88005 13.2617 3.46663 13.9777 2.79553 14.3652V14.3652C1.76441 14.9617 1.41142 16.2808 2.0068 17.3126V17.3126L2.72289 18.5475C3.00262 19.0523 3.47196 19.4248 4.02706 19.5825C4.58216 19.7403 5.17724 19.6703 5.68062 19.3882V19.3882C6.17548 19.0994 6.76518 19.0203 7.31864 19.1684C7.87211 19.3165 8.34348 19.6796 8.62798 20.1769C8.81453 20.4912 8.91477 20.8492 8.91857 21.2147V21.2147C8.91857 22.4126 9.88966 23.3837 11.0876 23.3837H12.5094C13.7032 23.3837 14.6727 22.4189 14.6784 21.2251V21.2251C14.6756 20.649 14.9032 20.0957 15.3106 19.6883C15.718 19.2809 16.2713 19.0533 16.8474 19.0561C17.212 19.0658 17.5685 19.1656 17.8852 19.3466V19.3466C18.9201 19.943 20.2423 19.5904 20.8429 18.5579V18.5579L21.5901 17.3126C21.8794 16.8161 21.9587 16.2248 21.8107 15.6697C21.6627 15.1146 21.2994 14.6413 20.8014 14.3548V14.3548C20.3034 14.0683 19.9401 13.5951 19.7921 13.0399C19.6441 12.4848 19.7234 11.8935 20.0127 11.3971C20.2008 11.0687 20.473 10.7964 20.8014 10.6083V10.6083C21.8277 10.0081 22.1794 8.69357 21.5901 7.66099V7.66099V7.65061Z" stroke="white" stroke-width="1.8" stroke-linecap="round" stroke-linejoin="round"/>
<circle id="Ellipse_737" cx="11.8033" cy="12.4867" r="2.98887" stroke="white" stroke-width="1.8" stroke-linecap="round" stroke-linejoin="round"/>
</g>
</svg>
