<svg width="1440" height="1024" viewBox="0 0 1440 1024" fill="none" xmlns="http://www.w3.org/2000/svg">
<g clip-path="url(#clip0_647_76)">
<rect width="1440" height="1024" fill="url(#paint0_linear_647_76)"/>
<rect width="1440" height="1024" fill="url(#paint1_linear_647_76)"/>
<path d="M1440.16 0V284.904C1424.19 280.976 1409.01 267.504 1401.17 252.089C1393.25 236.463 1391.76 218.387 1386.37 201.663C1376.79 171.888 1351.9 143.297 1322.37 132.781C1286.33 119.942 1251.49 147.689 1220.92 163.949C1200.6 174.76 1178.2 182.531 1155.26 182.151C1132.33 181.771 1108.89 172.395 1094.88 153.939C1079.32 133.499 1077.08 105.245 1062.61 84.0437C1045.31 58.7039 1013.21 47.6811 982.932 47.3432C952.655 47.0054 923.041 55.5787 893.345 61.7447C863.648 67.9107 832.21 71.5427 803.55 61.5757C776.798 52.2845 753.364 28.2539 751 0.042233H1440.16V0Z" fill="white" fill-opacity="0.15"/>
<path d="M1440.16 0V199.171C1434.44 200.48 1428.92 201.409 1424.03 202.001C1372.51 208.293 1324.82 175.267 1285.29 141.058C1245.72 106.85 1205.41 68.2063 1154.19 59.5908C1086.99 48.3146 1019.8 92.3214 952.489 81.8054C907.405 74.7525 851.662 41.8107 821.011 7.64418C818.813 5.19466 816.739 2.66068 814.79 0L1440.16 0Z" fill="white" fill-opacity="0.25"/>
<path d="M790.932 1023.66C782.054 1022.31 759.793 896.344 659.031 907.059C606.156 912.682 564.23 955.133 512.704 968.188C471.896 978.513 427.209 969.01 392.091 945.762C365.653 928.268 337.999 906.237 308.405 894.925C266.512 878.912 214.262 906.664 176.513 882.463C155.271 868.85 146.097 843.07 131.826 822.255C108.709 788.551 69.1518 766.717 28.3118 765.072C17.4277 764.645 8.05621 766.125 0 769.084V1023.66H685.895H790.932Z" fill="white" fill-opacity="0.08"/>
<path d="M582.579 1023.66C573.174 1017.25 563.606 1011.1 554.07 1004.98C533.65 991.896 512.671 978.611 488.995 973.35C449.997 964.669 410.044 978.907 371.802 990.548C333.56 1002.19 290.55 1011 255.004 992.751C225.245 977.493 207.488 946.748 186.477 920.705C161.617 889.927 129.162 863.424 90.9858 851.455C64.0551 843.004 28.6406 842.971 0 853.954V1023.63H582.579V1023.66Z" fill="white" fill-opacity="0.15"/>
<path d="M643.373 160.468C646.648 169.885 657.781 176.5 667.182 173.091C670.847 171.758 673.902 169.176 676.498 166.273C681.47 160.704 684.949 153.819 686.476 146.512C689.395 132.555 679.892 111.089 663.431 121.974C650.857 130.311 637.654 144.065 643.373 160.468Z" fill="white" fill-opacity="0.4"/>
<path d="M1357.64 813.634C1358.02 813.267 1358.39 812.886 1358.74 812.505C1366.5 804.351 1374.63 790.708 1366.84 780.297C1364.74 777.49 1360.87 775.444 1357.13 776.135C1351.6 777.165 1348.58 781.722 1344.23 784.586C1335.55 790.313 1326.18 783.231 1316.85 785.404C1309.34 787.153 1311.57 794.645 1307.83 798.947C1303.48 803.956 1294.34 799.949 1289.86 804.675C1288.14 806.495 1289.29 809.26 1290.74 811.263C1298.38 821.802 1313.1 827.501 1327.1 826.965C1338.84 826.514 1349.82 821.294 1357.64 813.634Z" fill="white" fill-opacity="0.15"/>
<g style="mix-blend-mode:color-dodge">
<path d="M710.692 760.007C709.633 758.79 709.813 756.94 711.07 755.939L749.733 725.188C750.102 724.896 750.622 724.952 750.934 725.302C751.236 725.651 751.208 726.179 750.867 726.5L714.784 760.234C713.603 761.338 711.75 761.234 710.692 760.017V760.007Z" fill="url(#paint2_linear_647_76)"/>
</g>
<g style="mix-blend-mode:color-dodge">
<path d="M764.525 168.706C763.725 167.779 763.853 166.372 764.812 165.605L794.27 142.143C794.542 141.919 794.957 141.967 795.181 142.223C795.421 142.495 795.389 142.894 795.133 143.134L767.625 168.882C766.73 169.729 765.308 169.649 764.509 168.722L764.525 168.706Z" fill="url(#paint3_linear_647_76)"/>
</g>
<g style="mix-blend-mode:color-dodge">
<path d="M1116.38 842.444C1115.8 841.769 1115.89 840.745 1116.59 840.186L1138.04 823.104C1138.23 822.941 1138.54 822.976 1138.7 823.162C1138.87 823.36 1138.85 823.651 1138.67 823.826L1118.64 842.572C1117.99 843.188 1116.95 843.13 1116.37 842.455L1116.38 842.444Z" fill="url(#paint4_linear_647_76)"/>
</g>
<g style="mix-blend-mode:color-dodge">
<path d="M1345.49 218.086C1344.7 216.985 1344.89 215.356 1345.89 214.495L1376.58 188.154C1376.87 187.906 1377.27 187.964 1377.5 188.278C1377.73 188.593 1377.7 189.064 1377.42 189.337L1348.65 218.367C1347.71 219.31 1346.27 219.186 1345.49 218.086Z" fill="url(#paint5_linear_647_76)"/>
</g>
</g>
<defs>
<linearGradient id="paint0_linear_647_76" x1="955" y1="-28" x2="1141" y2="1016" gradientUnits="userSpaceOnUse">
<stop stop-color="#5CEAD2"/>
<stop offset="1" stop-color="#065A93"/>
</linearGradient>
<linearGradient id="paint1_linear_647_76" x1="797.929" y1="-106.193" x2="1065.16" y2="1033.78" gradientUnits="userSpaceOnUse">
<stop stop-color="#5CEAD2"/>
<stop offset="1" stop-color="#065A93"/>
</linearGradient>
<linearGradient id="paint2_linear_647_76" x1="758.435" y1="721.836" x2="706.826" y2="763.034" gradientUnits="userSpaceOnUse">
<stop offset="0.21" stop-color="#76CFF1" stop-opacity="0"/>
<stop offset="0.24" stop-color="#62ADF2" stop-opacity="0.22"/>
<stop offset="0.26" stop-color="#518FF4" stop-opacity="0.4"/>
<stop offset="0.29" stop-color="#4274F6" stop-opacity="0.56"/>
<stop offset="0.32" stop-color="#355EF7" stop-opacity="0.7"/>
<stop offset="0.35" stop-color="#2B4BF8" stop-opacity="0.81"/>
<stop offset="0.38" stop-color="#233DF9" stop-opacity="0.89"/>
<stop offset="0.42" stop-color="#1D33F9" stop-opacity="0.95"/>
<stop offset="0.46" stop-color="#1A2DF9" stop-opacity="0.99"/>
<stop offset="0.52" stop-color="#192CFA"/>
<stop offset="0.58" stop-color="#1D30F9"/>
<stop offset="0.64" stop-color="#2B3CF8"/>
<stop offset="0.71" stop-color="#4251F6"/>
<stop offset="0.78" stop-color="#616EF3"/>
<stop offset="0.85" stop-color="#8A94EF"/>
<stop offset="0.93" stop-color="#BBC1EA"/>
<stop offset="1" stop-color="#F5F6E5"/>
</linearGradient>
<linearGradient id="paint3_linear_647_76" x1="800.9" y1="139.57" x2="761.518" y2="170.958" gradientUnits="userSpaceOnUse">
<stop stop-color="#6B2EDB" stop-opacity="0"/>
<stop offset="0.32" stop-color="#2D2CF7" stop-opacity="0.6"/>
<stop offset="0.55" stop-color="#136DFC" stop-opacity="0.85"/>
<stop offset="0.97" stop-color="#C9EBFF"/>
</linearGradient>
<linearGradient id="paint4_linear_647_76" x1="1142.85" y1="821.23" x2="1114.19" y2="844.08" gradientUnits="userSpaceOnUse">
<stop stop-color="#6B2EDB" stop-opacity="0"/>
<stop offset="0.32" stop-color="#2D2CF7" stop-opacity="0.6"/>
<stop offset="0.55" stop-color="#136DFC" stop-opacity="0.85"/>
<stop offset="0.97" stop-color="#C9EBFF"/>
</linearGradient>
<linearGradient id="paint5_linear_647_76" x1="1384.57" y1="186.773" x2="1341.33" y2="219.263" gradientUnits="userSpaceOnUse">
<stop stop-color="#6B2EDB" stop-opacity="0"/>
<stop offset="0.32" stop-color="#2D2CF7" stop-opacity="0.6"/>
<stop offset="0.55" stop-color="#136DFC" stop-opacity="0.85"/>
<stop offset="0.97" stop-color="#C9EBFF"/>
</linearGradient>
<clipPath id="clip0_647_76">
<rect width="1440" height="1024" fill="white"/>
</clipPath>
</defs>
</svg>
