<svg width="440" height="86" viewBox="0 0 440 86" fill="none" xmlns="http://www.w3.org/2000/svg">
<path d="M388 33.5C389.381 33.5 390.5 32.3807 390.5 31C390.5 29.6193 389.381 28.5 388 28.5V33.5ZM28 33.5H388V28.5H28V33.5Z" fill="#E0E0E0"/>
<circle cx="412" cy="30" r="28" fill="#E2E2E2"/>
<path d="M405.912 34.872V33.192L414.504 22.2H417.096L408.576 33.192L407.352 32.808H420.768V34.872H405.912ZM415.248 39V34.872L415.32 32.808V29.16H417.576V39H415.248Z" fill="#9E9E9E"/>
<path d="M400.455 83.14C399.699 83.14 398.966 83.0327 398.257 82.818C397.557 82.6033 397.001 82.3187 396.591 81.964L397.221 80.55C397.622 80.8673 398.112 81.1287 398.691 81.334C399.279 81.53 399.867 81.628 400.455 81.628C401.183 81.628 401.724 81.5113 402.079 81.278C402.443 81.0447 402.625 80.7367 402.625 80.354C402.625 80.074 402.522 79.8453 402.317 79.668C402.121 79.4813 401.869 79.3367 401.561 79.234C401.253 79.1313 400.833 79.0147 400.301 78.884C399.554 78.7067 398.947 78.5293 398.481 78.352C398.023 78.1747 397.627 77.8993 397.291 77.526C396.964 77.1433 396.801 76.63 396.801 75.986C396.801 75.4447 396.945 74.9547 397.235 74.516C397.533 74.068 397.977 73.7133 398.565 73.452C399.162 73.1907 399.89 73.06 400.749 73.06C401.346 73.06 401.934 73.1347 402.513 73.284C403.091 73.4333 403.591 73.648 404.011 73.928L403.437 75.342C403.007 75.09 402.559 74.8987 402.093 74.768C401.626 74.6373 401.173 74.572 400.735 74.572C400.016 74.572 399.479 74.6933 399.125 74.936C398.779 75.1787 398.607 75.5007 398.607 75.902C398.607 76.182 398.705 76.4107 398.901 76.588C399.106 76.7653 399.363 76.9053 399.671 77.008C399.979 77.1107 400.399 77.2273 400.931 77.358C401.659 77.526 402.256 77.7033 402.723 77.89C403.189 78.0673 403.586 78.3427 403.913 78.716C404.249 79.0893 404.417 79.5933 404.417 80.228C404.417 80.7693 404.267 81.2593 403.969 81.698C403.679 82.1367 403.236 82.4867 402.639 82.748C402.041 83.0093 401.313 83.14 400.455 83.14ZM410.547 82.594C410.342 82.762 410.09 82.888 409.791 82.972C409.502 83.056 409.194 83.098 408.867 83.098C408.046 83.098 407.411 82.8833 406.963 82.454C406.515 82.0247 406.291 81.3993 406.291 80.578V76.98H405.059V75.58H406.291V73.872H408.041V75.58H410.043V76.98H408.041V80.536C408.041 80.9 408.13 81.18 408.307 81.376C408.485 81.5627 408.741 81.656 409.077 81.656C409.469 81.656 409.796 81.5533 410.057 81.348L410.547 82.594ZM418.769 79.304C418.769 79.4253 418.759 79.598 418.741 79.822H412.875C412.977 80.3727 413.243 80.8113 413.673 81.138C414.111 81.4553 414.653 81.614 415.297 81.614C416.118 81.614 416.795 81.3433 417.327 80.802L418.265 81.88C417.929 82.2813 417.504 82.5847 416.991 82.79C416.477 82.9953 415.899 83.098 415.255 83.098C414.433 83.098 413.71 82.9347 413.085 82.608C412.459 82.2813 411.974 81.8287 411.629 81.25C411.293 80.662 411.125 79.9993 411.125 79.262C411.125 78.534 411.288 77.8807 411.615 77.302C411.951 76.714 412.413 76.2567 413.001 75.93C413.589 75.6033 414.251 75.44 414.989 75.44C415.717 75.44 416.365 75.6033 416.935 75.93C417.513 76.2473 417.961 76.7 418.279 77.288C418.605 77.8667 418.769 78.5387 418.769 79.304ZM414.989 76.84C414.429 76.84 413.953 77.008 413.561 77.344C413.178 77.6707 412.945 78.1093 412.861 78.66H417.103C417.028 78.1187 416.799 77.68 416.417 77.344C416.034 77.008 415.558 76.84 414.989 76.84ZM424.594 75.44C425.322 75.44 425.97 75.5987 426.54 75.916C427.118 76.2333 427.571 76.6813 427.898 77.26C428.224 77.8387 428.388 78.506 428.388 79.262C428.388 80.018 428.224 80.69 427.898 81.278C427.571 81.8567 427.118 82.3047 426.54 82.622C425.97 82.9393 425.322 83.098 424.594 83.098C423.586 83.098 422.788 82.762 422.2 82.09V85.716H420.45V75.524H422.116V76.504C422.405 76.1493 422.76 75.8833 423.18 75.706C423.609 75.5287 424.08 75.44 424.594 75.44ZM424.398 81.6C425.042 81.6 425.569 81.3853 425.98 80.956C426.4 80.5267 426.61 79.962 426.61 79.262C426.61 78.562 426.4 77.9973 425.98 77.568C425.569 77.1387 425.042 76.924 424.398 76.924C423.978 76.924 423.6 77.022 423.264 77.218C422.928 77.4047 422.662 77.6753 422.466 78.03C422.27 78.3847 422.172 78.7953 422.172 79.262C422.172 79.7287 422.27 80.1393 422.466 80.494C422.662 80.8487 422.928 81.124 423.264 81.32C423.6 81.5067 423.978 81.6 424.398 81.6Z" fill="#9C9C9C"/>
<path d="M279 33.5C280.381 33.5 281.5 32.3807 281.5 31C281.5 29.6193 280.381 28.5 279 28.5V33.5ZM35 33.5H279V28.5H35V33.5Z" fill="#5CEAD2"/>
<circle cx="286" cy="30" r="28" fill="#04477B"/>
<path d="M285.288 39.192C284.104 39.192 282.952 39.008 281.832 38.64C280.728 38.272 279.824 37.776 279.12 37.152L280.224 35.256C280.784 35.784 281.512 36.216 282.408 36.552C283.304 36.888 284.264 37.056 285.288 37.056C286.536 37.056 287.504 36.792 288.192 36.264C288.896 35.72 289.248 34.992 289.248 34.08C289.248 33.2 288.912 32.496 288.24 31.968C287.584 31.424 286.536 31.152 285.096 31.152H283.752V29.472L288.744 23.328L289.08 24.288H279.888V22.2H290.976V23.832L286.008 29.952L284.76 29.208H285.552C287.584 29.208 289.104 29.664 290.112 30.576C291.136 31.488 291.648 32.648 291.648 34.056C291.648 35 291.416 35.864 290.952 36.648C290.488 37.432 289.784 38.056 288.84 38.52C287.912 38.968 286.728 39.192 285.288 39.192Z" fill="white"/>
<path d="M274.455 83.14C273.689 83.14 272.957 83.0327 272.257 82.818C271.557 82.594 271.001 82.3093 270.591 81.964L271.221 80.55C271.613 80.858 272.098 81.1147 272.677 81.32C273.255 81.5253 273.848 81.628 274.455 81.628C274.968 81.628 275.383 81.572 275.701 81.46C276.018 81.348 276.251 81.1987 276.401 81.012C276.55 80.816 276.625 80.5967 276.625 80.354C276.625 80.0553 276.517 79.8173 276.303 79.64C276.088 79.4533 275.808 79.3087 275.463 79.206C275.127 79.094 274.749 78.9913 274.329 78.898C273.918 78.8047 273.503 78.6973 273.083 78.576C272.672 78.4453 272.294 78.282 271.949 78.086C271.613 77.8807 271.337 77.61 271.123 77.274C270.908 76.938 270.801 76.5087 270.801 75.986C270.801 75.454 270.941 74.9687 271.221 74.53C271.51 74.082 271.944 73.7273 272.523 73.466C273.111 73.1953 273.853 73.06 274.749 73.06C275.337 73.06 275.92 73.1347 276.499 73.284C277.077 73.4333 277.581 73.648 278.011 73.928L277.437 75.342C276.998 75.0807 276.545 74.8893 276.079 74.768C275.612 74.6373 275.164 74.572 274.735 74.572C274.231 74.572 273.82 74.6327 273.503 74.754C273.195 74.8753 272.966 75.034 272.817 75.23C272.677 75.426 272.607 75.65 272.607 75.902C272.607 76.2007 272.709 76.4433 272.915 76.63C273.129 76.8073 273.405 76.9473 273.741 77.05C274.086 77.1527 274.469 77.2553 274.889 77.358C275.309 77.4513 275.724 77.5587 276.135 77.68C276.555 77.8013 276.933 77.96 277.269 78.156C277.614 78.352 277.889 78.618 278.095 78.954C278.309 79.29 278.417 79.7147 278.417 80.228C278.417 80.7507 278.272 81.236 277.983 81.684C277.703 82.1227 277.269 82.4773 276.681 82.748C276.093 83.0093 275.351 83.14 274.455 83.14ZM282.867 83.098C282.046 83.098 281.411 82.888 280.963 82.468C280.515 82.0387 280.291 81.4087 280.291 80.578V73.872H282.041V80.536C282.041 80.8907 282.13 81.166 282.307 81.362C282.494 81.558 282.751 81.656 283.077 81.656C283.469 81.656 283.796 81.5533 284.057 81.348L284.547 82.594C284.342 82.762 284.09 82.888 283.791 82.972C283.493 83.056 283.185 83.098 282.867 83.098ZM279.059 76.98V75.58H284.043V76.98H279.059ZM289.255 83.098C288.424 83.098 287.696 82.9347 287.071 82.608C286.455 82.272 285.974 81.8147 285.629 81.236C285.293 80.6573 285.125 79.9993 285.125 79.262C285.125 78.5153 285.288 77.8573 285.615 77.288C285.951 76.7093 286.408 76.2567 286.987 75.93C287.575 75.6033 288.242 75.44 288.989 75.44C289.717 75.44 290.365 75.5987 290.935 75.916C291.504 76.2333 291.952 76.6813 292.279 77.26C292.605 77.8387 292.769 78.52 292.769 79.304C292.769 79.3787 292.764 79.4627 292.755 79.556C292.755 79.6493 292.75 79.738 292.741 79.822H286.511V78.66H291.817L291.131 79.024C291.14 78.5947 291.051 78.2167 290.865 77.89C290.678 77.5633 290.421 77.3067 290.095 77.12C289.777 76.9333 289.409 76.84 288.989 76.84C288.559 76.84 288.181 76.9333 287.855 77.12C287.537 77.3067 287.285 77.568 287.099 77.904C286.921 78.2307 286.833 78.618 286.833 79.066V79.346C286.833 79.794 286.935 80.1907 287.141 80.536C287.346 80.8813 287.635 81.1473 288.009 81.334C288.382 81.5207 288.811 81.614 289.297 81.614C289.717 81.614 290.095 81.5487 290.431 81.418C290.767 81.2873 291.065 81.082 291.327 80.802L292.265 81.88C291.929 82.272 291.504 82.5753 290.991 82.79C290.487 82.9953 289.908 83.098 289.255 83.098ZM298.594 83.098C297.987 83.098 297.432 82.958 296.928 82.678C296.433 82.398 296.036 81.978 295.738 81.418C295.448 80.8487 295.304 80.13 295.304 79.262C295.304 78.3847 295.444 77.666 295.724 77.106C296.013 76.546 296.405 76.1307 296.9 75.86C297.394 75.58 297.959 75.44 298.594 75.44C299.331 75.44 299.98 75.5987 300.54 75.916C301.109 76.2333 301.557 76.6767 301.884 77.246C302.22 77.8153 302.388 78.4873 302.388 79.262C302.388 80.0367 302.22 80.7133 301.884 81.292C301.557 81.8613 301.109 82.3047 300.54 82.622C299.98 82.9393 299.331 83.098 298.594 83.098ZM294.45 85.716V75.524H296.116V77.288L296.06 79.276L296.2 81.264V85.716H294.45ZM298.398 81.6C298.818 81.6 299.191 81.5067 299.518 81.32C299.854 81.1333 300.12 80.8627 300.316 80.508C300.512 80.1533 300.61 79.738 300.61 79.262C300.61 78.7767 300.512 78.3613 300.316 78.016C300.12 77.6613 299.854 77.3907 299.518 77.204C299.191 77.0173 298.818 76.924 298.398 76.924C297.978 76.924 297.6 77.0173 297.264 77.204C296.928 77.3907 296.662 77.6613 296.466 78.016C296.27 78.3613 296.172 78.7767 296.172 79.262C296.172 79.738 296.27 80.1533 296.466 80.508C296.662 80.8627 296.928 81.1333 297.264 81.32C297.6 81.5067 297.978 81.6 298.398 81.6Z" fill="#04477B"/>
<circle cx="160" cy="30" r="28" fill="#04477B"/>
<path d="M153.888 39V37.368L160.728 30.768C161.336 30.192 161.784 29.688 162.072 29.256C162.376 28.808 162.576 28.4 162.672 28.032C162.784 27.648 162.84 27.28 162.84 26.928C162.84 26.064 162.536 25.384 161.928 24.888C161.32 24.392 160.432 24.144 159.264 24.144C158.368 24.144 157.56 24.296 156.84 24.6C156.12 24.888 155.496 25.344 154.968 25.968L153.336 24.552C153.976 23.736 154.832 23.112 155.904 22.68C156.992 22.232 158.184 22.008 159.48 22.008C160.648 22.008 161.664 22.2 162.528 22.584C163.392 22.952 164.056 23.488 164.52 24.192C165 24.896 165.24 25.728 165.24 26.688C165.24 27.232 165.168 27.768 165.024 28.296C164.88 28.824 164.608 29.384 164.208 29.976C163.808 30.568 163.232 31.232 162.48 31.968L156.384 37.848L155.808 36.912H165.96V39H153.888Z" fill="white"/>
<path d="M148.455 83.14C147.689 83.14 146.957 83.0327 146.257 82.818C145.557 82.594 145.001 82.3093 144.591 81.964L145.221 80.55C145.613 80.858 146.098 81.1147 146.677 81.32C147.255 81.5253 147.848 81.628 148.455 81.628C148.968 81.628 149.383 81.572 149.701 81.46C150.018 81.348 150.251 81.1987 150.401 81.012C150.55 80.816 150.625 80.5967 150.625 80.354C150.625 80.0553 150.517 79.8173 150.303 79.64C150.088 79.4533 149.808 79.3087 149.463 79.206C149.127 79.094 148.749 78.9913 148.329 78.898C147.918 78.8047 147.503 78.6973 147.083 78.576C146.672 78.4453 146.294 78.282 145.949 78.086C145.613 77.8807 145.337 77.61 145.123 77.274C144.908 76.938 144.801 76.5087 144.801 75.986C144.801 75.454 144.941 74.9687 145.221 74.53C145.51 74.082 145.944 73.7273 146.523 73.466C147.111 73.1953 147.853 73.06 148.749 73.06C149.337 73.06 149.92 73.1347 150.499 73.284C151.077 73.4333 151.581 73.648 152.011 73.928L151.437 75.342C150.998 75.0807 150.545 74.8893 150.079 74.768C149.612 74.6373 149.164 74.572 148.735 74.572C148.231 74.572 147.82 74.6327 147.503 74.754C147.195 74.8753 146.966 75.034 146.817 75.23C146.677 75.426 146.607 75.65 146.607 75.902C146.607 76.2007 146.709 76.4433 146.915 76.63C147.129 76.8073 147.405 76.9473 147.741 77.05C148.086 77.1527 148.469 77.2553 148.889 77.358C149.309 77.4513 149.724 77.5587 150.135 77.68C150.555 77.8013 150.933 77.96 151.269 78.156C151.614 78.352 151.889 78.618 152.095 78.954C152.309 79.29 152.417 79.7147 152.417 80.228C152.417 80.7507 152.272 81.236 151.983 81.684C151.703 82.1227 151.269 82.4773 150.681 82.748C150.093 83.0093 149.351 83.14 148.455 83.14ZM156.867 83.098C156.046 83.098 155.411 82.888 154.963 82.468C154.515 82.0387 154.291 81.4087 154.291 80.578V73.872H156.041V80.536C156.041 80.8907 156.13 81.166 156.307 81.362C156.494 81.558 156.751 81.656 157.077 81.656C157.469 81.656 157.796 81.5533 158.057 81.348L158.547 82.594C158.342 82.762 158.09 82.888 157.791 82.972C157.493 83.056 157.185 83.098 156.867 83.098ZM153.059 76.98V75.58H158.043V76.98H153.059ZM163.255 83.098C162.424 83.098 161.696 82.9347 161.071 82.608C160.455 82.272 159.974 81.8147 159.629 81.236C159.293 80.6573 159.125 79.9993 159.125 79.262C159.125 78.5153 159.288 77.8573 159.615 77.288C159.951 76.7093 160.408 76.2567 160.987 75.93C161.575 75.6033 162.242 75.44 162.989 75.44C163.717 75.44 164.365 75.5987 164.935 75.916C165.504 76.2333 165.952 76.6813 166.279 77.26C166.605 77.8387 166.769 78.52 166.769 79.304C166.769 79.3787 166.764 79.4627 166.755 79.556C166.755 79.6493 166.75 79.738 166.741 79.822H160.511V78.66H165.817L165.131 79.024C165.14 78.5947 165.051 78.2167 164.865 77.89C164.678 77.5633 164.421 77.3067 164.095 77.12C163.777 76.9333 163.409 76.84 162.989 76.84C162.559 76.84 162.181 76.9333 161.855 77.12C161.537 77.3067 161.285 77.568 161.099 77.904C160.921 78.2307 160.833 78.618 160.833 79.066V79.346C160.833 79.794 160.935 80.1907 161.141 80.536C161.346 80.8813 161.635 81.1473 162.009 81.334C162.382 81.5207 162.811 81.614 163.297 81.614C163.717 81.614 164.095 81.5487 164.431 81.418C164.767 81.2873 165.065 81.082 165.327 80.802L166.265 81.88C165.929 82.272 165.504 82.5753 164.991 82.79C164.487 82.9953 163.908 83.098 163.255 83.098ZM172.594 83.098C171.987 83.098 171.432 82.958 170.928 82.678C170.433 82.398 170.036 81.978 169.738 81.418C169.448 80.8487 169.304 80.13 169.304 79.262C169.304 78.3847 169.444 77.666 169.724 77.106C170.013 76.546 170.405 76.1307 170.9 75.86C171.394 75.58 171.959 75.44 172.594 75.44C173.331 75.44 173.98 75.5987 174.54 75.916C175.109 76.2333 175.557 76.6767 175.884 77.246C176.22 77.8153 176.388 78.4873 176.388 79.262C176.388 80.0367 176.22 80.7133 175.884 81.292C175.557 81.8613 175.109 82.3047 174.54 82.622C173.98 82.9393 173.331 83.098 172.594 83.098ZM168.45 85.716V75.524H170.116V77.288L170.06 79.276L170.2 81.264V85.716H168.45ZM172.398 81.6C172.818 81.6 173.191 81.5067 173.518 81.32C173.854 81.1333 174.12 80.8627 174.316 80.508C174.512 80.1533 174.61 79.738 174.61 79.262C174.61 78.7767 174.512 78.3613 174.316 78.016C174.12 77.6613 173.854 77.3907 173.518 77.204C173.191 77.0173 172.818 76.924 172.398 76.924C171.978 76.924 171.6 77.0173 171.264 77.204C170.928 77.3907 170.662 77.6613 170.466 78.016C170.27 78.3613 170.172 78.7767 170.172 79.262C170.172 79.738 170.27 80.1533 170.466 80.508C170.662 80.8627 170.928 81.1333 171.264 81.32C171.6 81.5067 171.978 81.6 172.398 81.6Z" fill="#04477B"/>
<g filter="url(#filter0_d_201_71)">
<circle cx="35" cy="30" r="28" fill="#04477B"/>
</g>
<path d="M36.8638 22.2V39H33.7438V24.816H30.1918V22.2H36.8638Z" fill="white"/>
<path d="M23.4546 83.14C22.6893 83.14 21.9566 83.0327 21.2566 82.818C20.5566 82.594 20.0013 82.3093 19.5906 81.964L20.2206 80.55C20.6126 80.858 21.0979 81.1147 21.6766 81.32C22.2553 81.5253 22.8479 81.628 23.4546 81.628C23.9679 81.628 24.3833 81.572 24.7006 81.46C25.0179 81.348 25.2513 81.1987 25.4006 81.012C25.5499 80.816 25.6246 80.5967 25.6246 80.354C25.6246 80.0553 25.5173 79.8173 25.3026 79.64C25.0879 79.4533 24.8079 79.3087 24.4626 79.206C24.1266 79.094 23.7486 78.9913 23.3286 78.898C22.9179 78.8047 22.5026 78.6973 22.0826 78.576C21.6719 78.4453 21.2939 78.282 20.9486 78.086C20.6126 77.8807 20.3373 77.61 20.1226 77.274C19.9079 76.938 19.8006 76.5087 19.8006 75.986C19.8006 75.454 19.9406 74.9687 20.2206 74.53C20.5099 74.082 20.9439 73.7273 21.5226 73.466C22.1106 73.1953 22.8526 73.06 23.7486 73.06C24.3366 73.06 24.9199 73.1347 25.4986 73.284C26.0773 73.4333 26.5813 73.648 27.0106 73.928L26.4366 75.342C25.9979 75.0807 25.5453 74.8893 25.0786 74.768C24.6119 74.6373 24.1639 74.572 23.7346 74.572C23.2306 74.572 22.8199 74.6327 22.5026 74.754C22.1946 74.8753 21.9659 75.034 21.8166 75.23C21.6766 75.426 21.6066 75.65 21.6066 75.902C21.6066 76.2007 21.7093 76.4433 21.9146 76.63C22.1293 76.8073 22.4046 76.9473 22.7406 77.05C23.0859 77.1527 23.4686 77.2553 23.8886 77.358C24.3086 77.4513 24.7239 77.5587 25.1346 77.68C25.5546 77.8013 25.9326 77.96 26.2686 78.156C26.6139 78.352 26.8893 78.618 27.0946 78.954C27.3093 79.29 27.4166 79.7147 27.4166 80.228C27.4166 80.7507 27.2719 81.236 26.9826 81.684C26.7026 82.1227 26.2686 82.4773 25.6806 82.748C25.0926 83.0093 24.3506 83.14 23.4546 83.14ZM31.8673 83.098C31.0459 83.098 30.4113 82.888 29.9633 82.468C29.5153 82.0387 29.2913 81.4087 29.2913 80.578V73.872H31.0413V80.536C31.0413 80.8907 31.1299 81.166 31.3073 81.362C31.4939 81.558 31.7506 81.656 32.0773 81.656C32.4693 81.656 32.7959 81.5533 33.0573 81.348L33.5473 82.594C33.3419 82.762 33.0899 82.888 32.7913 82.972C32.4926 83.056 32.1846 83.098 31.8673 83.098ZM28.0593 76.98V75.58H33.0433V76.98H28.0593ZM38.2548 83.098C37.4241 83.098 36.6961 82.9347 36.0708 82.608C35.4548 82.272 34.9741 81.8147 34.6288 81.236C34.2928 80.6573 34.1248 79.9993 34.1248 79.262C34.1248 78.5153 34.2881 77.8573 34.6148 77.288C34.9508 76.7093 35.4081 76.2567 35.9868 75.93C36.5748 75.6033 37.2421 75.44 37.9888 75.44C38.7168 75.44 39.3654 75.5987 39.9348 75.916C40.5041 76.2333 40.9521 76.6813 41.2788 77.26C41.6054 77.8387 41.7688 78.52 41.7688 79.304C41.7688 79.3787 41.7641 79.4627 41.7548 79.556C41.7548 79.6493 41.7501 79.738 41.7408 79.822H35.5108V78.66H40.8168L40.1308 79.024C40.1401 78.5947 40.0514 78.2167 39.8648 77.89C39.6781 77.5633 39.4214 77.3067 39.0948 77.12C38.7774 76.9333 38.4088 76.84 37.9888 76.84C37.5594 76.84 37.1814 76.9333 36.8548 77.12C36.5374 77.3067 36.2854 77.568 36.0988 77.904C35.9214 78.2307 35.8328 78.618 35.8328 79.066V79.346C35.8328 79.794 35.9354 80.1907 36.1408 80.536C36.3461 80.8813 36.6354 81.1473 37.0088 81.334C37.3821 81.5207 37.8114 81.614 38.2968 81.614C38.7168 81.614 39.0948 81.5487 39.4308 81.418C39.7668 81.2873 40.0654 81.082 40.3268 80.802L41.2648 81.88C40.9288 82.272 40.5041 82.5753 39.9908 82.79C39.4868 82.9953 38.9081 83.098 38.2548 83.098ZM47.5938 83.098C46.9871 83.098 46.4318 82.958 45.9278 82.678C45.4331 82.398 45.0364 81.978 44.7378 81.418C44.4484 80.8487 44.3038 80.13 44.3038 79.262C44.3038 78.3847 44.4438 77.666 44.7238 77.106C45.0131 76.546 45.4051 76.1307 45.8998 75.86C46.3944 75.58 46.9591 75.44 47.5938 75.44C48.3311 75.44 48.9798 75.5987 49.5398 75.916C50.1091 76.2333 50.5571 76.6767 50.8838 77.246C51.2198 77.8153 51.3878 78.4873 51.3878 79.262C51.3878 80.0367 51.2198 80.7133 50.8838 81.292C50.5571 81.8613 50.1091 82.3047 49.5398 82.622C48.9798 82.9393 48.3311 83.098 47.5938 83.098ZM43.4498 85.716V75.524H45.1158V77.288L45.0598 79.276L45.1998 81.264V85.716H43.4498ZM47.3978 81.6C47.8178 81.6 48.1911 81.5067 48.5178 81.32C48.8538 81.1333 49.1198 80.8627 49.3158 80.508C49.5118 80.1533 49.6098 79.738 49.6098 79.262C49.6098 78.7767 49.5118 78.3613 49.3158 78.016C49.1198 77.6613 48.8538 77.3907 48.5178 77.204C48.1911 77.0173 47.8178 76.924 47.3978 76.924C46.9778 76.924 46.5998 77.0173 46.2638 77.204C45.9278 77.3907 45.6618 77.6613 45.4658 78.016C45.2698 78.3613 45.1718 78.7767 45.1718 79.262C45.1718 79.738 45.2698 80.1533 45.4658 80.508C45.6618 80.8627 45.9278 81.1333 46.2638 81.32C46.5998 81.5067 46.9778 81.6 47.3978 81.6Z" fill="#04477B"/>
<defs>
<filter id="filter0_d_201_71" x="0" y="0" width="70" height="70" filterUnits="userSpaceOnUse" color-interpolation-filters="sRGB">
<feFlood flood-opacity="0" result="BackgroundImageFix"/>
<feColorMatrix in="SourceAlpha" type="matrix" values="0 0 0 0 0 0 0 0 0 0 0 0 0 0 0 0 0 0 127 0" result="hardAlpha"/>
<feOffset dy="5"/>
<feGaussianBlur stdDeviation="3.5"/>
<feComposite in2="hardAlpha" operator="out"/>
<feColorMatrix type="matrix" values="0 0 0 0 0 0 0 0 0 0 0 0 0 0 0 0 0 0 0.11 0"/>
<feBlend mode="normal" in2="BackgroundImageFix" result="effect1_dropShadow_201_71"/>
<feBlend mode="normal" in="SourceGraphic" in2="effect1_dropShadow_201_71" result="shape"/>
</filter>
</defs>
</svg>
