<svg width="337" height="86" viewBox="0 0 337 86" fill="none" xmlns="http://www.w3.org/2000/svg">
<path d="M310 32.5C311.381 32.5 312.5 31.3807 312.5 30C312.5 28.6193 311.381 27.5 310 27.5V32.5ZM24 32.5H310V27.5H24V32.5Z" fill="#E0E0E0"/>
<g filter="url(#filter0_d_215_2)">
<circle cx="35" cy="30" r="28" fill="#04477B"/>
</g>
<path d="M36.8638 22.2V39H33.7438V24.816H30.1918V22.2H36.8638Z" fill="white"/>
<path d="M23.4546 83.14C22.6986 83.14 21.9659 83.0327 21.2566 82.818C20.5566 82.6033 20.0013 82.3187 19.5906 81.964L20.2206 80.55C20.6219 80.8673 21.1119 81.1287 21.6906 81.334C22.2786 81.53 22.8666 81.628 23.4546 81.628C24.1826 81.628 24.7239 81.5113 25.0786 81.278C25.4426 81.0447 25.6246 80.7367 25.6246 80.354C25.6246 80.074 25.5219 79.8453 25.3166 79.668C25.1206 79.4813 24.8686 79.3367 24.5606 79.234C24.2526 79.1313 23.8326 79.0147 23.3006 78.884C22.5539 78.7067 21.9473 78.5293 21.4806 78.352C21.0233 78.1747 20.6266 77.8993 20.2906 77.526C19.9639 77.1433 19.8006 76.63 19.8006 75.986C19.8006 75.4447 19.9453 74.9547 20.2346 74.516C20.5333 74.068 20.9766 73.7133 21.5646 73.452C22.1619 73.1907 22.8899 73.06 23.7486 73.06C24.3459 73.06 24.9339 73.1347 25.5126 73.284C26.0913 73.4333 26.5906 73.648 27.0106 73.928L26.4366 75.342C26.0073 75.09 25.5593 74.8987 25.0926 74.768C24.6259 74.6373 24.1733 74.572 23.7346 74.572C23.0159 74.572 22.4793 74.6933 22.1246 74.936C21.7793 75.1787 21.6066 75.5007 21.6066 75.902C21.6066 76.182 21.7046 76.4107 21.9006 76.588C22.1059 76.7653 22.3626 76.9053 22.6706 77.008C22.9786 77.1107 23.3986 77.2273 23.9306 77.358C24.6586 77.526 25.2559 77.7033 25.7226 77.89C26.1893 78.0673 26.5859 78.3427 26.9126 78.716C27.2486 79.0893 27.4166 79.5933 27.4166 80.228C27.4166 80.7693 27.2673 81.2593 26.9686 81.698C26.6793 82.1367 26.2359 82.4867 25.6386 82.748C25.0413 83.0093 24.3133 83.14 23.4546 83.14ZM33.5473 82.594C33.3419 82.762 33.0899 82.888 32.7913 82.972C32.5019 83.056 32.1939 83.098 31.8673 83.098C31.0459 83.098 30.4113 82.8833 29.9633 82.454C29.5153 82.0247 29.2913 81.3993 29.2913 80.578V76.98H28.0593V75.58H29.2913V73.872H31.0413V75.58H33.0433V76.98H31.0413V80.536C31.0413 80.9 31.1299 81.18 31.3073 81.376C31.4846 81.5627 31.7413 81.656 32.0773 81.656C32.4693 81.656 32.7959 81.5533 33.0573 81.348L33.5473 82.594ZM41.7688 79.304C41.7688 79.4253 41.7594 79.598 41.7408 79.822H35.8748C35.9774 80.3727 36.2434 80.8113 36.6728 81.138C37.1114 81.4553 37.6528 81.614 38.2968 81.614C39.1181 81.614 39.7948 81.3433 40.3268 80.802L41.2648 81.88C40.9288 82.2813 40.5041 82.5847 39.9908 82.79C39.4774 82.9953 38.8988 83.098 38.2548 83.098C37.4334 83.098 36.7101 82.9347 36.0848 82.608C35.4594 82.2813 34.9741 81.8287 34.6288 81.25C34.2928 80.662 34.1248 79.9993 34.1248 79.262C34.1248 78.534 34.2881 77.8807 34.6148 77.302C34.9508 76.714 35.4128 76.2567 36.0008 75.93C36.5888 75.6033 37.2514 75.44 37.9888 75.44C38.7168 75.44 39.3654 75.6033 39.9348 75.93C40.5134 76.2473 40.9614 76.7 41.2788 77.288C41.6054 77.8667 41.7688 78.5387 41.7688 79.304ZM37.9888 76.84C37.4288 76.84 36.9528 77.008 36.5608 77.344C36.1781 77.6707 35.9448 78.1093 35.8608 78.66H40.1028C40.0281 78.1187 39.7994 77.68 39.4168 77.344C39.0341 77.008 38.5581 76.84 37.9888 76.84ZM47.5938 75.44C48.3218 75.44 48.9704 75.5987 49.5398 75.916C50.1184 76.2333 50.5711 76.6813 50.8978 77.26C51.2244 77.8387 51.3878 78.506 51.3878 79.262C51.3878 80.018 51.2244 80.69 50.8978 81.278C50.5711 81.8567 50.1184 82.3047 49.5398 82.622C48.9704 82.9393 48.3218 83.098 47.5938 83.098C46.5858 83.098 45.7878 82.762 45.1998 82.09V85.716H43.4498V75.524H45.1158V76.504C45.4051 76.1493 45.7598 75.8833 46.1798 75.706C46.6091 75.5287 47.0804 75.44 47.5938 75.44ZM47.3978 81.6C48.0418 81.6 48.5691 81.3853 48.9798 80.956C49.3998 80.5267 49.6098 79.962 49.6098 79.262C49.6098 78.562 49.3998 77.9973 48.9798 77.568C48.5691 77.1387 48.0418 76.924 47.3978 76.924C46.9778 76.924 46.5998 77.022 46.2638 77.218C45.9278 77.4047 45.6618 77.6753 45.4658 78.03C45.2698 78.3847 45.1718 78.7953 45.1718 79.262C45.1718 79.7287 45.2698 80.1393 45.4658 80.494C45.6618 80.8487 45.9278 81.124 46.2638 81.32C46.5998 81.5067 46.9778 81.6 47.3978 81.6Z" fill="#04477B"/>
<circle cx="309" cy="30" r="28" fill="#E2E2E2"/>
<path d="M309.584 29.256C311.232 29.416 312.488 29.928 313.352 30.792C314.216 31.64 314.648 32.728 314.648 34.056C314.648 35.016 314.408 35.888 313.928 36.672C313.448 37.44 312.728 38.056 311.768 38.52C310.824 38.968 309.664 39.192 308.288 39.192C307.088 39.192 305.936 39.016 304.832 38.664C303.728 38.296 302.824 37.792 302.12 37.152L303.224 35.256C303.8 35.8 304.536 36.24 305.432 36.576C306.328 36.896 307.28 37.056 308.288 37.056C309.536 37.056 310.504 36.792 311.192 36.264C311.896 35.736 312.248 35.008 312.248 34.08C312.248 33.152 311.904 32.432 311.216 31.92C310.528 31.408 309.488 31.152 308.096 31.152H306.752V29.472L310.976 24.288H302.888V22.2H313.976V23.832L309.584 29.256Z" fill="#9E9E9E"/>
<path d="M297.455 83.14C296.699 83.14 295.966 83.0327 295.257 82.818C294.557 82.6033 294.001 82.3187 293.591 81.964L294.221 80.55C294.622 80.8673 295.112 81.1287 295.691 81.334C296.279 81.53 296.867 81.628 297.455 81.628C298.183 81.628 298.724 81.5113 299.079 81.278C299.443 81.0447 299.625 80.7367 299.625 80.354C299.625 80.074 299.522 79.8453 299.317 79.668C299.121 79.4813 298.869 79.3367 298.561 79.234C298.253 79.1313 297.833 79.0147 297.301 78.884C296.554 78.7067 295.947 78.5293 295.481 78.352C295.023 78.1747 294.627 77.8993 294.291 77.526C293.964 77.1433 293.801 76.63 293.801 75.986C293.801 75.4447 293.945 74.9547 294.235 74.516C294.533 74.068 294.977 73.7133 295.565 73.452C296.162 73.1907 296.89 73.06 297.749 73.06C298.346 73.06 298.934 73.1347 299.513 73.284C300.091 73.4333 300.591 73.648 301.011 73.928L300.437 75.342C300.007 75.09 299.559 74.8987 299.093 74.768C298.626 74.6373 298.173 74.572 297.735 74.572C297.016 74.572 296.479 74.6933 296.125 74.936C295.779 75.1787 295.607 75.5007 295.607 75.902C295.607 76.182 295.705 76.4107 295.901 76.588C296.106 76.7653 296.363 76.9053 296.671 77.008C296.979 77.1107 297.399 77.2273 297.931 77.358C298.659 77.526 299.256 77.7033 299.723 77.89C300.189 78.0673 300.586 78.3427 300.913 78.716C301.249 79.0893 301.417 79.5933 301.417 80.228C301.417 80.7693 301.267 81.2593 300.969 81.698C300.679 82.1367 300.236 82.4867 299.639 82.748C299.041 83.0093 298.313 83.14 297.455 83.14ZM307.547 82.594C307.342 82.762 307.09 82.888 306.791 82.972C306.502 83.056 306.194 83.098 305.867 83.098C305.046 83.098 304.411 82.8833 303.963 82.454C303.515 82.0247 303.291 81.3993 303.291 80.578V76.98H302.059V75.58H303.291V73.872H305.041V75.58H307.043V76.98H305.041V80.536C305.041 80.9 305.13 81.18 305.307 81.376C305.485 81.5627 305.741 81.656 306.077 81.656C306.469 81.656 306.796 81.5533 307.057 81.348L307.547 82.594ZM315.769 79.304C315.769 79.4253 315.759 79.598 315.741 79.822H309.875C309.977 80.3727 310.243 80.8113 310.673 81.138C311.111 81.4553 311.653 81.614 312.297 81.614C313.118 81.614 313.795 81.3433 314.327 80.802L315.265 81.88C314.929 82.2813 314.504 82.5847 313.991 82.79C313.477 82.9953 312.899 83.098 312.255 83.098C311.433 83.098 310.71 82.9347 310.085 82.608C309.459 82.2813 308.974 81.8287 308.629 81.25C308.293 80.662 308.125 79.9993 308.125 79.262C308.125 78.534 308.288 77.8807 308.615 77.302C308.951 76.714 309.413 76.2567 310.001 75.93C310.589 75.6033 311.251 75.44 311.989 75.44C312.717 75.44 313.365 75.6033 313.935 75.93C314.513 76.2473 314.961 76.7 315.279 77.288C315.605 77.8667 315.769 78.5387 315.769 79.304ZM311.989 76.84C311.429 76.84 310.953 77.008 310.561 77.344C310.178 77.6707 309.945 78.1093 309.861 78.66H314.103C314.028 78.1187 313.799 77.68 313.417 77.344C313.034 77.008 312.558 76.84 311.989 76.84ZM321.594 75.44C322.322 75.44 322.97 75.5987 323.54 75.916C324.118 76.2333 324.571 76.6813 324.898 77.26C325.224 77.8387 325.388 78.506 325.388 79.262C325.388 80.018 325.224 80.69 324.898 81.278C324.571 81.8567 324.118 82.3047 323.54 82.622C322.97 82.9393 322.322 83.098 321.594 83.098C320.586 83.098 319.788 82.762 319.2 82.09V85.716H317.45V75.524H319.116V76.504C319.405 76.1493 319.76 75.8833 320.18 75.706C320.609 75.5287 321.08 75.44 321.594 75.44ZM321.398 81.6C322.042 81.6 322.569 81.3853 322.98 80.956C323.4 80.5267 323.61 79.962 323.61 79.262C323.61 78.562 323.4 77.9973 322.98 77.568C322.569 77.1387 322.042 76.924 321.398 76.924C320.978 76.924 320.6 77.022 320.264 77.218C319.928 77.4047 319.662 77.6753 319.466 78.03C319.27 78.3847 319.172 78.7953 319.172 79.262C319.172 79.7287 319.27 80.1393 319.466 80.494C319.662 80.8487 319.928 81.124 320.264 81.32C320.6 81.5067 320.978 81.6 321.398 81.6Z" fill="#9C9C9C"/>
<circle cx="172" cy="30" r="28" fill="#E2E2E2"/>
<path d="M177.96 36.912V39H165.888V37.368L172.728 30.768C173.56 29.968 174.12 29.28 174.408 28.704C174.696 28.112 174.84 27.52 174.84 26.928C174.84 26.048 174.528 25.368 173.904 24.888C173.296 24.392 172.416 24.144 171.264 24.144C169.408 24.144 167.976 24.752 166.968 25.968L165.336 24.552C165.992 23.752 166.848 23.128 167.904 22.68C168.976 22.232 170.168 22.008 171.48 22.008C173.24 22.008 174.64 22.432 175.68 23.28C176.72 24.112 177.24 25.248 177.24 26.688C177.24 27.584 177.048 28.432 176.664 29.232C176.28 30.032 175.552 30.944 174.48 31.968L169.344 36.912H177.96Z" fill="#9E9E9E"/>
<path d="M160.455 83.14C159.699 83.14 158.966 83.0327 158.257 82.818C157.557 82.6033 157.001 82.3187 156.591 81.964L157.221 80.55C157.622 80.8673 158.112 81.1287 158.691 81.334C159.279 81.53 159.867 81.628 160.455 81.628C161.183 81.628 161.724 81.5113 162.079 81.278C162.443 81.0447 162.625 80.7367 162.625 80.354C162.625 80.074 162.522 79.8453 162.317 79.668C162.121 79.4813 161.869 79.3367 161.561 79.234C161.253 79.1313 160.833 79.0147 160.301 78.884C159.554 78.7067 158.947 78.5293 158.481 78.352C158.023 78.1747 157.627 77.8993 157.291 77.526C156.964 77.1433 156.801 76.63 156.801 75.986C156.801 75.4447 156.945 74.9547 157.235 74.516C157.533 74.068 157.977 73.7133 158.565 73.452C159.162 73.1907 159.89 73.06 160.749 73.06C161.346 73.06 161.934 73.1347 162.513 73.284C163.091 73.4333 163.591 73.648 164.011 73.928L163.437 75.342C163.007 75.09 162.559 74.8987 162.093 74.768C161.626 74.6373 161.173 74.572 160.735 74.572C160.016 74.572 159.479 74.6933 159.125 74.936C158.779 75.1787 158.607 75.5007 158.607 75.902C158.607 76.182 158.705 76.4107 158.901 76.588C159.106 76.7653 159.363 76.9053 159.671 77.008C159.979 77.1107 160.399 77.2273 160.931 77.358C161.659 77.526 162.256 77.7033 162.723 77.89C163.189 78.0673 163.586 78.3427 163.913 78.716C164.249 79.0893 164.417 79.5933 164.417 80.228C164.417 80.7693 164.267 81.2593 163.969 81.698C163.679 82.1367 163.236 82.4867 162.639 82.748C162.041 83.0093 161.313 83.14 160.455 83.14ZM170.547 82.594C170.342 82.762 170.09 82.888 169.791 82.972C169.502 83.056 169.194 83.098 168.867 83.098C168.046 83.098 167.411 82.8833 166.963 82.454C166.515 82.0247 166.291 81.3993 166.291 80.578V76.98H165.059V75.58H166.291V73.872H168.041V75.58H170.043V76.98H168.041V80.536C168.041 80.9 168.13 81.18 168.307 81.376C168.485 81.5627 168.741 81.656 169.077 81.656C169.469 81.656 169.796 81.5533 170.057 81.348L170.547 82.594ZM178.769 79.304C178.769 79.4253 178.759 79.598 178.741 79.822H172.875C172.977 80.3727 173.243 80.8113 173.673 81.138C174.111 81.4553 174.653 81.614 175.297 81.614C176.118 81.614 176.795 81.3433 177.327 80.802L178.265 81.88C177.929 82.2813 177.504 82.5847 176.991 82.79C176.477 82.9953 175.899 83.098 175.255 83.098C174.433 83.098 173.71 82.9347 173.085 82.608C172.459 82.2813 171.974 81.8287 171.629 81.25C171.293 80.662 171.125 79.9993 171.125 79.262C171.125 78.534 171.288 77.8807 171.615 77.302C171.951 76.714 172.413 76.2567 173.001 75.93C173.589 75.6033 174.251 75.44 174.989 75.44C175.717 75.44 176.365 75.6033 176.935 75.93C177.513 76.2473 177.961 76.7 178.279 77.288C178.605 77.8667 178.769 78.5387 178.769 79.304ZM174.989 76.84C174.429 76.84 173.953 77.008 173.561 77.344C173.178 77.6707 172.945 78.1093 172.861 78.66H177.103C177.028 78.1187 176.799 77.68 176.417 77.344C176.034 77.008 175.558 76.84 174.989 76.84ZM184.594 75.44C185.322 75.44 185.97 75.5987 186.54 75.916C187.118 76.2333 187.571 76.6813 187.898 77.26C188.224 77.8387 188.388 78.506 188.388 79.262C188.388 80.018 188.224 80.69 187.898 81.278C187.571 81.8567 187.118 82.3047 186.54 82.622C185.97 82.9393 185.322 83.098 184.594 83.098C183.586 83.098 182.788 82.762 182.2 82.09V85.716H180.45V75.524H182.116V76.504C182.405 76.1493 182.76 75.8833 183.18 75.706C183.609 75.5287 184.08 75.44 184.594 75.44ZM184.398 81.6C185.042 81.6 185.569 81.3853 185.98 80.956C186.4 80.5267 186.61 79.962 186.61 79.262C186.61 78.562 186.4 77.9973 185.98 77.568C185.569 77.1387 185.042 76.924 184.398 76.924C183.978 76.924 183.6 77.022 183.264 77.218C182.928 77.4047 182.662 77.6753 182.466 78.03C182.27 78.3847 182.172 78.7953 182.172 79.262C182.172 79.7287 182.27 80.1393 182.466 80.494C182.662 80.8487 182.928 81.124 183.264 81.32C183.6 81.5067 183.978 81.6 184.398 81.6Z" fill="#9C9C9C"/>
<defs>
<filter id="filter0_d_215_2" x="0" y="0" width="70" height="70" filterUnits="userSpaceOnUse" color-interpolation-filters="sRGB">
<feFlood flood-opacity="0" result="BackgroundImageFix"/>
<feColorMatrix in="SourceAlpha" type="matrix" values="0 0 0 0 0 0 0 0 0 0 0 0 0 0 0 0 0 0 127 0" result="hardAlpha"/>
<feOffset dy="5"/>
<feGaussianBlur stdDeviation="3.5"/>
<feComposite in2="hardAlpha" operator="out"/>
<feColorMatrix type="matrix" values="0 0 0 0 0 0 0 0 0 0 0 0 0 0 0 0 0 0 0.11 0"/>
<feBlend mode="normal" in2="BackgroundImageFix" result="effect1_dropShadow_215_2"/>
<feBlend mode="normal" in="SourceGraphic" in2="effect1_dropShadow_215_2" result="shape"/>
</filter>
</defs>
</svg>
