<svg width="344" height="86" viewBox="0 0 344 86" fill="none" xmlns="http://www.w3.org/2000/svg">
<path d="M310 32.5C311.381 32.5 312.5 31.3807 312.5 30C312.5 28.6193 311.381 27.5 310 27.5V32.5ZM24 32.5H310V27.5H24V32.5Z" fill="#E0E0E0"/>
<path d="M310 32.5C311.381 32.5 312.5 31.3807 312.5 30C312.5 28.6193 311.381 27.5 310 27.5V32.5ZM24 32.5H310V27.5H24V32.5Z" fill="#5CEAD2"/>
<g filter="url(#filter0_d_201_17)">
<circle cx="35" cy="30" r="28" fill="#04477B"/>
</g>
<path d="M36.864 22.2V39H33.744V24.816H30.192V22.2H36.864Z" fill="white"/>
<path d="M23.4546 83.14C22.6986 83.14 21.9659 83.0327 21.2566 82.818C20.5566 82.6033 20.0013 82.3187 19.5906 81.964L20.2206 80.55C20.6219 80.8673 21.1119 81.1287 21.6906 81.334C22.2786 81.53 22.8666 81.628 23.4546 81.628C24.1826 81.628 24.7239 81.5113 25.0786 81.278C25.4426 81.0447 25.6246 80.7367 25.6246 80.354C25.6246 80.074 25.5219 79.8453 25.3166 79.668C25.1206 79.4813 24.8686 79.3367 24.5606 79.234C24.2526 79.1313 23.8326 79.0147 23.3006 78.884C22.5539 78.7067 21.9473 78.5293 21.4806 78.352C21.0233 78.1747 20.6266 77.8993 20.2906 77.526C19.9639 77.1433 19.8006 76.63 19.8006 75.986C19.8006 75.4447 19.9453 74.9547 20.2346 74.516C20.5333 74.068 20.9766 73.7133 21.5646 73.452C22.1619 73.1907 22.8899 73.06 23.7486 73.06C24.3459 73.06 24.9339 73.1347 25.5126 73.284C26.0913 73.4333 26.5906 73.648 27.0106 73.928L26.4366 75.342C26.0073 75.09 25.5593 74.8987 25.0926 74.768C24.6259 74.6373 24.1733 74.572 23.7346 74.572C23.0159 74.572 22.4793 74.6933 22.1246 74.936C21.7793 75.1787 21.6066 75.5007 21.6066 75.902C21.6066 76.182 21.7046 76.4107 21.9006 76.588C22.1059 76.7653 22.3626 76.9053 22.6706 77.008C22.9786 77.1107 23.3986 77.2273 23.9306 77.358C24.6586 77.526 25.2559 77.7033 25.7226 77.89C26.1893 78.0673 26.5859 78.3427 26.9126 78.716C27.2486 79.0893 27.4166 79.5933 27.4166 80.228C27.4166 80.7693 27.2673 81.2593 26.9686 81.698C26.6793 82.1367 26.2359 82.4867 25.6386 82.748C25.0413 83.0093 24.3133 83.14 23.4546 83.14ZM33.5473 82.594C33.3419 82.762 33.0899 82.888 32.7913 82.972C32.5019 83.056 32.1939 83.098 31.8673 83.098C31.0459 83.098 30.4113 82.8833 29.9633 82.454C29.5153 82.0247 29.2913 81.3993 29.2913 80.578V76.98H28.0593V75.58H29.2913V73.872H31.0413V75.58H33.0433V76.98H31.0413V80.536C31.0413 80.9 31.1299 81.18 31.3073 81.376C31.4846 81.5627 31.7413 81.656 32.0773 81.656C32.4693 81.656 32.7959 81.5533 33.0573 81.348L33.5473 82.594ZM41.7688 79.304C41.7688 79.4253 41.7594 79.598 41.7408 79.822H35.8748C35.9774 80.3727 36.2434 80.8113 36.6728 81.138C37.1114 81.4553 37.6528 81.614 38.2968 81.614C39.1181 81.614 39.7948 81.3433 40.3268 80.802L41.2648 81.88C40.9288 82.2813 40.5041 82.5847 39.9908 82.79C39.4774 82.9953 38.8988 83.098 38.2548 83.098C37.4334 83.098 36.7101 82.9347 36.0848 82.608C35.4594 82.2813 34.9741 81.8287 34.6288 81.25C34.2928 80.662 34.1248 79.9993 34.1248 79.262C34.1248 78.534 34.2881 77.8807 34.6148 77.302C34.9508 76.714 35.4128 76.2567 36.0008 75.93C36.5888 75.6033 37.2514 75.44 37.9888 75.44C38.7168 75.44 39.3654 75.6033 39.9348 75.93C40.5134 76.2473 40.9614 76.7 41.2788 77.288C41.6054 77.8667 41.7688 78.5387 41.7688 79.304ZM37.9888 76.84C37.4288 76.84 36.9528 77.008 36.5608 77.344C36.1781 77.6707 35.9448 78.1093 35.8608 78.66H40.1028C40.0281 78.1187 39.7994 77.68 39.4168 77.344C39.0341 77.008 38.5581 76.84 37.9888 76.84ZM47.5938 75.44C48.3218 75.44 48.9704 75.5987 49.5398 75.916C50.1184 76.2333 50.5711 76.6813 50.8978 77.26C51.2244 77.8387 51.3878 78.506 51.3878 79.262C51.3878 80.018 51.2244 80.69 50.8978 81.278C50.5711 81.8567 50.1184 82.3047 49.5398 82.622C48.9704 82.9393 48.3218 83.098 47.5938 83.098C46.5858 83.098 45.7878 82.762 45.1998 82.09V85.716H43.4498V75.524H45.1158V76.504C45.4051 76.1493 45.7598 75.8833 46.1798 75.706C46.6091 75.5287 47.0804 75.44 47.5938 75.44ZM47.3978 81.6C48.0418 81.6 48.5691 81.3853 48.9798 80.956C49.3998 80.5267 49.6098 79.962 49.6098 79.262C49.6098 78.562 49.3998 77.9973 48.9798 77.568C48.5691 77.1387 48.0418 76.924 47.3978 76.924C46.9778 76.924 46.5998 77.022 46.2638 77.218C45.9278 77.4047 45.6618 77.6753 45.4658 78.03C45.2698 78.3847 45.1718 78.7953 45.1718 79.262C45.1718 79.7287 45.2698 80.1393 45.4658 80.494C45.6618 80.8487 45.9278 81.124 46.2638 81.32C46.5998 81.5067 46.9778 81.6 47.3978 81.6Z" fill="#04477B"/>
<g filter="url(#filter1_d_201_17)">
<circle cx="309" cy="30" r="28" fill="#04477B"/>
</g>
<path d="M315.224 36.36V39H302.84V36.912L309.512 30.576C310.264 29.856 310.768 29.232 311.024 28.704C311.296 28.16 311.432 27.624 311.432 27.096C311.432 26.312 311.168 25.712 310.64 25.296C310.112 24.88 309.336 24.672 308.312 24.672C306.6 24.672 305.288 25.256 304.376 26.424L302.192 24.744C302.848 23.864 303.728 23.184 304.832 22.704C305.952 22.208 307.2 21.96 308.576 21.96C310.4 21.96 311.856 22.392 312.944 23.256C314.032 24.12 314.576 25.296 314.576 26.784C314.576 27.696 314.384 28.552 314 29.352C313.616 30.152 312.88 31.064 311.792 32.088L307.304 36.36H315.224Z" fill="white"/>
<path d="M297.455 83.14C296.699 83.14 295.966 83.0327 295.257 82.818C294.557 82.6033 294.001 82.3187 293.591 81.964L294.221 80.55C294.622 80.8673 295.112 81.1287 295.691 81.334C296.279 81.53 296.867 81.628 297.455 81.628C298.183 81.628 298.724 81.5113 299.079 81.278C299.443 81.0447 299.625 80.7367 299.625 80.354C299.625 80.074 299.522 79.8453 299.317 79.668C299.121 79.4813 298.869 79.3367 298.561 79.234C298.253 79.1313 297.833 79.0147 297.301 78.884C296.554 78.7067 295.947 78.5293 295.481 78.352C295.023 78.1747 294.627 77.8993 294.291 77.526C293.964 77.1433 293.801 76.63 293.801 75.986C293.801 75.4447 293.945 74.9547 294.235 74.516C294.533 74.068 294.977 73.7133 295.565 73.452C296.162 73.1907 296.89 73.06 297.749 73.06C298.346 73.06 298.934 73.1347 299.513 73.284C300.091 73.4333 300.591 73.648 301.011 73.928L300.437 75.342C300.007 75.09 299.559 74.8987 299.093 74.768C298.626 74.6373 298.173 74.572 297.735 74.572C297.016 74.572 296.479 74.6933 296.125 74.936C295.779 75.1787 295.607 75.5007 295.607 75.902C295.607 76.182 295.705 76.4107 295.901 76.588C296.106 76.7653 296.363 76.9053 296.671 77.008C296.979 77.1107 297.399 77.2273 297.931 77.358C298.659 77.526 299.256 77.7033 299.723 77.89C300.189 78.0673 300.586 78.3427 300.913 78.716C301.249 79.0893 301.417 79.5933 301.417 80.228C301.417 80.7693 301.267 81.2593 300.969 81.698C300.679 82.1367 300.236 82.4867 299.639 82.748C299.041 83.0093 298.313 83.14 297.455 83.14ZM307.547 82.594C307.342 82.762 307.09 82.888 306.791 82.972C306.502 83.056 306.194 83.098 305.867 83.098C305.046 83.098 304.411 82.8833 303.963 82.454C303.515 82.0247 303.291 81.3993 303.291 80.578V76.98H302.059V75.58H303.291V73.872H305.041V75.58H307.043V76.98H305.041V80.536C305.041 80.9 305.13 81.18 305.307 81.376C305.485 81.5627 305.741 81.656 306.077 81.656C306.469 81.656 306.796 81.5533 307.057 81.348L307.547 82.594ZM315.769 79.304C315.769 79.4253 315.759 79.598 315.741 79.822H309.875C309.977 80.3727 310.243 80.8113 310.673 81.138C311.111 81.4553 311.653 81.614 312.297 81.614C313.118 81.614 313.795 81.3433 314.327 80.802L315.265 81.88C314.929 82.2813 314.504 82.5847 313.991 82.79C313.477 82.9953 312.899 83.098 312.255 83.098C311.433 83.098 310.71 82.9347 310.085 82.608C309.459 82.2813 308.974 81.8287 308.629 81.25C308.293 80.662 308.125 79.9993 308.125 79.262C308.125 78.534 308.288 77.8807 308.615 77.302C308.951 76.714 309.413 76.2567 310.001 75.93C310.589 75.6033 311.251 75.44 311.989 75.44C312.717 75.44 313.365 75.6033 313.935 75.93C314.513 76.2473 314.961 76.7 315.279 77.288C315.605 77.8667 315.769 78.5387 315.769 79.304ZM311.989 76.84C311.429 76.84 310.953 77.008 310.561 77.344C310.178 77.6707 309.945 78.1093 309.861 78.66H314.103C314.028 78.1187 313.799 77.68 313.417 77.344C313.034 77.008 312.558 76.84 311.989 76.84ZM321.594 75.44C322.322 75.44 322.97 75.5987 323.54 75.916C324.118 76.2333 324.571 76.6813 324.898 77.26C325.224 77.8387 325.388 78.506 325.388 79.262C325.388 80.018 325.224 80.69 324.898 81.278C324.571 81.8567 324.118 82.3047 323.54 82.622C322.97 82.9393 322.322 83.098 321.594 83.098C320.586 83.098 319.788 82.762 319.2 82.09V85.716H317.45V75.524H319.116V76.504C319.405 76.1493 319.76 75.8833 320.18 75.706C320.609 75.5287 321.08 75.44 321.594 75.44ZM321.398 81.6C322.042 81.6 322.569 81.3853 322.98 80.956C323.4 80.5267 323.61 79.962 323.61 79.262C323.61 78.562 323.4 77.9973 322.98 77.568C322.569 77.1387 322.042 76.924 321.398 76.924C320.978 76.924 320.6 77.022 320.264 77.218C319.928 77.4047 319.662 77.6753 319.466 78.03C319.27 78.3847 319.172 78.7953 319.172 79.262C319.172 79.7287 319.27 80.1393 319.466 80.494C319.662 80.8487 319.928 81.124 320.264 81.32C320.6 81.5067 320.978 81.6 321.398 81.6Z" fill="#04477B"/>
<defs>
<filter id="filter0_d_201_17" x="0" y="0" width="70" height="70" filterUnits="userSpaceOnUse" color-interpolation-filters="sRGB">
<feFlood flood-opacity="0" result="BackgroundImageFix"/>
<feColorMatrix in="SourceAlpha" type="matrix" values="0 0 0 0 0 0 0 0 0 0 0 0 0 0 0 0 0 0 127 0" result="hardAlpha"/>
<feOffset dy="5"/>
<feGaussianBlur stdDeviation="3.5"/>
<feComposite in2="hardAlpha" operator="out"/>
<feColorMatrix type="matrix" values="0 0 0 0 0 0 0 0 0 0 0 0 0 0 0 0 0 0 0.11 0"/>
<feBlend mode="normal" in2="BackgroundImageFix" result="effect1_dropShadow_201_17"/>
<feBlend mode="normal" in="SourceGraphic" in2="effect1_dropShadow_201_17" result="shape"/>
</filter>
<filter id="filter1_d_201_17" x="274" y="0" width="70" height="70" filterUnits="userSpaceOnUse" color-interpolation-filters="sRGB">
<feFlood flood-opacity="0" result="BackgroundImageFix"/>
<feColorMatrix in="SourceAlpha" type="matrix" values="0 0 0 0 0 0 0 0 0 0 0 0 0 0 0 0 0 0 127 0" result="hardAlpha"/>
<feOffset dy="5"/>
<feGaussianBlur stdDeviation="3.5"/>
<feComposite in2="hardAlpha" operator="out"/>
<feColorMatrix type="matrix" values="0 0 0 0 0 0 0 0 0 0 0 0 0 0 0 0 0 0 0.11 0"/>
<feBlend mode="normal" in2="BackgroundImageFix" result="effect1_dropShadow_201_17"/>
<feBlend mode="normal" in="SourceGraphic" in2="effect1_dropShadow_201_17" result="shape"/>
</filter>
</defs>
</svg>
