<svg xmlns="http://www.w3.org/2000/svg" width="58" height="58" viewBox="0 0 58 58" fill="none">
  <g filter="url(#filter0_d_48_21954)">
    <circle cx="29" cy="25" r="21" fill="#04477B"/>
  </g>
  <path d="M30.5 19.75C30.5 21.5402 29.7888 23.2571 28.523 24.523C27.2571 25.7888 25.5402 26.5 23.75 26.5C21.9598 26.5 20.2429 25.7888 18.977 24.523C17.7112 23.2571 17 21.5402 17 19.75C17 17.9598 17.7112 16.2429 18.977 14.977C20.2429 13.7112 21.9598 13 23.75 13C25.5402 13 27.2571 13.7112 28.523 14.977C29.7888 16.2429 30.5 17.9598 30.5 19.75ZM24.5 16.75C24.5 16.5511 24.421 16.3603 24.2803 16.2197C24.1397 16.079 23.9489 16 23.75 16C23.5511 16 23.3603 16.079 23.2197 16.2197C23.079 16.3603 23 16.5511 23 16.75V19H20.75C20.5511 19 20.3603 19.079 20.2197 19.2197C20.079 19.3603 20 19.5511 20 19.75C20 19.9489 20.079 20.1397 20.2197 20.2803C20.3603 20.421 20.5511 20.5 20.75 20.5H23V22.75C23 22.9489 23.079 23.1397 23.2197 23.2803C23.3603 23.421 23.5511 23.5 23.75 23.5C23.9489 23.5 24.1397 23.421 24.2803 23.2803C24.421 23.1397 24.5 22.9489 24.5 22.75V20.5H26.75C26.9489 20.5 27.1397 20.421 27.2803 20.2803C27.421 20.1397 27.5 19.9489 27.5 19.75C27.5 19.5511 27.421 19.3603 27.2803 19.2197C27.1397 19.079 26.9489 19 26.75 19H24.5V16.75ZM23.75 28C25.1621 28.0003 26.5507 27.638 27.7828 26.948C29.0148 26.258 30.0492 25.2633 30.7868 24.0591C31.5243 22.8549 31.9405 21.4815 31.9953 20.0704C32.0502 18.6594 31.7419 17.2578 31.1 16H36.5C37.6935 16 38.8381 16.4741 39.682 17.318C40.5259 18.1619 41 19.3065 41 20.5V32.5C41 33.475 40.691 34.375 40.1645 35.113L32.0795 27.151C31.6586 26.7365 31.0915 26.5041 30.5007 26.5041C29.91 26.5041 29.3429 26.7365 28.922 27.151L20.837 35.113C20.2915 34.351 19.9988 33.4371 20 32.5V27.1C21.125 27.676 22.4 28 23.75 28ZM34.25 23.5C34.4489 23.5 34.6397 23.421 34.7803 23.2803C34.921 23.1397 35 22.9489 35 22.75C35 22.5511 34.921 22.3603 34.7803 22.2197C34.6397 22.079 34.4489 22 34.25 22C34.0511 22 33.8603 22.079 33.7197 22.2197C33.579 22.3603 33.5 22.5511 33.5 22.75C33.5 22.9489 33.579 23.1397 33.7197 23.2803C33.8603 23.421 34.0511 23.5 34.25 23.5ZM34.25 25C34.8467 25 35.419 24.7629 35.841 24.341C36.2629 23.919 36.5 23.3467 36.5 22.75C36.5 22.1533 36.2629 21.581 35.841 21.159C35.419 20.7371 34.8467 20.5 34.25 20.5C33.6533 20.5 33.081 20.7371 32.659 21.159C32.2371 21.581 32 22.1533 32 22.75C32 23.3467 32.2371 23.919 32.659 24.341C33.081 24.7629 33.6533 25 34.25 25ZM21.8975 36.172C22.6325 36.694 23.531 37 24.5 37H36.5C37.469 37 38.3675 36.694 39.1025 36.172L31.0265 28.222C30.8862 28.0837 30.697 28.0061 30.5 28.0061C30.303 28.0061 30.1138 28.0837 29.9735 28.222L21.8975 36.172Z" fill="white"/>
  <defs>
    <filter id="filter0_d_48_21954" x="0" y="0" width="58" height="58" filterUnits="userSpaceOnUse" color-interpolation-filters="sRGB">
      <feFlood flood-opacity="0" result="BackgroundImageFix"/>
      <feColorMatrix in="SourceAlpha" type="matrix" values="0 0 0 0 0 0 0 0 0 0 0 0 0 0 0 0 0 0 127 0" result="hardAlpha"/>
      <feOffset dy="4"/>
      <feGaussianBlur stdDeviation="4"/>
      <feComposite in2="hardAlpha" operator="out"/>
      <feColorMatrix type="matrix" values="0 0 0 0 0 0 0 0 0 0 0 0 0 0 0 0 0 0 0.1 0"/>
      <feBlend mode="normal" in2="BackgroundImageFix" result="effect1_dropShadow_48_21954"/>
      <feBlend mode="normal" in="SourceGraphic" in2="effect1_dropShadow_48_21954" result="shape"/>
    </filter>
  </defs>
</svg>