<svg width="24" height="22" viewBox="0 0 24 22" fill="none" xmlns="http://www.w3.org/2000/svg">
<g id="2 User">
<path id="2 Friends" fill-rule="evenodd" clip-rule="evenodd" d="M14.5808 6.05615C14.5808 9.14053 12.0568 11.6123 8.90723 11.6123C5.75882 11.6123 3.2337 9.14053 3.2337 6.05615C3.2337 2.97176 5.75882 0.5 8.90723 0.5C12.0568 0.5 14.5808 2.97176 14.5808 6.05615ZM0.333008 17.9036C0.333008 15.0484 4.28279 14.334 8.90723 14.334C13.5568 14.334 17.4815 15.073 17.4815 17.9304C17.4815 20.7856 13.5317 21.5 8.90723 21.5C4.25767 21.5 0.333008 20.761 0.333008 17.9036ZM16.8687 6.15687C16.8687 7.72757 16.3869 9.19319 15.5422 10.4106C15.4543 10.5358 15.5319 10.7046 15.6849 10.7315C15.8972 10.7661 16.1152 10.7874 16.3378 10.7918C18.5525 10.8489 20.5399 9.45255 21.089 7.34971C21.9029 4.22955 19.5148 1.428 16.4725 1.428C16.1426 1.428 15.8264 1.46154 15.5182 1.52302C15.476 1.53197 15.4303 1.55209 15.4075 1.58786C15.3778 1.6337 15.3995 1.69295 15.4292 1.73208C16.3435 2.98752 16.8687 4.51574 16.8687 6.15687ZM20.5365 12.986C22.0251 13.2711 23.0034 13.8513 23.4086 14.6976C23.7522 15.3907 23.7522 16.1956 23.4086 16.8887C22.7888 18.199 20.7888 18.6204 20.0114 18.7289C19.8504 18.7512 19.7214 18.6171 19.7385 18.4583C20.1358 14.8273 16.9771 13.1056 16.1598 12.7099C16.1255 12.6909 16.1175 12.664 16.1209 12.6462C16.1232 12.635 16.1381 12.6171 16.1643 12.6137C17.9326 12.5802 19.8344 12.8183 20.5365 12.986Z" fill="#04477B"/>
</g>
</svg>
