<svg width="24" height="26" viewBox="0 0 24 26" fill="none" xmlns="http://www.w3.org/2000/svg">
<g id="Group 427321046">
<path id="Vector" d="M18.7461 19.0486V20.7627C18.7461 22.9902 16.9404 24.7959 14.7129 24.7959H5.03321C2.80572 24.7959 1 22.9902 1 20.7627V5.03321C1 2.80572 2.80572 1 5.03321 1H14.7129C16.9404 1 18.7461 2.80572 18.7461 5.03321V5.08886" stroke="white" stroke-width="1.8" stroke-miterlimit="10" stroke-linecap="round" stroke-linejoin="round"/>
<path id="Vector_2" d="M5.0332 6.84815L6.54566 8.3606L9.06641 5.83984M5.0332 12.898L6.54566 14.4104L9.06641 11.8897M5.0332 18.9478L6.54566 20.4602L9.06641 17.9395" stroke="white" stroke-width="1.8" stroke-miterlimit="10" stroke-linecap="round" stroke-linejoin="round"/>
<path id="Vector_3" d="M18.1912 16.0406C20.4002 16.0406 22.191 14.2498 22.191 12.0408C22.191 9.83178 20.4002 8.04102 18.1912 8.04102C15.9822 8.04102 14.1914 9.83178 14.1914 12.0408C14.1914 14.2498 15.9822 16.0406 18.1912 16.0406Z" stroke="white" stroke-width="1.8" stroke-miterlimit="10" stroke-linecap="round" stroke-linejoin="round"/>
</g>
</svg>
