<svg width="342" height="310" viewBox="0 0 342 310" fill="none" xmlns="http://www.w3.org/2000/svg">
<g clip-path="url(#clip0_48_19408)">
<path d="M329.68 0H10.0478C6.39045 0 3.42554 2.96434 3.42554 6.62103V246.545C3.42554 250.202 6.39045 253.167 10.0478 253.167H329.68C333.337 253.167 336.302 250.202 336.302 246.545V6.62103C336.302 2.96434 333.337 0 329.68 0Z" fill="#E0E0E0"/>
<path d="M331.441 0H11.8091C8.15168 0 5.18677 2.96434 5.18677 6.62103V246.545C5.18677 250.202 8.15168 253.167 11.8091 253.167H331.441C335.099 253.167 338.063 250.202 338.063 246.545V6.62103C338.063 2.96434 335.099 0 331.441 0Z" fill="#E0E0E0"/>
<path d="M5.18677 17.125V246.546C5.18677 250.191 8.16328 253.167 11.8091 253.167H331.441C335.087 253.167 338.063 250.191 338.063 246.546V17.125H5.18677Z" fill="#FAFAFA"/>
<path d="M336.839 25.9297H6.41077V244.371H336.839V25.9297Z" fill="white"/>
<path d="M325.145 224.375H18.0968C18.0351 224.375 17.9911 224.323 17.9911 224.27V40.0871C17.9911 40.0255 18.0439 39.9814 18.0968 39.9814H325.145C325.206 39.9814 325.25 40.0343 325.25 40.0871V224.27C325.25 224.331 325.198 224.375 325.145 224.375ZM18.2024 224.155H325.039V40.2016H18.2112V224.155H18.2024Z" fill="#DAE6FF"/>
<path d="M19.7171 12.5725C17.5331 12.5725 15.7543 10.794 15.7543 8.61049C15.7543 6.42696 17.5331 4.64844 19.7171 4.64844C21.901 4.64844 23.6799 6.42696 23.6799 8.61049C23.6799 10.794 21.901 12.5725 19.7171 12.5725ZM19.7171 5.52889C18.0175 5.52889 16.6349 6.91121 16.6349 8.61049C16.6349 10.3098 18.0175 11.6921 19.7171 11.6921C21.4167 11.6921 22.7993 10.3098 22.7993 8.61049C22.7993 6.91121 21.4167 5.52889 19.7171 5.52889Z" fill="white"/>
<path d="M32.1955 12.5725C30.0115 12.5725 28.2327 10.794 28.2327 8.61049C28.2327 6.42696 30.0115 4.64844 32.1955 4.64844C34.3794 4.64844 36.1583 6.42696 36.1583 8.61049C36.1583 10.794 34.3794 12.5725 32.1955 12.5725ZM32.1955 5.52889C30.4959 5.52889 29.1133 6.91121 29.1133 8.61049C29.1133 10.3098 30.4959 11.6921 32.1955 11.6921C33.8951 11.6921 35.2777 10.3098 35.2777 8.61049C35.2777 6.91121 33.8951 5.52889 32.1955 5.52889Z" fill="white"/>
<path d="M44.6829 12.5725C42.499 12.5725 40.7201 10.794 40.7201 8.61049C40.7201 6.42696 42.499 4.64844 44.6829 4.64844C46.8669 4.64844 48.6457 6.42696 48.6457 8.61049C48.6457 10.794 46.8669 12.5725 44.6829 12.5725ZM44.6829 5.52889C42.9833 5.52889 41.6007 6.91121 41.6007 8.61049C41.6007 10.3098 42.9833 11.6921 44.6829 11.6921C46.3825 11.6921 47.7651 10.3098 47.7651 8.61049C47.7651 6.91121 46.3825 5.52889 44.6829 5.52889Z" fill="white"/>
<path d="M338.063 16.6846H5.18677V17.565H338.063V16.6846Z" fill="#FAFAFA"/>
<path d="M187.115 47.6235H34.8374V202.795H187.115V47.6235Z" fill="#F9F9F9"/>
<path d="M317.615 47.6235H217.074V98.1001H317.615V47.6235Z" fill="#F9F9F9"/>
<path d="M235.911 77.9466C242.233 77.9466 247.359 72.822 247.359 66.5006C247.359 60.1792 242.233 55.0547 235.911 55.0547C229.588 55.0547 224.463 60.1792 224.463 66.5006C224.463 72.822 229.588 77.9466 235.911 77.9466Z" fill="white"/>
<path d="M307.532 55.0547H257.926V59.7475H307.532V55.0547Z" fill="white"/>
<path d="M290.122 63.6655H257.926V68.3584H290.122V63.6655Z" fill="white"/>
<path d="M317.615 116.986H217.074V244.37H317.615V116.986Z" fill="#F9F9F9"/>
<path d="M264.426 126.583H221.539V169.461H264.426V126.583Z" fill="white"/>
<path d="M264.76 174.912H221.874V217.79H264.76V174.912Z" fill="white"/>
<path d="M313.151 126.583H270.264V149.325H313.151V126.583Z" fill="white"/>
<path d="M313.151 154.784H270.264V197.662H313.151V154.784Z" fill="white"/>
<path d="M264.76 222.923H221.874V244.362H264.76V222.923Z" fill="white"/>
<path d="M313.151 202.795H270.264V244.362H313.151V202.795Z" fill="white"/>
<path d="M170.745 310C265.044 310 341.489 305.538 341.489 300.033C341.489 294.529 265.044 290.066 170.745 290.066C76.445 290.066 0 294.529 0 300.033C0 305.538 76.445 310 170.745 310Z" fill="#FAFAFA"/>
<path d="M189.467 249.804H29.281C24.933 249.804 21.4082 253.328 21.4082 257.675V286.246C21.4082 290.593 24.933 294.117 29.281 294.117H189.467C193.815 294.117 197.34 290.593 197.34 286.246V257.675C197.34 253.328 193.815 249.804 189.467 249.804Z" fill="#E0E0E0"/>
<path d="M158.055 261.021H72.5373C71.6084 261.021 70.8553 261.774 70.8553 262.703V266.048C70.8553 266.977 71.6084 267.73 72.5373 267.73H158.055C158.984 267.73 159.737 266.977 159.737 266.048V262.703C159.737 261.774 158.984 261.021 158.055 261.021Z" fill="#065A93"/>
<path d="M110.845 272.326H72.5373C71.6084 272.326 70.8553 273.079 70.8553 274.007V277.353C70.8553 278.282 71.6084 279.035 72.5373 279.035H110.845C111.774 279.035 112.527 278.282 112.527 277.353V274.007C112.527 273.079 111.774 272.326 110.845 272.326Z" fill="#065A93"/>
<path d="M147.831 272.326H118.427C117.498 272.326 116.745 273.079 116.745 274.007V277.353C116.745 278.282 117.498 279.035 118.427 279.035H147.831C148.76 279.035 149.513 278.282 149.513 277.353V274.007C149.513 273.079 148.76 272.326 147.831 272.326Z" fill="#065A93"/>
<path d="M175.148 283.64H71.7712C71.2654 283.64 70.8553 284.05 70.8553 284.555V285.251C70.8553 285.757 71.2654 286.167 71.7712 286.167H175.148C175.654 286.167 176.064 285.757 176.064 285.251V284.555C176.064 284.05 175.654 283.64 175.148 283.64Z" fill="#F6F6F6"/>
<path d="M61.8561 279.349C63.8756 270.868 58.6355 262.355 50.1522 260.336C41.6689 258.317 33.1547 263.556 31.1353 272.038C29.1158 280.519 34.3558 289.032 42.8392 291.051C51.3225 293.07 59.8367 287.831 61.8561 279.349Z" fill="#FAFAFA"/>
<path d="M59.5394 275.68C59.5394 277.934 58.967 280.047 57.9631 281.887C55.7616 285.946 51.4553 288.711 46.5062 288.711C41.5571 288.711 37.242 285.946 35.0492 281.887C34.0453 280.047 33.4729 277.934 33.4729 275.68C33.4729 268.478 39.3115 262.649 46.5062 262.649C53.7009 262.649 59.5394 268.487 59.5394 275.68Z" fill="white"/>
<path d="M57.9631 281.887C55.7615 285.946 51.4553 288.711 46.5061 288.711C41.557 288.711 37.242 285.946 35.0492 281.887C38.3339 279.695 42.2703 278.418 46.5061 278.418C50.742 278.418 54.6872 279.695 57.9631 281.887Z" fill="#5CEAD2"/>
<path d="M46.5061 277.028C49.7112 277.028 52.3094 274.43 52.3094 271.226C52.3094 268.021 49.7112 265.423 46.5061 265.423C43.301 265.423 40.7028 268.021 40.7028 271.226C40.7028 274.43 43.301 277.028 46.5061 277.028Z" fill="#5CEAD2"/>
<path d="M189.467 198.526H29.281C24.933 198.526 21.4082 202.05 21.4082 206.397V234.968C21.4082 239.315 24.933 242.839 29.281 242.839H189.467C193.815 242.839 197.34 239.315 197.34 234.968V206.397C197.34 202.05 193.815 198.526 189.467 198.526Z" fill="#E0E0E0"/>
<path d="M98.0227 209.743H72.5373C71.6084 209.743 70.8553 210.496 70.8553 211.425V214.771C70.8553 215.699 71.6084 216.452 72.5373 216.452H98.0227C98.9516 216.452 99.7047 215.699 99.7047 214.771V211.425C99.7047 210.496 98.9516 209.743 98.0227 209.743Z" fill="#065A93"/>
<path d="M124.811 209.743H105.129C104.2 209.743 103.447 210.496 103.447 211.425V214.771C103.447 215.699 104.2 216.452 105.129 216.452H124.811C125.74 216.452 126.493 215.699 126.493 214.771V211.425C126.493 210.496 125.74 209.743 124.811 209.743Z" fill="#065A93"/>
<path d="M162.018 221.048H72.5373C71.6084 221.048 70.8553 221.801 70.8553 222.73V226.075C70.8553 227.004 71.6084 227.757 72.5373 227.757H162.018C162.947 227.757 163.7 227.004 163.7 226.075V222.73C163.7 221.801 162.947 221.048 162.018 221.048Z" fill="#065A93"/>
<path d="M134.164 232.362H71.7712C71.2654 232.362 70.8553 232.772 70.8553 233.277V233.973C70.8553 234.479 71.2654 234.889 71.7712 234.889H134.164C134.669 234.889 135.079 234.479 135.079 233.973V233.277C135.079 232.772 134.669 232.362 134.164 232.362Z" fill="#F7F7F7"/>
<path d="M61.8589 228.074C63.8783 219.592 58.6384 211.08 50.155 209.061C41.6717 207.041 33.1575 212.28 31.1381 220.762C29.1187 229.244 34.3586 237.756 42.842 239.775C51.3253 241.795 59.8395 236.556 61.8589 228.074Z" fill="#FAFAFA"/>
<path d="M59.5394 224.402C59.5394 226.656 58.967 228.769 57.9631 230.61C55.7616 234.668 51.4553 237.433 46.5062 237.433C41.5571 237.433 37.242 234.668 35.0492 230.61C34.0453 228.769 33.4729 226.656 33.4729 224.402C33.4729 217.2 39.3115 211.372 46.5062 211.372C53.7009 211.372 59.5394 217.209 59.5394 224.402Z" fill="white"/>
<path d="M57.9631 230.61C55.7615 234.669 51.4553 237.433 46.5061 237.433C41.557 237.433 37.242 234.669 35.0492 230.61C38.3339 228.417 42.2703 227.141 46.5061 227.141C50.742 227.141 54.6872 228.417 57.9631 230.61Z" fill="#5CEAD2"/>
<path d="M46.5061 225.75C49.7112 225.75 52.3094 223.152 52.3094 219.948C52.3094 216.743 49.7112 214.146 46.5061 214.146C43.301 214.146 40.7028 216.743 40.7028 219.948C40.7028 223.152 43.301 225.75 46.5061 225.75Z" fill="#5CEAD2"/>
<path d="M189.467 147.248H29.281C24.933 147.248 21.4082 150.772 21.4082 155.119V183.699C21.4082 188.046 24.933 191.57 29.281 191.57H189.467C193.815 191.57 197.34 188.046 197.34 183.699V155.119C197.34 150.772 193.815 147.248 189.467 147.248Z" fill="#E0E0E0"/>
<path d="M157.421 158.457H72.5373C71.6084 158.457 70.8553 159.209 70.8553 160.138V163.484C70.8553 164.413 71.6084 165.166 72.5373 165.166H157.421C158.35 165.166 159.103 164.413 159.103 163.484V160.138C159.103 159.209 158.35 158.457 157.421 158.457Z" fill="#065A93"/>
<path d="M128.845 169.77H72.5373C71.6084 169.77 70.8553 170.523 70.8553 171.452V174.797C70.8553 175.726 71.6084 176.479 72.5373 176.479H128.845C129.774 176.479 130.527 175.726 130.527 174.797V171.452C130.527 170.523 129.774 169.77 128.845 169.77Z" fill="#065A93"/>
<path d="M142.424 169.77H137.193C136.264 169.77 135.511 170.523 135.511 171.452V174.797C135.511 175.726 136.264 176.479 137.193 176.479H142.424C143.353 176.479 144.106 175.726 144.106 174.797V171.452C144.106 170.523 143.353 169.77 142.424 169.77Z" fill="#065A93"/>
<path d="M117.185 181.084H71.7712C71.2654 181.084 70.8553 181.494 70.8553 182V182.695C70.8553 183.201 71.2654 183.611 71.7712 183.611H117.185C117.691 183.611 118.101 183.201 118.101 182.695V182C118.101 181.494 117.691 181.084 117.185 181.084Z" fill="#F6F6F6"/>
<path d="M175.897 181.084H123.825C123.319 181.084 122.909 181.494 122.909 182V182.695C122.909 183.201 123.319 183.611 123.825 183.611H175.897C176.402 183.611 176.812 183.201 176.812 182.695V182C176.812 181.494 176.402 181.084 175.897 181.084Z" fill="#F6F6F6"/>
<path d="M57.6717 184.284C63.838 178.119 63.838 168.124 57.6717 161.959C51.5055 155.794 41.5081 155.794 35.3418 161.959C29.1756 168.124 29.1756 178.119 35.3418 184.284C41.5081 190.449 51.5055 190.449 57.6717 184.284Z" fill="#FAFAFA"/>
<path d="M59.5394 173.125C59.5394 175.378 58.967 177.492 57.9631 179.332C55.7616 183.391 51.4553 186.155 46.5062 186.155C41.5571 186.155 37.242 183.391 35.0492 179.332C34.0453 177.492 33.4729 175.378 33.4729 173.125C33.4729 165.922 39.3115 160.094 46.5062 160.094C53.7009 160.094 59.5394 165.931 59.5394 173.125Z" fill="white"/>
<path d="M57.9631 179.332C55.7615 183.391 51.4553 186.155 46.5061 186.155C41.557 186.155 37.242 183.391 35.0492 179.332C38.3339 177.139 42.2703 175.863 46.5061 175.863C50.742 175.863 54.6872 177.139 57.9631 179.332Z" fill="#5CEAD2"/>
<path d="M52.3094 168.669C52.3094 171.874 49.7116 174.472 46.5061 174.472C43.3006 174.472 40.7028 171.874 40.7028 168.669C40.7028 165.465 43.3006 162.867 46.5061 162.867C49.7116 162.867 52.3094 165.465 52.3094 168.669Z" fill="#5CEAD2"/>
<path d="M189.467 44.6924H29.281C24.933 44.6924 21.4082 48.2165 21.4082 52.5637V81.1433C21.4082 85.4905 24.933 89.0146 29.281 89.0146H189.467C193.815 89.0146 197.34 85.4905 197.34 81.1433V52.5637C197.34 48.2165 193.815 44.6924 189.467 44.6924Z" fill="#E0E0E0"/>
<path d="M150.42 55.9004H72.5372C71.6083 55.9004 70.8552 56.6533 70.8552 57.5821V60.9278C70.8552 61.8566 71.6083 62.6095 72.5372 62.6095H150.42C151.349 62.6095 152.102 61.8566 152.102 60.9278V57.5821C152.102 56.6533 151.349 55.9004 150.42 55.9004Z" fill="#065A93"/>
<path d="M177.279 67.2144H72.5372C71.6083 67.2144 70.8552 67.9673 70.8552 68.896V72.2418C70.8552 73.1705 71.6083 73.9234 72.5372 73.9234H177.279C178.208 73.9234 178.961 73.1705 178.961 72.2418V68.896C178.961 67.9673 178.208 67.2144 177.279 67.2144Z" fill="#065A93"/>
<path d="M100.356 78.5283H71.7711C71.2653 78.5283 70.8552 78.9383 70.8552 79.444V80.1396C70.8552 80.6453 71.2653 81.0552 71.7711 81.0552H100.356C100.862 81.0552 101.272 80.6453 101.272 80.1396V79.444C101.272 78.9383 100.862 78.5283 100.356 78.5283Z" fill="#F6F6F6"/>
<path d="M61.8672 74.2306C63.8867 65.7489 58.6467 57.2364 50.1633 55.2173C41.68 53.1982 33.1658 58.4372 31.1464 66.9189C29.127 75.4006 34.367 83.9131 42.8503 85.9322C51.3336 87.9513 59.8478 82.7123 61.8672 74.2306Z" fill="#FAFAFA"/>
<path d="M59.5393 70.5688C59.5393 72.8228 58.9669 74.9359 57.963 76.7761C55.7614 80.835 51.4552 83.5996 46.5061 83.5996C41.5569 83.5996 37.2419 80.835 35.0491 76.7761C34.0452 74.9359 33.4728 72.8228 33.4728 70.5688C33.4728 63.3667 39.3113 57.5381 46.5061 57.5381C53.7008 57.5381 59.5393 63.3755 59.5393 70.5688Z" fill="white"/>
<path d="M57.963 76.7761C55.7614 80.835 51.4551 83.5997 46.506 83.5997C41.5569 83.5997 37.2418 80.835 35.0491 76.7761C38.3338 74.5838 42.2702 73.3071 46.506 73.3071C50.7418 73.3071 54.687 74.5838 57.963 76.7761Z" fill="#5CEAD2"/>
<path d="M46.506 71.9164C49.7111 71.9164 52.3093 69.3187 52.3093 66.1142C52.3093 62.9097 49.7111 60.312 46.506 60.312C43.3009 60.312 40.7026 62.9097 40.7026 66.1142C40.7026 69.3187 43.3009 71.9164 46.506 71.9164Z" fill="#5CEAD2"/>
<path d="M302.073 163.447L296.296 166.45L302.759 171.486C302.759 171.486 307.11 167.841 305.437 165.314L302.073 163.447Z" fill="#FFBF9D"/>
<path d="M292.993 172.569L298.515 176.408L302.759 171.486L296.296 166.45L292.993 172.569Z" fill="#FFBF9D"/>
<path d="M304.301 113.517C305.102 114.556 305.78 115.489 306.458 116.493C307.136 117.479 307.805 118.482 308.448 119.495C309.734 121.52 310.949 123.598 312.085 125.729C313.239 127.85 314.269 130.069 315.22 132.341L315.916 134.058L316.541 135.827C316.753 136.408 316.929 137.025 317.114 137.632L317.387 138.548L317.457 138.777L317.554 139.156C317.633 139.446 317.668 139.71 317.712 139.983C317.977 142.079 317.677 143.567 317.36 144.967C317.026 146.349 316.585 147.59 316.119 148.779C315.167 151.147 314.058 153.313 312.878 155.409C310.5 159.6 307.841 163.447 304.873 167.189L300.822 164.583C302.768 160.524 304.67 156.342 306.326 152.248C307.154 150.196 307.894 148.136 308.457 146.146C308.739 145.16 308.968 144.183 309.082 143.311C309.206 142.457 309.188 141.621 309.1 141.427C309.091 141.409 309.082 141.392 309.082 141.409C309.074 141.392 309.1 141.462 309.065 141.374L308.994 141.189L308.712 140.467C308.528 139.983 308.351 139.499 308.122 139.023L307.48 137.579L306.784 136.136C305.824 134.216 304.794 132.306 303.684 130.413C302.566 128.528 301.412 126.644 300.206 124.795C299.034 122.946 297.713 121.071 296.533 119.372L304.301 113.517Z" fill="#FFBF9D"/>
<path d="M316.339 127.032L301.835 137.201C301.835 137.201 300.972 135.299 299.73 132.526C298.735 130.316 297.493 127.56 296.26 124.778C295.758 123.651 295.265 122.524 294.781 121.423C291.426 113.781 295.344 108.278 302.231 109.299C308.298 110.206 316.339 127.032 316.339 127.032Z" fill="#455A64"/>
<path d="M300.426 116.449C300.716 119.187 300.734 127.622 299.73 132.526C298.735 130.316 297.493 127.56 296.26 124.778L300.426 116.449Z" fill="#0A1B35"/>
<path d="M324.758 190.24L169.961 149.069C165.778 147.96 163.26 143.619 164.378 139.437L171.722 111.826C172.832 107.644 177.173 105.126 181.356 106.244L336.153 147.414C340.336 148.524 342.854 152.864 341.736 157.046L334.392 184.658C333.282 188.84 328.941 191.358 324.758 190.24Z" fill="#E0E0E0"/>
<path d="M316.048 149.842L217.628 123.659C216.731 123.421 215.809 123.955 215.57 124.852L214.71 128.085C214.471 128.983 215.005 129.904 215.903 130.143L314.323 156.325C315.221 156.564 316.142 156.03 316.381 155.133L317.241 151.9C317.48 151.002 316.946 150.081 316.048 149.842Z" fill="#F6F6F6"/>
<path d="M276.883 151.124L214.716 134.586C213.818 134.347 212.897 134.881 212.658 135.779L211.798 139.012C211.559 139.91 212.093 140.831 212.991 141.07L275.157 157.608C276.055 157.847 276.976 157.313 277.215 156.415L278.076 153.182C278.315 152.284 277.78 151.363 276.883 151.124Z" fill="#F6F6F6"/>
<path d="M301.775 169.449L211.065 145.317C210.576 145.187 210.075 145.478 209.945 145.967L209.766 146.639C209.636 147.128 209.927 147.629 210.415 147.759L301.125 171.891C301.614 172.021 302.116 171.73 302.246 171.241L302.425 170.569C302.555 170.08 302.264 169.579 301.775 169.449Z" fill="white"/>
<path d="M201.651 140.181C206.647 133.034 204.902 123.192 197.754 118.198C190.607 113.203 180.763 114.947 175.767 122.094C170.771 129.24 172.516 139.082 179.664 144.077C186.811 149.071 196.655 147.327 201.651 140.181Z" fill="#FAFAFA"/>
<path d="M201.302 134.471C200.721 136.646 199.629 138.539 198.185 140.062C195.015 143.425 190.145 144.984 185.354 143.716C180.564 142.439 177.112 138.662 176.037 134.172C175.544 132.129 175.535 129.946 176.108 127.771C177.957 120.815 185.099 116.677 192.056 118.526C199.013 120.375 203.152 127.516 201.302 134.471Z" fill="white"/>
<path d="M198.185 140.071C195.015 143.435 190.145 144.993 185.354 143.725C180.564 142.448 177.112 138.671 176.037 134.181C179.771 132.904 183.91 132.684 188.005 133.767C192.1 134.859 195.578 137.104 198.185 140.071Z" fill="#5CEAD2"/>
<path d="M195.464 128.309C194.636 131.408 191.457 133.248 188.357 132.429C185.258 131.602 183.417 128.423 184.236 125.324C185.064 122.225 188.243 120.385 191.343 121.203C194.443 122.031 196.283 125.209 195.464 128.309Z" fill="#5CEAD2"/>
<path d="M293.099 90.3784C291.443 94.8687 289.18 103.215 291.928 106.825C291.928 106.825 289.902 111.324 281.299 109.942C271.832 108.428 277.53 104.519 277.53 104.519C282.893 104.114 283.377 100.257 283.051 96.5152L293.108 90.3872L293.099 90.3784Z" fill="#FFBF9D"/>
<path d="M275.574 106.016C276.059 105.206 275.627 102.001 275.627 102.001C275.627 102.001 289.33 100.988 294.085 103.013C296.648 104.105 294.068 108.666 294.068 108.666L275.574 106.016Z" fill="#455A64"/>
<path d="M277.265 82.4897C277.186 83.0004 276.842 83.3702 276.508 83.3174C276.173 83.2645 275.971 82.8067 276.05 82.296C276.129 81.7854 276.473 81.4156 276.807 81.4684C277.142 81.5212 277.344 81.9791 277.265 82.4897Z" fill="#0F264C"/>
<path d="M277.239 82.7446C277.239 82.7446 275.601 85.5093 274.095 86.7243C274.861 87.7104 276.464 87.5695 276.464 87.5695L277.239 82.7446Z" fill="#FF5652"/>
<path d="M279.352 80.9047C279.247 80.9047 279.141 80.8431 279.088 80.7463C278.463 79.5576 277.371 79.4432 277.327 79.4344C277.16 79.4168 277.036 79.2671 277.054 79.0998C277.072 78.9325 277.212 78.8093 277.38 78.8269C277.441 78.8269 278.833 78.9765 279.625 80.4557C279.705 80.6054 279.652 80.7903 279.502 80.8695C279.458 80.8959 279.405 80.9047 279.361 80.9047H279.352Z" fill="#0F264C"/>
<path d="M237.311 285.065L230.953 284.202L231.244 269.252L237.611 270.115L237.311 285.065Z" fill="#FFBF9D"/>
<path d="M284.777 292.082H278.357L273.364 277.22H279.775L284.777 292.082Z" fill="#FFBF9D"/>
<path d="M277.503 291.334H285.323C285.587 291.334 285.816 291.519 285.869 291.774L287.137 297.48C287.269 298.069 286.802 298.633 286.195 298.624C283.676 298.58 281.845 298.43 278.674 298.43C276.728 298.43 272.704 298.633 270.009 298.633C267.314 298.633 266.962 295.974 268.063 295.727C273.003 294.644 274.87 293.157 276.455 291.73C276.737 291.475 277.116 291.334 277.494 291.334H277.503Z" fill="#263238"/>
<path d="M230.733 282.749L237.681 283.683C237.945 283.718 238.139 283.929 238.165 284.193L238.659 290.013C238.711 290.621 238.192 291.114 237.593 291.017C235.092 290.638 231.49 290.004 228.346 289.573C224.665 289.08 222.208 288.798 217.893 288.217C215.287 287.865 214.917 285.127 216.044 285.039C221.169 284.625 224.489 285.1 229.148 283.031C229.65 282.802 230.196 282.67 230.751 282.741L230.733 282.749Z" fill="#263238"/>
<path d="M231.253 269.252L231.094 276.965L237.452 277.819L237.611 270.115L231.253 269.252Z" fill="#EA7063"/>
<path d="M279.784 277.229H273.364L275.944 284.889H282.364L279.784 277.229Z" fill="#EA7063"/>
<path d="M267.614 105.161C267.614 105.161 257.513 123.343 259.811 160.058C270.062 161.44 288.837 163.976 293.821 164.654C294.763 159.468 294.922 133.556 303.279 109.643C303.279 109.643 297.608 107.688 292.086 106.667C287.771 105.875 281.492 104.88 277.626 104.712C272.528 104.492 267.605 105.153 267.605 105.153L267.614 105.161Z" fill="#455A64"/>
<path d="M271.524 114.424C270.106 116.863 268.618 119.222 267.156 121.617L262.603 128.696C261.088 131.056 259.503 133.38 257.909 135.705C257.117 136.867 256.298 138.02 255.479 139.174L254.237 140.908C253.779 141.533 253.251 142.238 252.731 142.836C250.653 145.284 248.398 147.247 246.126 149.114C243.828 150.945 241.485 152.645 239.09 154.221C234.3 157.399 229.386 160.181 224.225 162.691L221.786 158.535C226.198 155.304 230.601 151.896 234.793 148.436C236.88 146.693 238.923 144.914 240.834 143.074C242.745 141.251 244.541 139.332 245.959 137.43C246.329 136.937 246.602 136.515 246.945 135.986L248.029 134.234L250.186 130.695L254.501 123.581L258.816 116.449C260.287 114.098 261.722 111.703 263.211 109.37L271.524 114.415V114.424Z" fill="#FFBF9D"/>
<path d="M274.659 112.971C273.831 119.046 263.193 133.512 263.193 133.512L248.39 121.01C248.39 121.01 256.139 112.355 262.506 107.415C268.943 102.423 275.575 106.297 274.668 112.971H274.659Z" fill="#455A64"/>
<path d="M225.009 156.712L219.47 158.588L225.009 164.372C225.009 164.372 228.399 163.967 228.091 159.31L225.009 156.712Z" fill="#FFBF9D"/>
<path d="M215.798 162.998L222.129 166.115L225.009 164.381L219.47 158.596L215.798 162.998Z" fill="#FFBF9D"/>
<path d="M294.772 83.4935C293.381 89.7095 292.879 93.4162 289.198 96.128C283.65 100.205 276.367 96.0928 275.874 89.5862C275.434 83.7312 277.785 74.5568 284.328 73.0424C290.774 71.5545 296.172 77.2774 294.781 83.4935H294.772Z" fill="#FFBF9D"/>
<path d="M303.367 83.282C303.191 82.2078 302.477 81.345 301.799 80.9488C304.802 79.6369 303.296 78.0961 300.734 75.8597C297.414 72.8838 296.031 66.8879 296.172 65.6024C295.124 67.196 295.406 69.5469 296.295 71.66C295.23 70.4361 294.279 69.0714 293.662 67.5218C291.091 61.0681 285.534 66.7118 280.171 66.8967C271.162 67.2048 278.295 62.4944 284.909 62.6353C275.055 59.6153 265.227 63.3573 266.839 69.9431C268.468 76.5993 279.458 68.1557 279.396 74.2573C279.387 75.4899 280.744 76.705 282.743 77.6647C279.969 83.37 286.732 94.8336 290.703 95.2034C294.666 95.5732 301.535 88.7232 301.835 82.7889C302.328 82.833 302.9 83.0266 303.367 83.282Z" fill="#0F264C"/>
<path d="M285.825 84.9105C285.42 86.5834 284.293 87.9041 283.077 88.626C281.254 89.709 279.793 88.2034 279.845 86.196C279.889 84.391 280.893 81.644 282.954 81.3799C284.979 81.1245 286.292 82.9999 285.834 84.9105H285.825Z" fill="#FFBF9D"/>
<path d="M284.68 283.401H272.924C272.924 283.401 257.407 243.842 255.76 223.318C255.408 218.89 256.113 213.114 257.416 206.872C259.635 196.2 263.554 184.165 266.751 175.202C269.595 167.233 271.876 161.687 271.876 161.687C271.876 161.687 280.805 162.893 293.83 164.654C291.672 180.581 274.254 205.912 274.051 227.694C273.857 247.76 284.68 283.401 284.68 283.401Z" fill="#263238"/>
<path d="M272.307 180.176C271.541 190.821 263.351 202.144 257.416 206.872C259.635 196.201 263.554 184.165 266.751 175.202C268.415 174.973 271.048 178.257 272.307 180.176Z" fill="#121E24"/>
<path d="M259.811 160.058C259.811 160.058 229.623 200.251 227.695 219.727C225.687 239.986 228.901 275.169 228.901 275.169L239.671 276.622C239.671 276.622 242.921 243.543 246.082 223.803C249.517 202.285 282.223 180.036 284.469 163.377C273.954 161.96 259.811 160.049 259.811 160.049V160.058Z" fill="#263238"/>
<path d="M270.846 283.656H286.204V279.527L269.031 279.254L270.846 283.656Z" fill="#455A64"/>
<path d="M226.735 275.098L241.697 277.15L242.252 273.012L225.529 270.494L226.735 275.098Z" fill="#455A64"/>
<path d="M275.381 292.461C274.897 292.461 274.439 292.381 274.148 292.135C273.919 291.941 273.813 291.668 273.831 291.334C273.849 291.078 273.981 290.964 274.095 290.902C274.8 290.541 276.878 291.809 277.107 291.959C277.16 291.994 277.186 292.056 277.177 292.109C277.169 292.17 277.125 292.214 277.063 292.232C276.623 292.337 275.98 292.461 275.381 292.461ZM274.43 291.131C274.351 291.131 274.28 291.14 274.236 291.166C274.192 291.184 274.148 291.228 274.139 291.343C274.122 291.58 274.192 291.765 274.342 291.897C274.694 292.197 275.531 292.232 276.623 292.012C275.9 291.589 274.923 291.131 274.43 291.131Z" fill="white"/>
<path d="M277.028 292.232C277.028 292.232 276.975 292.232 276.957 292.214C276.297 291.853 275.011 290.444 275.143 289.731C275.169 289.599 275.266 289.379 275.627 289.335C275.865 289.3 276.085 289.37 276.279 289.529C277.028 290.136 277.177 291.985 277.186 292.064C277.186 292.117 277.168 292.17 277.116 292.205C277.089 292.223 277.063 292.232 277.036 292.232H277.028ZM275.733 289.634C275.733 289.634 275.689 289.634 275.663 289.634C275.469 289.661 275.451 289.749 275.442 289.784C275.363 290.207 276.182 291.272 276.843 291.765C276.772 291.228 276.561 290.145 276.085 289.758C275.98 289.67 275.865 289.626 275.733 289.626V289.634Z" fill="white"/>
<path d="M229.113 283.577C228.109 283.577 226.911 283.454 226.444 282.908C226.259 282.697 226.198 282.433 226.259 282.133C226.295 281.957 226.4 281.825 226.559 281.763C227.387 281.438 229.773 283.075 230.037 283.269C230.09 283.304 230.117 283.375 230.099 283.436C230.081 283.498 230.029 283.542 229.958 283.542C229.712 283.56 229.412 283.568 229.104 283.568L229.113 283.577ZM226.841 282.028C226.779 282.028 226.726 282.028 226.673 282.054C226.612 282.08 226.576 282.124 226.559 282.204C226.515 282.406 226.559 282.573 226.673 282.714C227.017 283.111 228.065 283.322 229.491 283.269C228.611 282.688 227.404 282.028 226.841 282.028Z" fill="white"/>
<path d="M229.958 283.551C229.958 283.551 229.905 283.551 229.879 283.524C229.157 283.075 227.827 281.499 228.038 280.795C228.082 280.637 228.223 280.452 228.611 280.452H228.655C228.963 280.46 229.236 280.584 229.456 280.821C230.178 281.596 230.117 283.331 230.117 283.401C230.117 283.454 230.081 283.507 230.037 283.533C230.011 283.542 229.993 283.551 229.967 283.551H229.958ZM228.611 280.751C228.364 280.751 228.338 280.848 228.329 280.883C228.197 281.306 229.086 282.53 229.808 283.102C229.791 282.591 229.703 281.535 229.236 281.024C229.069 280.848 228.875 280.76 228.646 280.751C228.637 280.751 228.628 280.751 228.611 280.751Z" fill="white"/>
</g>
<defs>
<clipPath id="clip0_48_19408">
<rect width="342" height="310" fill="white"/>
</clipPath>
</defs>
</svg>
