<svg width="36" height="36" viewBox="0 0 36 36" fill="none" xmlns="http://www.w3.org/2000/svg">
<rect x="0.5" y="0.5" width="35" height="35" rx="5.5" fill="white"/>
<g opacity="0.8">
<path d="M9.6967 18.2683C9.63919 18.0955 9.63919 17.9087 9.6967 17.7358C10.8525 14.2583 14.1334 11.75 18 11.75C21.865 11.75 25.1442 14.2558 26.3025 17.7317C26.3609 17.9042 26.3609 18.0908 26.3025 18.2642C25.1475 21.7417 21.8667 24.25 18 24.25C14.135 24.25 10.855 21.7442 9.6967 18.2683Z" stroke="black" stroke-width="1.5" stroke-linecap="round" stroke-linejoin="round"/>
<path d="M20.5 18C20.5 18.663 20.2366 19.2989 19.7678 19.7678C19.2989 20.2366 18.663 20.5 18 20.5C17.337 20.5 16.7011 20.2366 16.2322 19.7678C15.7634 19.2989 15.5 18.663 15.5 18C15.5 17.337 15.7634 16.7011 16.2322 16.2322C16.7011 15.7634 17.337 15.5 18 15.5C18.663 15.5 19.2989 15.7634 19.7678 16.2322C20.2366 16.7011 20.5 17.337 20.5 18Z" stroke="black" stroke-width="1.5" stroke-linecap="round" stroke-linejoin="round"/>
</g>
<rect x="0.5" y="0.5" width="35" height="35" rx="5.5" stroke="#D8D8D8"/>
</svg>
